<svg width="96" height="129" viewBox="0 0 96 129" fill="none" xmlns="http://www.w3.org/2000/svg">
<path d="M47.3013 0C49.951 0 52.4923 1.0516 54.3673 2.92386L93.066 41.5671C94.9445 43.4429 96 45.9886 96 48.6432V126C96 127.657 94.6569 129 93 129H3C1.34315 129 0 127.657 0 126V96H66C67.6569 96 69 94.6569 69 93V59C69 57.3431 67.6569 56 66 56H0V3C0 1.34315 1.34315 0 3 0H47.3013Z" fill="black"/>
<path d="M27.7002 79.6465L25.0635 73.1279L22.4268 79.6465H27.7002ZM34.4238 87H30.6738L29.1064 83.1182H21.0205L19.4531 87H15.7031L25.0635 63.8262L34.4238 87ZM48.7207 76.5557C48.4766 76.0576 47.998 75.5303 47.2852 74.9736C46.4355 74.3584 45.4883 74.0508 44.4434 74.0508C43.3887 74.0508 42.4414 74.3584 41.6016 74.9736C40.9082 75.54 40.4346 76.0674 40.1807 76.5557H48.7207ZM44.4434 70.6377C46.7188 70.6377 48.667 71.4482 50.2881 73.0693C51.9092 74.6904 52.7197 76.6387 52.7197 78.9141L52.6904 79.9688H39.6826C39.8096 80.7695 40.2979 81.6143 41.1475 82.5029C42.0752 83.3623 43.1738 83.792 44.4434 83.792C45.3516 83.792 46.2012 83.543 46.9922 83.0449C47.7441 82.5957 48.4082 81.8096 48.9844 80.6865L52.1338 82.0488C51.2549 83.8066 50.1611 85.0957 48.8525 85.916C47.5146 86.7754 46.0449 87.2051 44.4434 87.2051C42.168 87.2051 40.2197 86.3945 38.5986 84.7734C36.9678 83.1523 36.1523 81.1992 36.1523 78.9141C36.1523 76.6387 36.9678 74.6904 38.5986 73.0693C40.2197 71.4482 42.168 70.6377 44.4434 70.6377Z" fill="black"/>
</svg>
