<svg width="96" height="129" viewBox="0 0 96 129" fill="none" xmlns="http://www.w3.org/2000/svg">
<path d="M47.3013 0C49.951 0 52.4923 1.0516 54.3673 2.92386L93.066 41.5671C94.9445 43.4429 96 45.9886 96 48.6432V126C96 127.657 94.6569 129 93 129H3C1.34315 129 0 127.657 0 126V96H66C67.6569 96 69 94.6569 69 93V59C69 57.3431 67.6569 56 66 56H0V3C0 1.34315 1.34315 0 3 0H47.3013Z" fill="black"/>
<path d="M31.127 64.8223L18.0459 83.5137H29.4863V87H11.3516L24.4326 68.3086H12.9775V64.8223H31.127ZM33.5293 87V64.8223H37.0156V87H33.5293ZM49.2178 77.2734C50.458 77.2734 51.5127 76.8389 52.3818 75.9697C53.2607 75.0908 53.7002 74.0312 53.7002 72.791C53.7002 71.5508 53.2607 70.4912 52.3818 69.6123C51.5127 68.7432 50.458 68.3086 49.2178 68.3086H44.7207V77.2734H49.2178ZM49.2178 64.8223C51.4053 64.8223 53.2803 65.6035 54.8428 67.166C56.4053 68.7188 57.1865 70.5938 57.1865 72.791C57.1865 74.9785 56.4053 76.8535 54.8428 78.416C53.2803 79.9785 51.4053 80.7598 49.2178 80.7598H44.7207V87H41.2344V64.8223H49.2178Z" fill="black"/>
</svg>
