<svg width="96" height="129" viewBox="0 0 96 129" fill="none" xmlns="http://www.w3.org/2000/svg">
<path d="M47.3013 0C49.951 0 52.4923 1.0516 54.3673 2.92386L93.066 41.5671C94.9445 43.4429 96 45.9886 96 48.6432V126C96 127.657 94.6569 129 93 129H3C1.34315 129 0 127.657 0 126V96H66C67.6569 96 69 94.6569 69 93V59C69 57.3431 67.6569 56 66 56H0V3C0 1.34315 1.34315 0 3 0H47.3013Z" fill="black"/>
<path d="M9.81641 79.2871V75.7715C10.6855 75.7324 11.3252 75.5615 11.7354 75.2588C12.1553 74.9561 12.4727 74.4824 12.6875 73.8379C12.9121 73.1934 13.0244 72.1045 13.0244 70.5713C13.0244 68.6377 13.1123 67.3193 13.2881 66.6162C13.4639 65.9033 13.7422 65.3369 14.123 64.917C14.5137 64.4873 15.0801 64.1357 15.8223 63.8623C16.5742 63.5889 17.6533 63.4521 19.0596 63.4521H19.8359V66.9678C18.791 66.9678 18.1074 67.0264 17.7852 67.1436C17.4629 67.251 17.2236 67.4316 17.0674 67.6855C16.9209 67.9395 16.8477 68.4082 16.8477 69.0918C16.8477 70.3223 16.7891 71.6943 16.6719 73.208C16.5938 74.1943 16.3252 75.0781 15.8662 75.8594C15.5244 76.4355 14.9336 76.9971 14.0938 77.5439C14.8066 77.9541 15.373 78.4766 15.793 79.1113C16.2129 79.7363 16.4912 80.5322 16.6279 81.499C16.6865 81.9189 16.7549 83.2861 16.833 85.6006C16.8623 86.4502 16.916 86.9775 16.9941 87.1826C17.1211 87.4854 17.3555 87.7148 17.6973 87.8711C18.0488 88.0273 18.7617 88.1055 19.8359 88.1055V91.6064H19.0596C17.6436 91.6064 16.5938 91.4893 15.9102 91.2549C15.2266 91.0303 14.6699 90.6934 14.2402 90.2441C13.8105 89.8047 13.498 89.2432 13.3027 88.5596C13.1172 87.8857 13.0244 86.7188 13.0244 85.0586C13.0244 83.2031 12.9219 81.9531 12.7168 81.3086C12.5215 80.6543 12.209 80.166 11.7793 79.8438C11.3594 79.5215 10.7051 79.3359 9.81641 79.2871ZM26.7207 81.4844C27.1895 81.9531 27.4238 82.5195 27.4238 83.1836C27.4238 83.8379 27.1895 84.3994 26.7207 84.8682C26.2617 85.3467 25.7002 85.5859 25.0361 85.5859C24.3721 85.5859 23.8105 85.3467 23.3516 84.8682C22.8828 84.3994 22.6484 83.8379 22.6484 83.1836C22.6484 82.5195 22.8828 81.9531 23.3516 81.4844C23.8203 81.0156 24.3818 80.7812 25.0361 80.7812C25.6904 80.7812 26.252 81.0156 26.7207 81.4844ZM36.0664 81.4844C36.5352 81.9531 36.7695 82.5195 36.7695 83.1836C36.7695 83.8379 36.5352 84.3994 36.0664 84.8682C35.6074 85.3467 35.0459 85.5859 34.3818 85.5859C33.7178 85.5859 33.1562 85.3467 32.6973 84.8682C32.2285 84.3994 31.9941 83.8379 31.9941 83.1836C31.9941 82.5195 32.2285 81.9531 32.6973 81.4844C33.166 81.0156 33.7275 80.7812 34.3818 80.7812C35.0361 80.7812 35.5977 81.0156 36.0664 81.4844ZM45.4121 81.4844C45.8809 81.9531 46.1152 82.5195 46.1152 83.1836C46.1152 83.8379 45.8809 84.3994 45.4121 84.8682C44.9531 85.3467 44.3916 85.5859 43.7275 85.5859C43.0635 85.5859 42.502 85.3467 42.043 84.8682C41.5742 84.3994 41.3398 83.8379 41.3398 83.1836C41.3398 82.5195 41.5742 81.9531 42.043 81.4844C42.5117 81.0156 43.0732 80.7812 43.7275 80.7812C44.3818 80.7812 44.9434 81.0156 45.4121 81.4844ZM60.002 75.7715V79.2871C59.1328 79.3359 58.4883 79.5117 58.0684 79.8145C57.6582 80.1074 57.3408 80.5811 57.1162 81.2354C56.8916 81.8799 56.7793 82.9688 56.7793 84.502C56.7793 86.4355 56.6914 87.7539 56.5156 88.457C56.3496 89.1602 56.0713 89.7217 55.6807 90.1416C55.2998 90.5713 54.7334 90.9229 53.9814 91.1963C53.2393 91.4697 52.165 91.6064 50.7588 91.6064H49.9824V88.1055C51.0273 88.1055 51.7061 88.0469 52.0186 87.9297C52.3408 87.8223 52.5801 87.6416 52.7363 87.3877C52.8926 87.1338 52.9707 86.665 52.9707 85.9814C52.9707 84.7412 53.0293 83.3643 53.1465 81.8506C53.2148 80.8643 53.4785 79.9854 53.9375 79.2139C54.2891 78.6279 54.8848 78.0664 55.7246 77.5293C55.0117 77.1191 54.4453 76.6016 54.0254 75.9766C53.6055 75.3418 53.3271 74.5361 53.1904 73.5596C53.1318 73.1494 53.0635 71.7871 52.9854 69.4727C52.9561 68.6133 52.8975 68.0859 52.8096 67.8906C52.6826 67.5781 52.4434 67.3486 52.0918 67.2021C51.75 67.0459 51.0469 66.9678 49.9824 66.9678V63.4521H50.7588C52.1748 63.4521 53.2197 63.5693 53.8936 63.8037C54.5771 64.0381 55.1338 64.3799 55.5635 64.8291C56.0029 65.2686 56.3154 65.8301 56.501 66.5137C56.6963 67.1875 56.7939 68.3545 56.7939 70.0146C56.7939 71.8701 56.8916 73.1201 57.0869 73.7646C57.292 74.4092 57.6045 74.8926 58.0244 75.2148C58.4443 75.5371 59.1035 75.7227 60.002 75.7715Z" fill="black"/>
</svg>
