<svg width="96" height="129" viewBox="0 0 96 129" fill="none" xmlns="http://www.w3.org/2000/svg">
<path d="M47.3013 0C49.951 0 52.4923 1.0516 54.3673 2.92386L93.066 41.5671C94.9445 43.4429 96 45.9886 96 48.6432V126C96 127.657 94.6569 129 93 129H3C1.34315 129 0 127.657 0 126V96H66C67.6569 96 69 94.6569 69 93V59C69 57.3431 67.6569 56 66 56H0V3C0 1.34315 1.34315 0 3 0H47.3013Z" fill="black"/>
<path d="M22.0547 62.9688H46.1367L46.1758 71.0352H45.0234C44.6458 68.1576 43.5651 66.2109 41.7812 65.1953C40.7786 64.6354 39.2812 64.3294 37.2891 64.2773V85.332C37.2891 86.8034 37.543 87.7799 38.0508 88.2617C38.5716 88.7435 39.6458 88.9844 41.2734 88.9844V90H27.0156V88.9844C28.5781 88.9844 29.6133 88.7435 30.1211 88.2617C30.6419 87.7669 30.9023 86.7904 30.9023 85.332V64.2773C28.9492 64.3294 27.4518 64.6354 26.4102 65.1953C24.4961 66.237 23.4154 68.1836 23.168 71.0352H22.0156L22.0547 62.9688Z" fill="black"/>
</svg>
