<svg width="96" height="129" viewBox="0 0 96 129" fill="none" xmlns="http://www.w3.org/2000/svg">
<path d="M47.3013 0C49.951 0 52.4923 1.0516 54.3673 2.92386L93.066 41.5671C94.9445 43.4429 96 45.9886 96 48.6432V126C96 127.657 94.6569 129 93 129H3C1.34315 129 0 127.657 0 126V96H66C67.6569 96 69 94.6569 69 93V59C69 57.3431 67.6569 56 66 56H0V3C0 1.34315 1.34315 0 3 0H47.3013Z" fill="black"/>
<path d="M27.252 60H31.8088L20.5218 92H16L27.252 60Z" fill="black"/>
<path d="M38.5768 85.316V81.368L50.4597 76.658L38.5768 71.9134V67.9654L54 74.4069V78.8745L38.5768 85.316Z" fill="black"/>
</svg>
