<svg width="96" height="129" viewBox="0 0 96 129" fill="none" xmlns="http://www.w3.org/2000/svg">
<path d="M47.3013 0C49.951 0 52.4923 1.0516 54.3673 2.92386L93.066 41.5671C94.9445 43.4429 96 45.9886 96 48.6432V126C96 127.657 94.6569 129 93 129H3C1.34315 129 0 127.657 0 126V96H66C67.6569 96 69 94.6569 69 93V59C69 57.3431 67.6569 56 66 56H0V3C0 1.34315 1.34315 0 3 0H47.3013Z" fill="black"/>
<path d="M33.7002 79.6465L31.0635 73.1279L28.4268 79.6465H33.7002ZM40.4238 87H36.6738L35.1064 83.1182H27.0205L25.4531 87H21.7031L31.0635 63.8262L40.4238 87ZM43.2363 70.8281H46.6494V87H43.2363V70.8281ZM44.9355 69.5391C44.3691 69.5391 43.8809 69.334 43.4707 68.9238C43.0605 68.5137 42.8555 68.0254 42.8555 67.459C42.8555 66.8828 43.0605 66.3896 43.4707 65.9795C43.8809 65.5693 44.3691 65.3643 44.9355 65.3643C45.5117 65.3643 46.0049 65.5693 46.415 65.9795C46.8252 66.3896 47.0303 66.8828 47.0303 67.459C47.0303 68.0254 46.8252 68.5137 46.415 68.9238C46.0049 69.334 45.5117 69.5391 44.9355 69.5391Z" fill="black"/>
</svg>
