<svg width="96" height="129" viewBox="0 0 96 129" fill="none" xmlns="http://www.w3.org/2000/svg">
<path d="M47.3013 0C49.951 0 52.4923 1.0516 54.3673 2.92386L93.066 41.5671C94.9445 43.4429 96 45.9886 96 48.6432V126C96 127.657 94.6569 129 93 129H3C1.34315 129 0 127.657 0 126V96H66C67.6569 96 69 94.6569 69 93V59C69 57.3431 67.6569 56 66 56H0V3C0 1.34315 1.34315 0 3 0H47.3013Z" fill="black"/>
<path d="M15.0928 77.2734C16.333 77.2734 17.3877 76.8389 18.2568 75.9697C19.1357 75.0908 19.5752 74.0312 19.5752 72.791C19.5752 71.5508 19.1357 70.4912 18.2568 69.6123C17.3877 68.7432 16.333 68.3086 15.0928 68.3086H10.5957V77.2734H15.0928ZM15.0928 64.8223C17.2803 64.8223 19.1553 65.6035 20.7178 67.166C22.2803 68.7188 23.0615 70.5938 23.0615 72.791C23.0615 74.9785 22.2803 76.8535 20.7178 78.416C19.1553 79.9785 17.2803 80.7598 15.0928 80.7598H10.5957V87H7.10938V64.8223H15.0928ZM33.9746 83.5137C36.0645 83.5039 37.8516 82.7617 39.3359 81.2871C40.8203 79.8027 41.5625 78.0107 41.5625 75.9111C41.5625 73.8115 40.8203 72.0195 39.3359 70.5352C37.8516 69.0508 36.0645 68.3086 33.9746 68.3086H29.6826V83.5137H33.9746ZM26.3281 87V64.8223H33.96C35.4639 64.8223 36.9043 65.1152 38.2812 65.7012C39.5996 66.2676 40.7715 67.0586 41.7969 68.0742C42.8125 69.0996 43.6035 70.2715 44.1699 71.5898C44.7559 72.9668 45.0488 74.4072 45.0488 75.9111C45.0488 77.4053 44.7559 78.8457 44.1699 80.2324C43.6035 81.5508 42.8076 82.7178 41.7822 83.7334C40.7666 84.7588 39.5996 85.5547 38.2812 86.1211C36.8945 86.707 35.4541 87 33.96 87H26.3281ZM51.875 68.3086V74.1387H60.1074V77.625H51.875V87H48.3887V64.8223H62.085V68.3086H51.875Z" fill="black"/>
</svg>
