<svg width="96" height="129" viewBox="0 0 96 129" fill="none" xmlns="http://www.w3.org/2000/svg">
<path d="M47.3013 0C49.951 0 52.4923 1.0516 54.3673 2.92386L93.066 41.5671C94.9445 43.4429 96 45.9886 96 48.6432V126C96 127.657 94.6569 129 93 129H3C1.34315 129 0 127.657 0 126V96H66C67.6569 96 69 94.6569 69 93V59C69 57.3431 67.6569 56 66 56H0V3C0 1.34315 1.34315 0 3 0H47.3013Z" fill="black"/>
<path d="M28.0928 77.2734C29.333 77.2734 30.3877 76.8389 31.2568 75.9697C32.1357 75.0908 32.5752 74.0312 32.5752 72.791C32.5752 71.5508 32.1357 70.4912 31.2568 69.6123C30.3877 68.7432 29.333 68.3086 28.0928 68.3086H23.5957V77.2734H28.0928ZM28.0928 64.8223C30.2803 64.8223 32.1553 65.6035 33.7178 67.166C35.2803 68.7188 36.0615 70.5938 36.0615 72.791C36.0615 74.9785 35.2803 76.8535 33.7178 78.416C32.1553 79.9785 30.2803 80.7598 28.0928 80.7598H23.5957V87H20.1094V64.8223H28.0928ZM45.0557 87.2051C43.708 87.1953 42.4873 86.873 41.3936 86.2383C40.0557 85.4473 39.1133 84.1143 38.5664 82.2393L41.833 81.3164C42.126 82.3223 42.5801 82.9961 43.1953 83.3379C43.7324 83.6309 44.3574 83.7822 45.0703 83.792C45.1582 83.792 45.2559 83.7871 45.3633 83.7773C45.4707 83.7676 45.5781 83.7529 45.6855 83.7334C45.9785 83.6846 46.2373 83.6113 46.4619 83.5137C47.0381 83.2305 47.3506 82.7666 47.3994 82.1221C47.4189 81.8486 47.3311 81.6094 47.1357 81.4043C46.7549 80.9453 46.0859 80.6865 45.1289 80.6279C42.7461 80.4717 41.0176 79.8516 39.9434 78.7676C39.4941 78.3184 39.1768 77.8105 38.9912 77.2441C38.835 76.8047 38.7568 76.3359 38.7568 75.8379C38.7568 74.2168 39.3916 72.9131 40.6611 71.9268C41.7744 71.0674 43.1123 70.6377 44.6748 70.6377C46.5303 70.6377 48.083 71.2969 49.333 72.6152C50.0166 73.3574 50.5586 74.2461 50.959 75.2812L47.7803 76.4531L47.3408 75.6328C47.2041 75.3887 47.043 75.1689 46.8574 74.9736C46.2617 74.3584 45.5244 74.0508 44.6455 74.0508C44.4795 74.0605 44.333 74.0752 44.2061 74.0947C43.9131 74.1338 43.625 74.207 43.3418 74.3145C42.5605 74.6172 42.1699 75.125 42.1699 75.8379C42.1699 76.2188 42.458 76.5312 43.0342 76.7754C43.6006 77 44.377 77.1465 45.3633 77.2148C46.418 77.2832 47.3506 77.5225 48.1611 77.9326C48.7764 78.2549 49.3037 78.6602 49.7432 79.1484C50.5439 80.0957 50.8955 81.1748 50.7979 82.3857C50.6807 83.9482 50.0166 85.1689 48.8057 86.0479C47.7607 86.8193 46.5156 87.2051 45.0703 87.2051H45.0557Z" fill="black"/>
</svg>
