<svg width="96" height="129" viewBox="0 0 96 129" fill="none" xmlns="http://www.w3.org/2000/svg">
<path d="M47.3013 0C49.951 0 52.4923 1.0516 54.3673 2.92386L93.066 41.5671C94.9445 43.4429 96 45.9886 96 48.6432V126C96 127.657 94.6569 129 93 129H3C1.34315 129 0 127.657 0 126V96H66C67.6569 96 69 94.6569 69 93V59C69 57.3431 67.6569 56 66 56H0V3C0 1.34315 1.34315 0 3 0H47.3013Z" fill="black"/>
<path d="M26.575 71.4883H41.7249V68.4883H26.575V71.4883Z" fill="black"/>
<path fill-rule="evenodd" clip-rule="evenodd" d="M19 69.8235L26.5 61H41.5L49 69.8235L34 91.8823L19 69.8235ZM22.7654 70.0258L27.8873 64H40.1127L45.2346 70.0258L34 86.5472L22.7654 70.0258Z" fill="black"/>
</svg>
