<svg width="96" height="129" viewBox="0 0 96 129" fill="none" xmlns="http://www.w3.org/2000/svg">
<path d="M47.3013 0C49.951 0 52.4923 1.0516 54.3673 2.92386L93.066 41.5671C94.9445 43.4429 96 45.9886 96 48.6432V126C96 127.657 94.6569 129 93 129H3C1.34315 129 0 127.657 0 126V96H66C67.6569 96 69 94.6569 69 93V59C69 57.3431 67.6569 56 66 56H0V3C0 1.34315 1.34315 0 3 0H47.3013Z" fill="black"/>
<path d="M49 59.5849C49 59.2619 48.7415 59 48.4227 59H43.9748C43.9723 59 43.9697 59.0003 43.9671 59.0008L29.6686 62.019C28.425 62.2815 27.5337 63.392 27.5337 64.6791V68.019C27.5337 68.0201 27.5347 68.0208 27.5357 68.0206C27.5366 68.0204 27.5376 68.0212 27.5376 68.0222V78.1174C27.5376 78.7796 26.9349 79.2714 26.2814 79.2714C22.8123 79.2714 20 82.1208 20 85.6357C20 89.1506 22.8123 92 26.2814 92C29.7505 92 32.5628 89.1506 32.5628 85.6357C32.5628 85.5513 32.5612 85.4672 32.5579 85.3836C32.5579 85.3823 32.559 85.3811 32.5603 85.3811C32.5616 85.3811 32.5627 85.38 32.5627 85.3787V69.7808C32.5627 68.1373 33.7007 66.7193 35.2887 66.3841L43.9706 64.5515C43.9708 64.5514 43.9711 64.5514 43.9713 64.5514C43.9733 64.5514 43.9748 64.553 43.9748 64.555V74.6478C43.9748 75.3099 43.3721 75.8018 42.7186 75.8018C39.2495 75.8018 36.4372 78.6512 36.4372 82.1661C36.4372 85.681 39.2495 88.5304 42.7186 88.5304C46.1877 88.5304 49 85.681 49 82.1661C49 82.0817 48.9984 81.9976 48.9952 81.914C48.9951 81.9126 48.9962 81.9115 48.9976 81.9115C48.9989 81.9115 49 81.9104 49 81.9091V59.5849Z" fill="black"/>
</svg>
