<svg width="96" height="129" viewBox="0 0 96 129" fill="none" xmlns="http://www.w3.org/2000/svg">
<path d="M47.3013 0C49.951 0 52.4923 1.0516 54.3673 2.92386L93.066 41.5671C94.9445 43.4429 96 45.9886 96 48.6432V126C96 127.657 94.6569 129 93 129H3C1.34315 129 0 127.657 0 126V96H66C67.6569 96 69 94.6569 69 93V59C69 57.3431 67.6569 56 66 56H0V3C0 1.34315 1.34315 0 3 0H47.3013Z" fill="black"/>
<rect x="43.8857" y="62.7129" width="5.1143" height="26.5747" fill="black"/>
<path d="M43.8857 76.0002L20.8713 89.2876V62.7129L43.8857 76.0002Z" fill="black"/>
</svg>
