<svg width="96" height="129" viewBox="0 0 96 129" fill="none" xmlns="http://www.w3.org/2000/svg">
<path d="M47.3013 0C49.951 0 52.4923 1.0516 54.3673 2.92386L93.066 41.5671C94.9445 43.4429 96 45.9886 96 48.6432V126C96 127.657 94.6569 129 93 129H3C1.34315 129 0 127.657 0 126V96H66C67.6569 96 69 94.6569 69 93V59C69 57.3431 67.6569 56 66 56H0V3C0 1.34315 1.34315 0 3 0H47.3013Z" fill="black"/>
<path d="M35.8461 62H46.6153V67.3846H35.8461V62Z" fill="black"/>
<path d="M35.8461 69.5384H46.6153V74.923H35.8461V69.5384Z" fill="black"/>
<path d="M35.8461 77.077H46.6153V82.4617H35.8461V77.077Z" fill="black"/>
<path d="M48.7693 69.5384H59.5386V74.923H48.7693V69.5384Z" fill="black"/>
<path d="M48.7693 77.077H59.5386V82.4617H48.7693V77.077Z" fill="black"/>
<path d="M35.8461 84.6155H46.6153V90.0001H35.8461V84.6155Z" fill="black"/>
<path d="M10 62H20.7692V67.3846H10V62Z" fill="black"/>
<path d="M10 69.5384H20.7692V74.923H10V69.5384Z" fill="black"/>
<path d="M10 77.077H20.7692V82.4617H10V77.077Z" fill="black"/>
<path d="M10 84.6155H20.7692V90.0001H10V84.6155Z" fill="black"/>
<path d="M22.9232 62H33.6925V67.3846H22.9232V62Z" fill="black"/>
<path d="M22.9232 69.5384H33.6925V74.923H22.9232V69.5384Z" fill="black"/>
<path d="M22.9232 77.077H33.6925V82.4617H22.9232V77.077Z" fill="black"/>
<path d="M22.9232 84.6155H33.6925V90.0001H22.9232V84.6155Z" fill="black"/>
<path d="M48.7693 84.6155H59.5386V90.0001H48.7693V84.6155Z" fill="black"/>
</svg>
