<svg width="567" height="567" viewBox="0 0 567 567" fill="none" xmlns="http://www.w3.org/2000/svg">
<rect width="567" height="567" fill="#D81B60"/>
<path d="M567 0H0V567H567V0Z" fill="#94529F"/>
<path d="M567 0H0V472.5H567V0Z" fill="#6996FF"/>
<path d="M567 0H0V378H567V0Z" fill="#5C916C"/>
<path d="M567 0H0V283.5H567V0Z" fill="#FFF575"/>
<path d="M567 0H0V189H567V0Z" fill="#FFBA65"/>
<path d="M567 0H0V94.5H567V0Z" fill="#E75656"/>
<g filter="url(#filter0_d)">
<path d="M493 283C493 324.336 480.742 364.744 457.777 399.114C434.812 433.484 402.171 460.272 363.981 476.091C325.791 491.91 283.768 496.048 243.226 487.984C202.684 479.92 165.444 460.014 136.215 430.785C106.986 401.556 87.0802 364.316 79.0159 323.774C70.9516 283.232 75.0905 241.209 90.9092 203.019C106.728 164.829 133.516 132.188 167.886 109.223C202.256 86.2576 242.664 74 284 74L284 147.15C257.131 147.15 230.866 155.117 208.526 170.045C186.185 184.972 168.773 206.189 158.491 231.012C148.209 255.836 145.519 283.151 150.76 309.503C156.002 335.855 168.941 360.061 187.94 379.06C206.939 398.059 231.145 410.998 257.497 416.24C283.849 421.481 311.164 418.791 335.988 408.509C360.811 398.227 382.028 380.815 396.955 358.474C411.883 336.134 419.85 309.869 419.85 283H493Z" fill="#161616"/>
<path d="M284 418.85C359.028 418.85 419.85 358.028 419.85 283C419.85 207.972 359.028 147.15 284 147.15C208.972 147.15 148.15 207.972 148.15 283C148.15 358.028 208.972 418.85 284 418.85Z" fill="#D81B60"/>
<path d="M258.92 252.584C258.92 267.911 247.69 280.242 233.84 280.242C219.99 280.242 208.76 267.855 208.76 252.584C208.76 237.313 219.99 224.926 233.84 224.926C247.69 224.926 258.92 237.313 258.92 252.584Z" fill="#161616"/>
<path d="M359.24 252.584C359.24 267.91 348.01 280.241 334.16 280.241C320.31 280.241 309.08 267.855 309.08 252.584C309.08 237.313 320.31 224.926 334.16 224.926C348.01 224.926 359.24 237.313 359.24 252.584Z" fill="#161616"/>
<path d="M332.767 304.569C338.145 307.648 340.068 314.545 336.069 319.269C327.545 329.262 316.18 336.423 303.486 339.798C290.791 343.173 277.371 342.603 265.009 338.162C259.185 336.058 257.345 329.133 260.467 323.797C263.56 318.488 270.415 316.83 276.42 318.377C283.408 320.18 290.743 320.153 297.718 318.298C304.693 316.443 311.072 312.824 316.242 307.788C320.645 303.482 327.388 301.504 332.781 304.569H332.767Z" fill="#161616"/>
</g>
<defs>
<filter id="filter0_d" x="49.9999" y="53" width="468" height="468" filterUnits="userSpaceOnUse" color-interpolation-filters="sRGB">
<feFlood flood-opacity="0" result="BackgroundImageFix"/>
<feColorMatrix in="SourceAlpha" type="matrix" values="0 0 0 0 0 0 0 0 0 0 0 0 0 0 0 0 0 0 127 0"/>
<feOffset dy="4"/>
<feGaussianBlur stdDeviation="12.5"/>
<feColorMatrix type="matrix" values="0 0 0 0 0 0 0 0 0 0 0 0 0 0 0 0 0 0 0.5 0"/>
<feBlend mode="normal" in2="BackgroundImageFix" result="effect1_dropShadow"/>
<feBlend mode="normal" in="SourceGraphic" in2="effect1_dropShadow" result="shape"/>
</filter>
</defs>
</svg>
