<svg width="1535" height="567" viewBox="0 0 1535 567" fill="none" xmlns="http://www.w3.org/2000/svg">
<rect x="263" y="162" width="1009" height="243" fill="#D81B60"/>
<path d="M489.359 237.629H511.166V306.486C511.166 313.719 513.744 319.878 518.9 324.963C523.985 330.119 530.144 332.697 537.377 332.697C544.61 332.697 550.769 330.119 555.854 324.963C561.01 319.878 563.588 313.719 563.588 306.486V237.629H585.395V353H563.588V346.877C556.212 351.818 547.475 354.361 537.377 354.504C524.2 354.504 512.885 349.813 503.432 340.432C494.05 330.979 489.359 319.663 489.359 306.486V237.629ZM655.756 354.504C646.16 354.432 637.458 352.141 629.652 347.629C620.199 342.043 613.682 333.127 610.102 320.881L631.049 314.865C633.054 321.669 636.456 326.431 641.254 329.152C645.479 331.444 650.349 332.626 655.863 332.697C656.508 332.697 657.224 332.661 658.012 332.59C658.871 332.518 659.766 332.411 660.697 332.268C662.917 331.91 664.923 331.301 666.713 330.441C671.439 328.221 674.053 324.39 674.555 318.947C674.698 316.512 673.946 314.328 672.299 312.395C669.219 308.742 663.92 306.701 656.4 306.271C639.285 305.126 626.931 300.757 619.34 293.166C616.26 290.087 614.04 286.542 612.68 282.531C611.677 279.452 611.176 276.193 611.176 272.756C611.176 261.441 615.616 252.31 624.496 245.363C632.302 239.276 641.791 236.232 652.963 236.232C666.14 236.232 677.133 240.923 685.941 250.305C690.167 254.602 693.783 260.402 696.791 267.707L676.488 275.334L673.91 270.393C672.836 268.531 671.583 266.812 670.15 265.236C665.424 260.438 659.623 258.039 652.748 258.039C651.387 258.111 650.242 258.218 649.311 258.361C646.947 258.648 644.691 259.221 642.543 260.08C636.169 262.587 632.982 266.812 632.982 272.756C632.982 276.265 635.453 279.058 640.395 281.135C644.691 282.854 650.528 283.964 657.904 284.465C665.424 284.966 672.012 286.685 677.67 289.621C682.11 291.841 685.834 294.706 688.842 298.215C694.499 304.732 696.97 312.215 696.254 320.666C695.395 331.623 690.74 340.181 682.289 346.34C674.913 351.783 666.104 354.504 655.863 354.504H655.756ZM716.664 217.863H738.471V237.414H757.807V259.221H738.471V314.436C738.471 319.09 740.082 323.029 743.305 326.252C746.527 329.546 751.361 331.193 757.807 331.193V353C745.417 353 735.427 349.24 727.836 341.721C720.388 334.13 716.664 325.035 716.664 314.436V217.863ZM830.854 258.039C820.541 258.039 811.768 261.691 804.535 268.996C797.159 276.229 793.471 285.002 793.471 295.314C793.471 305.627 797.159 314.436 804.535 321.74C811.768 329.045 820.541 332.697 830.854 332.697C841.166 332.697 849.939 329.045 857.172 321.74C864.477 314.436 868.129 305.627 868.129 295.314C868.129 285.002 864.477 276.229 857.172 268.996C849.939 261.691 841.166 258.039 830.854 258.039ZM830.854 354.504C814.525 354.504 800.561 348.739 788.959 337.209C777.429 325.607 771.664 311.643 771.664 295.314C771.664 279.058 777.429 265.129 788.959 253.527C800.561 241.997 814.525 236.232 830.854 236.232C847.11 236.232 861.039 241.997 872.641 253.527C884.171 265.129 889.936 279.058 889.936 295.314C889.936 311.643 884.171 325.607 872.641 337.209C861.039 348.739 847.11 354.504 830.854 354.504ZM1082.97 353H1061.17V284.25C1061.17 277.017 1058.59 270.858 1053.43 265.773C1048.42 260.617 1042.3 258.039 1035.06 258.039C1027.83 258.039 1021.67 260.617 1016.59 265.773C1011.5 270.786 1008.92 276.91 1008.85 284.143V353H987.045V284.25C987.045 277.017 984.503 270.858 979.418 265.773C974.333 260.617 968.174 258.039 960.941 258.039C953.708 258.039 947.549 260.617 942.465 265.773C937.38 270.858 934.838 277.017 934.838 284.25V353H913.031V237.629H934.838V243.859C942.214 238.846 950.915 236.304 960.941 236.232C968.891 236.232 976.374 238.094 983.393 241.818C988.692 244.54 993.562 248.479 998.002 253.635C1003.8 247.548 1008.64 243.609 1012.5 241.818C1019.59 238.094 1027.11 236.232 1035.06 236.232C1048.24 236.232 1059.55 240.923 1069.01 250.305C1078.32 259.686 1082.97 271.001 1082.97 284.25V353ZM1165.04 258.039C1154.73 258.039 1145.96 261.727 1138.72 269.104C1131.42 276.337 1127.77 285.109 1127.77 295.422C1127.77 305.734 1131.42 314.507 1138.72 321.74C1145.96 329.045 1154.73 332.697 1165.04 332.697C1175.36 332.697 1184.16 329.045 1191.47 321.74C1198.77 314.507 1202.43 305.734 1202.43 295.422C1202.43 285.109 1198.77 276.337 1191.47 269.104C1184.16 261.727 1175.36 258.039 1165.04 258.039ZM1165.04 354.504C1148.79 354.504 1134.86 348.739 1123.26 337.209C1111.73 325.607 1105.96 311.678 1105.96 295.422C1105.96 279.094 1111.73 265.129 1123.26 253.527C1134.86 241.997 1148.79 236.232 1165.04 236.232C1181.44 236.232 1193.9 240.493 1202.43 249.016V237.629H1224.23V353H1202.43V341.721C1193.9 350.243 1181.44 354.504 1165.04 354.504Z" fill="#161616"/>
<path d="M468 270.5C468 287.015 463.103 303.159 453.928 316.89C444.753 330.622 431.712 341.324 416.454 347.644C401.196 353.964 384.407 355.617 368.21 352.396C352.013 349.174 337.134 341.221 325.457 329.543C313.779 317.866 305.826 302.987 302.604 286.79C299.383 270.593 301.036 253.804 307.356 238.546C313.676 223.288 324.378 210.247 338.11 201.072C351.841 191.897 367.985 187 384.5 187L384.5 210.38C372.609 210.38 360.986 213.906 351.099 220.512C341.212 227.118 333.507 236.508 328.956 247.493C324.406 258.479 323.215 270.567 325.535 282.229C327.855 293.891 333.581 304.603 341.989 313.011C350.397 321.419 361.109 327.145 372.771 329.465C384.433 331.785 396.521 330.594 407.507 326.044C418.492 321.493 427.882 313.788 434.488 303.901C441.094 294.014 444.62 282.391 444.62 270.5H468Z" fill="#161616"/>
</svg>
