<svg width="745" height="1000" viewBox="0 0 745 1000" fill="none" xmlns="http://www.w3.org/2000/svg">
<path d="M366.677 0C387.217 0 406.917 8.15195 421.452 22.6656L721.442 322.225C736.004 336.766 744.186 356.501 744.186 377.079V976.744C744.186 989.588 733.774 1000 720.93 1000H23.2558C10.412 1000 0 989.588 0 976.744V744.186H511.628C524.472 744.186 534.884 733.774 534.884 720.93V457.364C534.884 444.521 524.472 434.109 511.628 434.109H0V23.2558C0 10.412 10.412 0 23.2558 0H366.677Z" fill="black"/>
<path d="M214.73 617.414L194.291 566.883L173.851 617.414H214.73ZM266.851 674.418H237.782L225.631 644.327H162.95L150.8 674.418H121.73L194.291 494.776L266.851 674.418Z" fill="black"/>
<path d="M377.68 593.455C375.787 589.594 372.078 585.506 366.552 581.191C359.966 576.422 352.622 574.037 344.522 574.037C336.346 574.037 329.003 576.422 322.493 581.191C317.118 585.582 313.446 589.669 311.478 593.455H377.68ZM344.522 547.579C362.161 547.579 377.264 553.862 389.83 566.429C402.397 578.995 408.68 594.098 408.68 611.737L408.453 619.913H307.617C308.601 626.12 312.387 632.669 318.973 639.557C326.164 646.219 334.681 649.55 344.522 649.55C351.563 649.55 358.149 647.62 364.281 643.759C370.11 640.277 375.257 634.183 379.724 625.477L404.138 636.037C397.325 649.664 388.846 659.656 378.702 666.015C368.331 672.677 356.937 676.008 344.522 676.008C326.884 676.008 311.781 669.725 299.214 657.158C286.572 644.592 280.251 629.451 280.251 611.737C280.251 594.098 286.572 578.995 299.214 566.429C311.781 553.862 326.884 547.579 344.522 547.579Z" fill="black"/>
</svg>
