<svg width="745" height="1000" viewBox="0 0 745 1000" fill="none" xmlns="http://www.w3.org/2000/svg">
<path d="M366.677 0C387.217 0 406.917 8.15195 421.452 22.6656L721.442 322.225C736.004 336.766 744.186 356.501 744.186 377.079V976.744C744.186 989.588 733.774 1000 720.93 1000H23.2558C10.412 1000 0 989.588 0 976.744V744.186H511.628C524.472 744.186 534.884 733.774 534.884 720.93V457.364C534.884 444.521 524.472 434.109 511.628 434.109H0V23.2558C0 10.412 10.412 0 23.2558 0H366.677Z" fill="black"/>
<path d="M241.294 502.498L139.891 647.392H228.576V674.418H87.9966L189.4 529.523H100.601V502.498H241.294Z" fill="black"/>
<path d="M259.917 674.418V502.498H286.943V674.418H259.917Z" fill="black"/>
<path d="M381.533 599.018C391.147 599.018 399.323 595.65 406.061 588.912C412.874 582.099 416.281 573.885 416.281 564.271C416.281 554.657 412.874 546.443 406.061 539.63C399.323 532.892 391.147 529.523 381.533 529.523H346.672V599.018H381.533ZM381.533 502.498C398.49 502.498 413.025 508.554 425.138 520.666C437.25 532.703 443.306 547.238 443.306 564.271C443.306 581.228 437.25 595.763 425.138 607.875C413.025 619.988 398.49 626.044 381.533 626.044H346.672V674.418H319.646V502.498H381.533Z" fill="black"/>
</svg>
