<svg width="745" height="1000" viewBox="0 0 745 1000" fill="none" xmlns="http://www.w3.org/2000/svg">
<path d="M366.677 0C387.217 0 406.917 8.15195 421.452 22.6656L721.442 322.225C736.004 336.766 744.186 356.501 744.186 377.079V976.744C744.186 989.588 733.774 1000 720.93 1000H23.2558C10.412 1000 0 989.588 0 976.744V744.186H511.628C524.472 744.186 534.884 733.774 534.884 720.93V457.364C534.884 444.521 524.472 434.109 511.628 434.109H0V23.2558C0 10.412 10.412 0 23.2558 0H366.677Z" fill="black"/>
<path d="M76.0962 614.629V587.376C82.8337 587.073 87.7922 585.748 90.9717 583.401C94.2269 581.055 96.6873 577.383 98.3527 572.387C100.094 567.39 100.964 558.949 100.964 547.064C100.964 532.075 101.646 521.855 103.008 516.405C104.371 510.878 106.529 506.488 109.481 503.232C112.509 499.901 116.9 497.176 122.653 495.056C128.482 492.937 136.847 491.877 147.749 491.877H153.767V519.13C145.667 519.13 140.368 519.584 137.869 520.493C135.371 521.325 133.517 522.726 132.305 524.694C131.17 526.662 130.602 530.296 130.602 535.595C130.602 545.134 130.148 555.77 129.239 567.504C128.634 575.15 126.552 582.001 122.994 588.057C120.344 592.523 115.764 596.876 109.254 601.116C114.78 604.295 119.171 608.345 122.426 613.266C125.681 618.111 127.839 624.281 128.899 631.775C129.353 635.03 129.883 645.629 130.488 663.57C130.716 670.156 131.132 674.244 131.738 675.834C132.722 678.181 134.539 679.96 137.188 681.171C139.913 682.382 145.44 682.988 153.767 682.988V710.127H147.749C136.772 710.127 128.634 709.219 123.335 707.402C118.035 705.661 113.72 703.049 110.389 699.567C107.059 696.16 104.636 691.807 103.122 686.508C101.684 681.285 100.964 672.238 100.964 659.369C100.964 644.985 100.17 635.295 98.5798 630.299C97.0658 625.227 94.6433 621.442 91.3124 618.944C88.0572 616.445 82.9851 615.007 76.0962 614.629Z" fill="black"/>
<path d="M207.137 631.662C210.771 635.295 212.588 639.686 212.588 644.834C212.588 649.906 210.771 654.259 207.137 657.893C203.579 661.602 199.226 663.457 194.079 663.457C188.931 663.457 184.578 661.602 181.02 657.893C177.386 654.259 175.569 649.906 175.569 644.834C175.569 639.686 177.386 635.295 181.02 631.662C184.654 628.028 189.007 626.211 194.079 626.211C199.151 626.211 203.504 628.028 207.137 631.662Z" fill="black"/>
<path d="M279.585 631.662C283.218 635.295 285.035 639.686 285.035 644.834C285.035 649.906 283.218 654.259 279.585 657.893C276.027 661.602 271.674 663.457 266.526 663.457C261.378 663.457 257.025 661.602 253.467 657.893C249.833 654.259 248.017 649.906 248.017 644.834C248.017 639.686 249.833 635.295 253.467 631.662C257.101 628.028 261.454 626.211 266.526 626.211C271.598 626.211 275.951 628.028 279.585 631.662Z" fill="black"/>
<path d="M352.032 631.662C355.666 635.295 357.482 639.686 357.482 644.834C357.482 649.906 355.666 654.259 352.032 657.893C348.474 661.602 344.121 663.457 338.973 663.457C333.825 663.457 329.473 661.602 325.915 657.893C322.281 654.259 320.464 649.906 320.464 644.834C320.464 639.686 322.281 635.295 325.915 631.662C329.548 628.028 333.901 626.211 338.973 626.211C344.045 626.211 348.398 628.028 352.032 631.662Z" fill="black"/>
<path d="M465.131 587.376V614.629C458.394 615.007 453.398 616.37 450.142 618.717C446.963 620.988 444.503 624.659 442.761 629.731C441.02 634.728 440.15 643.168 440.15 655.054C440.15 670.043 439.468 680.263 438.106 685.713C436.819 691.164 434.661 695.517 431.633 698.772C428.681 702.103 424.29 704.828 418.461 706.948C412.707 709.067 404.38 710.127 393.479 710.127H387.461V682.988C395.561 682.988 400.822 682.534 403.245 681.625C405.743 680.793 407.598 679.392 408.809 677.424C410.02 675.456 410.626 671.822 410.626 666.523C410.626 656.908 411.08 646.234 411.988 634.5C412.518 626.855 414.562 620.041 418.12 614.061C420.846 609.519 425.463 605.166 431.974 601.002C426.447 597.823 422.057 593.81 418.802 588.965C415.546 584.045 413.389 577.799 412.329 570.229C411.875 567.05 411.345 556.489 410.739 538.548C410.512 531.886 410.058 527.798 409.377 526.284C408.392 523.861 406.538 522.082 403.812 520.947C401.163 519.735 395.712 519.13 387.461 519.13V491.877H393.479C404.456 491.877 412.556 492.785 417.78 494.602C423.079 496.419 427.394 499.069 430.725 502.551C434.131 505.958 436.554 510.311 437.992 515.61C439.506 520.833 440.263 529.88 440.263 542.749C440.263 557.133 441.02 566.822 442.534 571.819C444.124 576.815 446.547 580.562 449.802 583.061C453.057 585.559 458.167 586.997 465.131 587.376Z" fill="black"/>
</svg>
