<svg width="745" height="1000" viewBox="0 0 745 1000" fill="none" xmlns="http://www.w3.org/2000/svg">
<path d="M366.677 0C387.217 0 406.917 8.15195 421.452 22.6656L721.442 322.225C736.004 336.766 744.186 356.501 744.186 377.079V976.744C744.186 989.588 733.774 1000 720.93 1000H23.2558C10.412 1000 0 989.588 0 976.744V744.186H511.628C524.472 744.186 534.884 733.774 534.884 720.93V457.364C534.884 444.521 524.472 434.109 511.628 434.109H0V23.2558C0 10.412 10.412 0 23.2558 0H366.677Z" fill="black"/>
<path d="M170.967 488.13H357.649L357.952 550.66H349.019C346.092 528.353 337.714 513.263 323.886 505.39C316.114 501.05 304.506 498.678 289.063 498.274V661.489C289.063 672.895 291.031 680.465 294.967 684.199C299.005 687.934 307.332 689.801 319.949 689.801V697.674H209.423V689.801C221.536 689.801 229.56 687.934 233.497 684.199C237.534 680.364 239.553 672.794 239.553 661.489V498.274C224.413 498.678 212.805 501.05 204.73 505.39C189.892 513.465 181.514 528.555 179.597 550.66H170.664L170.967 488.13Z" fill="black"/>
</svg>
