<svg width="745" height="1000" viewBox="0 0 745 1000" fill="none" xmlns="http://www.w3.org/2000/svg">
<path d="M366.677 0C387.217 0 406.917 8.15195 421.452 22.6656L721.442 322.225C736.004 336.766 744.186 356.501 744.186 377.079V976.744C744.186 989.588 733.774 1000 720.93 1000H23.2558C10.412 1000 0 989.588 0 976.744V744.186H511.628C524.472 744.186 534.884 733.774 534.884 720.93V457.364C534.884 444.521 524.472 434.109 511.628 434.109H0V23.2558C0 10.412 10.412 0 23.2558 0H366.677Z" fill="black"/>
<path d="M211.255 465.116H246.58L159.084 713.178H124.031L211.255 465.116Z" fill="black"/>
<path d="M299.045 661.364V630.759L391.16 594.248L299.045 557.468V526.863L418.605 576.798V611.43L299.045 661.364Z" fill="black"/>
</svg>
