<svg width="745" height="1000" viewBox="0 0 745 1000" fill="none" xmlns="http://www.w3.org/2000/svg">
<path d="M366.677 0C387.217 0 406.917 8.15195 421.452 22.6656L721.442 322.225C736.004 336.766 744.186 356.501 744.186 377.079V976.744C744.186 989.588 733.774 1000 720.93 1000H23.2558C10.412 1000 0 989.588 0 976.744V744.186H511.628C524.472 744.186 534.884 733.774 534.884 720.93V457.364C534.884 444.521 524.472 434.109 511.628 434.109H0V23.2558C0 10.412 10.412 0 23.2558 0H366.677Z" fill="black"/>
<path d="M261.242 617.414L240.802 566.883L220.363 617.414H261.242ZM313.363 674.418H284.293L272.143 644.327H209.461L197.311 674.418H168.241L240.802 494.776L313.363 674.418Z" fill="black"/>
<path d="M335.165 549.055H361.623V674.418H335.165V549.055ZM348.338 539.062C343.947 539.062 340.162 537.473 336.982 534.293C333.803 531.114 332.213 527.328 332.213 522.938C332.213 518.471 333.803 514.648 336.982 511.469C340.162 508.289 343.947 506.7 348.338 506.7C352.804 506.7 356.627 508.289 359.807 511.469C362.986 514.648 364.576 518.471 364.576 522.938C364.576 527.328 362.986 531.114 359.807 534.293C356.627 537.473 352.804 539.062 348.338 539.062Z" fill="black"/>
</svg>
