<svg width="745" height="1000" viewBox="0 0 745 1000" fill="none" xmlns="http://www.w3.org/2000/svg">
<path d="M366.677 0C387.217 0 406.917 8.15195 421.452 22.6656L721.442 322.225C736.004 336.766 744.186 356.501 744.186 377.079V976.744C744.186 989.588 733.774 1000 720.93 1000H23.2558C10.412 1000 0 989.588 0 976.744V744.186H511.628C524.472 744.186 534.884 733.774 534.884 720.93V457.364C534.884 444.521 524.472 434.109 511.628 434.109H0V23.2558C0 10.412 10.412 0 23.2558 0H366.677Z" fill="black"/>
<path d="M116.998 599.019C126.612 599.019 134.788 595.65 141.526 588.912C148.339 582.099 151.746 573.885 151.746 564.271C151.746 554.657 148.339 546.443 141.526 539.63C134.788 532.892 126.612 529.524 116.998 529.524H82.1372V599.019H116.998ZM116.998 502.498C133.956 502.498 148.491 508.554 160.603 520.666C172.715 532.703 178.772 547.238 178.772 564.271C178.772 581.228 172.715 595.763 160.603 607.876C148.491 619.988 133.956 626.044 116.998 626.044H82.1372V674.418H55.1115V502.498H116.998Z" fill="black"/>
<path d="M263.369 647.392C279.569 647.317 293.423 641.563 304.93 630.132C316.437 618.625 322.19 604.734 322.19 588.458C322.19 572.182 316.437 558.291 304.93 546.784C293.423 535.277 279.569 529.524 263.369 529.524H230.098V647.392H263.369ZM204.094 674.418V502.498H263.256C274.914 502.498 286.08 504.769 296.754 509.311C306.974 513.702 316.058 519.834 324.007 527.707C331.88 535.656 338.012 544.74 342.403 554.96C346.945 565.634 349.216 576.8 349.216 588.458C349.216 600.04 346.945 611.207 342.403 621.956C338.012 632.176 331.842 641.223 323.893 649.096C316.02 657.044 306.974 663.214 296.754 667.605C286.004 672.147 274.838 674.418 263.256 674.418H204.094Z" fill="black"/>
<path d="M402.132 529.524V574.718H465.949V601.744H402.132V674.418H375.106V502.498H481.279V529.524H402.132Z" fill="black"/>
</svg>
