<svg width="745" height="1000" viewBox="0 0 745 1000" fill="none" xmlns="http://www.w3.org/2000/svg">
<path d="M366.677 0C387.217 0 406.917 8.15195 421.452 22.6656L721.442 322.225C736.004 336.766 744.186 356.501 744.186 377.079V976.744C744.186 989.588 733.774 1000 720.93 1000H23.2558C10.412 1000 0 989.588 0 976.744V744.186H511.628C524.472 744.186 534.884 733.774 534.884 720.93V457.364C534.884 444.521 524.472 434.109 511.628 434.109H0V23.2558C0 10.412 10.412 0 23.2558 0H366.677Z" fill="black"/>
<path d="M217.774 599.018C227.388 599.018 235.564 595.65 242.301 588.912C249.114 582.099 252.521 573.885 252.521 564.271C252.521 554.657 249.114 546.443 242.301 539.63C235.564 532.892 227.388 529.523 217.774 529.523H182.913V599.018H217.774ZM217.774 502.498C234.731 502.498 249.266 508.554 261.378 520.666C273.491 532.703 279.547 547.238 279.547 564.271C279.547 581.228 273.491 595.763 261.378 607.875C249.266 619.988 234.731 626.044 217.774 626.044H182.913V674.418H155.887V502.498H217.774Z" fill="black"/>
<path d="M349.269 676.008C338.822 675.932 329.359 673.434 320.88 668.513C310.509 662.381 303.204 652.048 298.964 637.513L324.287 630.359C326.558 638.156 330.078 643.38 334.847 646.03C339.011 648.301 343.856 649.474 349.382 649.55C350.064 649.55 350.821 649.512 351.653 649.436C352.486 649.36 353.319 649.247 354.152 649.095C356.423 648.717 358.429 648.149 360.17 647.392C364.636 645.197 367.059 641.601 367.437 636.605C367.589 634.485 366.907 632.63 365.393 631.04C362.441 627.482 357.255 625.476 349.837 625.022C331.365 623.811 317.966 619.004 309.639 610.601C306.156 607.118 303.696 603.182 302.258 598.791C301.046 595.385 300.441 591.751 300.441 587.89C300.441 575.323 305.361 565.217 315.203 557.571C323.833 550.909 334.204 547.578 346.316 547.578C360.7 547.578 372.737 552.688 382.427 562.908C387.726 568.662 391.927 575.55 395.031 583.575L370.39 592.659L366.983 586.3C365.923 584.408 364.674 582.704 363.236 581.19C358.618 576.421 352.903 574.036 346.089 574.036C344.802 574.112 343.667 574.226 342.683 574.377C340.412 574.68 338.178 575.248 335.983 576.08C329.927 578.427 326.899 582.364 326.899 587.89C326.899 590.842 329.132 593.265 333.598 595.157C337.989 596.899 344.007 598.034 351.653 598.564C359.829 599.094 367.059 600.949 373.342 604.128C378.111 606.626 382.199 609.768 385.606 613.553C391.814 620.896 394.539 629.261 393.782 638.649C392.873 650.761 387.726 660.224 378.339 667.037C370.238 673.017 360.586 676.008 349.382 676.008H349.269Z" fill="black"/>
</svg>
