<svg width="745" height="1000" viewBox="0 0 745 1000" fill="none" xmlns="http://www.w3.org/2000/svg">
<path d="M366.677 0C387.217 0 406.917 8.15195 421.452 22.6656L721.442 322.225C736.004 336.766 744.186 356.501 744.186 377.079V976.744C744.186 989.588 733.774 1000 720.93 1000H23.2558C10.412 1000 0 989.588 0 976.744V744.186H511.628C524.472 744.186 534.884 733.774 534.884 720.93V457.364C534.884 444.521 524.472 434.109 511.628 434.109H0V23.2558C0 10.412 10.412 0 23.2558 0H366.677Z" fill="black"/>
<path d="M379.845 461.899C379.845 459.395 377.841 457.365 375.37 457.365H340.89C340.87 457.365 340.85 457.367 340.831 457.371L229.989 480.768C220.349 482.803 213.44 491.412 213.44 501.389V527.28C213.44 527.288 213.447 527.294 213.455 527.292C213.462 527.29 213.47 527.296 213.47 527.304V605.562C213.47 610.695 208.798 614.507 203.732 614.507C176.839 614.507 155.039 636.596 155.039 663.843C155.039 691.09 176.839 713.179 203.732 713.179C230.624 713.179 252.425 691.09 252.425 663.843C252.425 663.189 252.412 662.537 252.387 661.889C252.387 661.878 252.395 661.87 252.406 661.87C252.416 661.87 252.424 661.861 252.424 661.851V540.937C252.424 528.197 261.246 517.204 273.556 514.606L340.857 500.399C340.859 500.399 340.861 500.399 340.863 500.399C340.878 500.399 340.89 500.411 340.89 500.427V578.665C340.89 583.798 336.218 587.611 331.152 587.611C304.26 587.611 282.459 609.7 282.459 636.947C282.459 664.194 304.26 686.283 331.152 686.283C358.044 686.283 379.845 664.194 379.845 636.947C379.845 636.292 379.832 635.641 379.808 634.993C379.807 634.982 379.816 634.973 379.826 634.973C379.836 634.973 379.845 634.965 379.845 634.954V461.899Z" fill="black"/>
</svg>
