<svg width="745" height="1000" viewBox="0 0 745 1000" fill="none" xmlns="http://www.w3.org/2000/svg">
<path d="M366.677 0C387.217 0 406.917 8.15195 421.452 22.6656L721.442 322.225C736.004 336.766 744.186 356.501 744.186 377.079V976.744C744.186 989.588 733.774 1000 720.93 1000H23.2558C10.412 1000 0 989.588 0 976.744V744.186H511.628C524.472 744.186 534.884 733.774 534.884 720.93V457.364C534.884 444.521 524.472 434.109 511.628 434.109H0V23.2558C0 10.412 10.412 0 23.2558 0H366.677Z" fill="black"/>
<path d="M277.876 480.62H361.359V522.361H277.876V480.62Z" fill="black"/>
<path d="M277.876 539.057H361.359V580.799H277.876V539.057Z" fill="black"/>
<path d="M277.876 597.496H361.359V639.238H277.876V597.496Z" fill="black"/>
<path d="M378.057 539.057H461.539V580.799H378.057V539.057Z" fill="black"/>
<path d="M378.057 597.496H461.539V639.238H378.057V597.496Z" fill="black"/>
<path d="M277.876 655.934H361.359V697.675H277.876V655.934Z" fill="black"/>
<path d="M77.5193 480.62H161.002V522.361H77.5193V480.62Z" fill="black"/>
<path d="M77.5193 539.057H161.002V580.799H77.5193V539.057Z" fill="black"/>
<path d="M77.5193 597.496H161.002V639.238H77.5193V597.496Z" fill="black"/>
<path d="M77.5193 655.934H161.002V697.675H77.5193V655.934Z" fill="black"/>
<path d="M177.699 480.62H261.182V522.361H177.699V480.62Z" fill="black"/>
<path d="M177.699 539.057H261.182V580.799H177.699V539.057Z" fill="black"/>
<path d="M177.699 597.496H261.182V639.238H177.699V597.496Z" fill="black"/>
<path d="M177.699 655.934H261.182V697.675H177.699V655.934Z" fill="black"/>
<path d="M378.057 655.934H461.539V697.675H378.057V655.934Z" fill="black"/>
</svg>
