<svg width="108" height="108" viewBox="0 0 108 108" fill="none" xmlns="http://www.w3.org/2000/svg">
<g clip-path="url(#clip0)">
<path fill-rule="evenodd" clip-rule="evenodd" d="M98.8994 84.0008C104.833 75.1205 108 64.6802 108 54H89.1001C89.1 73.3851 73.3852 89.0999 54.0001 89.0999C34.6149 89.0999 18.9001 73.3851 18.9001 53.9999C18.9001 34.6147 34.6149 18.8999 54 18.8999V0C43.3198 0 32.8795 3.16704 23.9992 9.10064C15.119 15.0342 8.19766 23.4679 4.11053 33.3351C0.0233975 43.2023 -1.04598 54.0599 1.03762 64.5349C3.12122 75.0099 8.26422 84.6317 15.8163 92.1838C23.3683 99.7358 32.9902 104.879 43.4651 106.962C53.9401 109.046 64.7977 107.977 74.6649 103.89C84.5321 99.8024 92.9658 92.8811 98.8994 84.0008Z" fill="black"/>
<path d="M47.5201 47.5811C47.5201 51.5411 44.6185 54.7271 41.0401 54.7271C37.4617 54.7271 34.5601 51.5267 34.5601 47.5811C34.5601 43.6355 37.4617 40.4351 41.0401 40.4351C44.6185 40.4351 47.5201 43.6355 47.5201 47.5811Z" fill="black"/>
<path d="M73.44 47.5811C73.44 51.5411 70.5384 54.7271 66.96 54.7271C63.3816 54.7271 60.48 51.5267 60.48 47.5811C60.48 43.6355 63.3816 40.4351 66.96 40.4351C70.5384 40.4351 73.44 43.6355 73.44 47.5811Z" fill="black"/>
<path d="M66.6 61.0128C67.9896 61.8084 68.4864 63.5904 67.4532 64.8108C65.2508 67.3929 62.3143 69.243 59.0345 70.1151C55.7547 70.9871 52.2871 70.8397 49.0931 69.6924C47.5883 69.1488 47.1131 67.3596 47.9195 65.9808C48.7187 64.6092 50.4899 64.1808 52.0415 64.5804C53.8471 65.0462 55.7422 65.0392 57.5443 64.56C59.3464 64.0808 60.9947 63.1455 62.3304 61.8444C63.468 60.732 65.2104 60.2208 66.6036 61.0128H66.6Z" fill="black"/>
</g>
<defs>
<clipPath id="clip0">
<rect width="108" height="108" fill="white"/>
</clipPath>
</defs>
</svg>
