<svg width="108" height="108" viewBox="0 0 108 108" fill="none" xmlns="http://www.w3.org/2000/svg">
<path d="M94.4999 45.54H63.9899L76.3199 32.85C64.0349 20.7 44.1449 20.25 31.8599 32.4C19.5749 44.595 19.5749 64.26 31.8599 76.455C44.1449 88.65 64.0349 88.65 76.3199 76.455C82.4399 70.425 85.4999 63.36 85.4999 54.45H94.4999C94.4999 63.36 90.5399 74.925 82.6199 82.755C66.8249 98.415 41.1749 98.415 25.3799 82.755C9.6299 67.14 9.4949 41.76 25.2899 26.145C41.0849 10.53 66.4199 10.53 82.2149 26.145L94.4999 13.5V45.54ZM56.2499 36V55.125L71.9999 64.485L68.7599 69.93L49.4999 58.5V36H56.2499Z" fill="black"/>
</svg>
