<svg width="108" height="108" viewBox="0 0 108 108" fill="none" xmlns="http://www.w3.org/2000/svg">
<g clip-path="url(#clip0)">
<path d="M54.0485 0.178223C24.2259 0.178223 0.0488281 24.3553 0.0488281 54.1785C0.0488281 84.0031 24.2259 108.178 54.0485 108.178C83.8743 108.178 108.049 84.0031 108.049 54.1785C108.049 24.3572 83.8743 0.180802 54.0479 0.180802L54.0485 0.178223ZM78.8124 78.0622C77.8452 79.6485 75.7688 80.1515 74.1826 79.1778C61.504 71.4332 45.5433 69.6792 26.7466 73.9739C24.9353 74.3866 23.1297 73.2517 22.7171 71.4397C22.3024 69.6277 23.4328 67.8221 25.2486 67.4094C45.8186 62.7098 63.463 64.7333 77.6969 73.4322C79.2831 74.4059 79.7861 76.4759 78.8124 78.0622ZM85.4219 63.3585C84.2032 65.3395 81.611 65.9649 79.6313 64.7462C65.1163 55.8242 42.9904 53.2403 25.8219 58.4519C23.5953 59.1245 21.2436 57.8696 20.5678 55.6468C19.8972 53.4202 21.1527 51.073 23.3754 50.3959C42.9865 44.4453 67.3667 47.3277 84.0355 57.571C86.0151 58.7898 86.6406 61.3814 85.4219 63.3585ZM85.9893 48.0474C68.5855 37.7099 39.8714 36.7594 23.2548 41.8027C20.5865 42.612 17.7648 41.1057 16.9562 38.4373C16.1476 35.7677 17.6526 32.9478 20.3228 32.1366C39.3974 26.3459 71.1067 27.4647 91.1441 39.3601C93.5493 40.7845 94.336 43.8843 92.9109 46.2812C91.4923 48.6813 88.3842 49.4725 85.9919 48.0474H85.9893Z" fill="black"/>
</g>
<defs>
<clipPath id="clip0">
<rect width="108" height="108" fill="white"/>
</clipPath>
</defs>
</svg>
