<svg width="108" height="108" viewBox="0 0 108 108" fill="none" xmlns="http://www.w3.org/2000/svg">
<path d="M53.0337 28.384L44.8872 20.2375L61.7587 3.36603C62.8421 2.29159 64.3061 1.68872 65.8319 1.68872C67.3577 1.68872 68.8218 2.29159 69.9052 3.36603V3.36603C70.9796 4.44942 71.5825 5.91345 71.5825 7.43928C71.5825 8.96511 70.9796 10.4291 69.9052 11.5125L53.0337 28.384Z" fill="black"/>
<path d="M51.9008 29.4927L43.7543 21.3462C43.6055 21.1999 43.4873 21.0255 43.4067 20.8331C43.326 20.6407 43.2844 20.4341 43.2844 20.2254C43.2844 20.0168 43.326 19.8102 43.4067 19.6178C43.4873 19.4254 43.6055 19.251 43.7543 19.1047L60.6258 2.23323C61.304 1.5336 62.1145 0.975874 63.0103 0.592511C63.9061 0.209148 64.8692 0.00781149 65.8435 0.00022283C66.8178 -0.00736583 67.7839 0.178945 68.6856 0.548309C69.5872 0.917672 70.4064 1.46271 71.0953 2.15169C71.7843 2.84066 72.3294 3.65982 72.6987 4.56146C73.0681 5.46309 73.2544 6.4292 73.2468 7.40353C73.2392 8.37787 73.0379 9.34095 72.6545 10.2367C72.2712 11.1325 71.7134 11.9431 71.0138 12.6212L54.1423 29.4927C53.9961 29.6415 53.8216 29.7597 53.6292 29.8404C53.4368 29.9211 53.2302 29.9626 53.0216 29.9626C52.8129 29.9626 52.6064 29.9211 52.414 29.8404C52.2215 29.7597 52.0471 29.6415 51.9008 29.4927V29.4927ZM47.1286 20.2375L53.0336 26.1425L68.7723 10.4038C69.5554 9.62078 69.9953 8.55874 69.9953 7.45133C69.9953 6.34393 69.5554 5.28188 68.7723 4.49883C67.9892 3.71577 66.9272 3.27586 65.8198 3.27586C64.7124 3.27586 63.6503 3.71577 62.8673 4.49883L47.1286 20.2375Z" fill="black"/>
<path d="M75.1353 50.4856L66.9888 42.3391L83.8602 25.4676C84.9436 24.3931 86.4077 23.7903 87.9335 23.7903C89.4593 23.7903 90.9233 24.3931 92.0067 25.4676V25.4676C93.0812 26.551 93.684 28.015 93.684 29.5408C93.684 31.0667 93.0812 32.5307 92.0067 33.6141L75.1353 50.4856Z" fill="black"/>
<path d="M74.0024 51.5943L65.8559 43.4478C65.7071 43.3015 65.5889 43.1271 65.5082 42.9346C65.4275 42.7422 65.386 42.5357 65.386 42.327C65.386 42.1184 65.4275 41.9118 65.5082 41.7194C65.5889 41.5269 65.7071 41.3525 65.8559 41.2063L82.7274 24.3348C83.4055 23.6352 84.2161 23.0774 85.1119 22.6941C86.0076 22.3107 86.9707 22.1094 87.9451 22.1018C88.9194 22.0942 89.8855 22.2805 90.7871 22.6499C91.6888 23.0192 92.5079 23.5643 93.1969 24.2532C93.8859 24.9422 94.4309 25.7614 94.8003 26.663C95.1697 27.5647 95.356 28.5308 95.3484 29.5051C95.3408 30.4794 95.1394 31.4425 94.7561 32.3383C94.3727 33.2341 93.815 34.0446 93.1154 34.7228L76.2439 51.5943C76.0976 51.7431 75.9232 51.8613 75.7308 51.9419C75.5384 52.0226 75.3318 52.0642 75.1232 52.0642C74.9145 52.0642 74.7079 52.0226 74.5155 51.9419C74.3231 51.8613 74.1487 51.7431 74.0024 51.5943V51.5943ZM69.2302 42.3391L75.1352 48.2441L90.8739 32.5054C91.2616 32.1177 91.5692 31.6574 91.779 31.1508C91.9888 30.6442 92.0968 30.1012 92.0968 29.5529C92.0968 29.0046 91.9888 28.4616 91.779 27.955C91.5692 27.4484 91.2616 26.9881 90.8739 26.6004C90.4861 26.2127 90.0258 25.9051 89.5192 25.6953C89.0127 25.4854 88.4697 25.3774 87.9214 25.3774C87.373 25.3774 86.8301 25.4854 86.3235 25.6953C85.8169 25.9051 85.3566 26.2127 84.9689 26.6004L69.2302 42.3391Z" fill="black"/>
<path d="M40.2186 15.5727L34.407 21.3843L73.9632 60.9405L79.7748 55.1289L40.2186 15.5727Z" fill="black"/>
<path d="M72.7975 62.1029L33.2459 22.5514C33.0913 22.3985 32.9685 22.2165 32.8847 22.0158C32.801 21.8152 32.7578 21.5999 32.7578 21.3824C32.7578 21.165 32.801 20.9497 32.8847 20.749C32.9685 20.5484 33.0913 20.3663 33.2459 20.2135L39.0545 14.4049C39.2074 14.2502 39.3895 14.1275 39.5901 14.0437C39.7908 13.9599 40.006 13.9167 40.2235 13.9167C40.4409 13.9167 40.6562 13.9599 40.8569 14.0437C41.0575 14.1275 41.2396 14.2502 41.3924 14.4049L80.944 53.9564C81.0986 54.1093 81.2214 54.2913 81.3052 54.492C81.389 54.6926 81.4321 54.9079 81.4321 55.1254C81.4321 55.3428 81.389 55.5581 81.3052 55.7587C81.2214 55.9594 81.0986 56.1414 80.944 56.2943L75.1354 62.1029C74.9825 62.2576 74.8005 62.3803 74.5998 62.4641C74.3992 62.5479 74.1839 62.591 73.9664 62.591C73.749 62.591 73.5337 62.5479 73.333 62.4641C73.1324 62.3803 72.9503 62.2576 72.7975 62.1029V62.1029ZM36.7407 21.3945L73.9785 58.6322L77.4733 55.1374L40.2355 17.8997L36.7407 21.3945Z" fill="black"/>
<path d="M38.6205 79.119L16.2296 56.7281C14.5744 55.0674 13.645 52.8183 13.645 50.4736C13.645 48.1289 14.5744 45.8798 16.2296 44.2191L36.7405 23.7083L71.6403 58.6081L51.1295 79.119C50.31 79.9438 49.3356 80.5983 48.2622 81.045C47.1888 81.4916 46.0376 81.7216 44.875 81.7216C43.7123 81.7216 42.5612 81.4916 41.4878 81.045C40.4144 80.5983 39.4399 79.9438 38.6205 79.119Z" fill="black"/>
<path d="M37.4635 80.276L15.0727 57.8852C13.1052 55.9157 12 53.2456 12 50.4617C12 47.6779 13.1052 45.0078 15.0727 43.0383L35.5836 22.5274C35.7364 22.3728 35.9185 22.25 36.1191 22.1662C36.3198 22.0824 36.5351 22.0393 36.7525 22.0393C36.97 22.0393 37.1852 22.0824 37.3859 22.1662C37.5866 22.25 37.7686 22.3728 37.9215 22.5274L72.7972 57.4514C72.9518 57.6042 73.0746 57.7863 73.1584 57.9869C73.2422 58.1876 73.2853 58.4029 73.2853 58.6203C73.2853 58.8378 73.2422 59.053 73.1584 59.2537C73.0746 59.4543 72.9518 59.6364 72.7972 59.7893L52.3104 80.276C50.3409 82.2435 47.6709 83.3487 44.887 83.3487C42.1031 83.3487 39.433 82.2435 37.4635 80.276ZM36.7405 26.0463L17.4106 45.3762C16.7403 46.0451 16.2085 46.8397 15.8456 47.7144C15.4828 48.5891 15.296 49.5268 15.296 50.4738C15.296 51.4208 15.4828 52.3585 15.8456 53.2332C16.2085 54.1079 16.7403 54.9025 17.4106 55.5714L39.8014 77.9622C40.4704 78.6325 41.2649 79.1643 42.1396 79.5272C43.0143 79.89 43.952 80.0768 44.899 80.0768C45.846 80.0768 46.7837 79.89 47.6584 79.5272C48.5331 79.1643 49.3277 78.6325 49.9966 77.9622L69.3265 58.6324L36.7405 26.0463Z" fill="black"/>
<path d="M23.9465 64.4339L16.959 71.4214L23.9465 78.4089L30.934 71.4214L23.9465 64.4339Z" fill="black"/>
<path d="M22.7614 79.577L15.7718 72.5874C15.6172 72.4345 15.4944 72.2524 15.4106 72.0518C15.3268 71.8511 15.2837 71.6359 15.2837 71.4184C15.2837 71.201 15.3268 70.9857 15.4106 70.785C15.4944 70.5844 15.6172 70.4023 15.7718 70.2495L22.7614 63.2598C22.9143 63.1052 23.0963 62.9824 23.297 62.8987C23.4976 62.8149 23.7129 62.7717 23.9304 62.7717C24.1478 62.7717 24.3631 62.8149 24.5638 62.8987C24.7644 62.9824 24.9464 63.1052 25.0993 63.2598L32.0889 70.2495C32.2436 70.4023 32.3663 70.5844 32.4501 70.785C32.5339 70.9857 32.5771 71.201 32.5771 71.4184C32.5771 71.6359 32.5339 71.8511 32.4501 72.0518C32.3663 72.2524 32.2436 72.4345 32.0889 72.5874L25.0993 79.577C24.7851 79.8789 24.3662 80.0476 23.9304 80.0476C23.4946 80.0476 23.0757 79.8789 22.7614 79.577V79.577ZM19.2907 71.4305L23.9424 76.0822L28.5941 71.4305L23.9424 66.7788L19.2907 71.4305Z" fill="black"/>
<path d="M34.4027 107.487L19.2907 92.3751C16.8251 89.9067 15.4402 86.5606 15.4402 83.0717C15.4402 79.5829 16.8251 76.2367 19.2907 73.7683C19.6025 73.4672 20.0201 73.3007 20.4536 73.3045C20.887 73.3083 21.3016 73.4822 21.6081 73.7887C21.9147 74.0952 22.0885 74.5098 22.0924 74.9433C22.0962 75.3767 21.9296 75.7944 21.6286 76.1062C20.7116 77.0222 19.9842 78.1099 19.4879 79.3071C18.9917 80.5044 18.7362 81.7877 18.7362 83.0838C18.7362 84.3798 18.9917 85.6631 19.4879 86.8604C19.9842 88.0577 20.7116 89.1454 21.6286 90.0613L36.7647 105.197C36.9193 105.35 37.0421 105.532 37.1259 105.733C37.2096 105.934 37.2528 106.149 37.2528 106.366C37.2528 106.584 37.2096 106.799 37.1259 107C37.0421 107.2 36.9193 107.382 36.7647 107.535C36.4448 107.842 36.0165 108.009 35.5737 108C35.1309 107.991 34.7098 107.806 34.4027 107.487V107.487Z" fill="black"/>
</svg>
