<svg width="108" height="108" viewBox="0 0 108 108" fill="none" xmlns="http://www.w3.org/2000/svg">
<path d="M57.915 67.815L46.485 56.52L46.62 56.385C54.45 47.655 60.03 37.62 63.315 27H76.5V18H45V9H36V18H4.5V26.955H54.765C51.75 35.64 46.98 43.875 40.5 51.075C36.315 46.44 32.85 41.355 30.105 36H21.105C24.39 43.335 28.89 50.265 34.515 56.52L11.61 79.11L18 85.5L40.5 63L54.495 76.995L57.915 67.815ZM83.25 45H74.25L54 99H63L68.04 85.5H89.415L94.5 99H103.5L83.25 45ZM71.46 76.5L78.75 57.015L86.04 76.5H71.46V76.5Z" fill="black"/>
</svg>
