<svg width="108" height="108" viewBox="0 0 108 108" fill="none" xmlns="http://www.w3.org/2000/svg">
<path d="M92.25 49.5H85.5V31.5C85.5 26.55 81.45 22.5 76.5 22.5H58.5V15.75C58.5 9.54 53.46 4.5 47.25 4.5C41.04 4.5 36 9.54 36 15.75V22.5H18C13.05 22.5 9.045 26.55 9.045 31.5V48.6H15.75C22.455 48.6 27.9 54.045 27.9 60.75C27.9 67.455 22.455 72.9 15.75 72.9H9V90C9 94.95 13.05 99 18 99H35.1V92.25C35.1 85.545 40.545 80.1 47.25 80.1C53.955 80.1 59.4 85.545 59.4 92.25V99H76.5C81.45 99 85.5 94.95 85.5 90V72H92.25C98.46 72 103.5 66.96 103.5 60.75C103.5 54.54 98.46 49.5 92.25 49.5Z" fill="black"/>
</svg>
