<svg width="1000" height="1000" viewBox="0 0 1000 1000" fill="none" xmlns="http://www.w3.org/2000/svg">
<g clip-path="url(#clip0_135_431)">
<path fill-rule="evenodd" clip-rule="evenodd" d="M915.734 777.785C970.675 695.561 1000 598.891 1000 500H825C825 679.492 679.492 824.999 500 824.999C320.508 824.999 175 679.492 175 499.999C175 320.507 320.507 174.999 500 174.999V0C401.109 0 304.439 29.3245 222.215 84.2652C139.99 139.206 75.9037 217.295 38.0599 308.658C0.216094 400.021 -9.68557 500.555 9.60704 597.545C28.8996 694.536 76.52 783.627 146.446 853.553C216.373 923.48 305.464 971.1 402.455 990.393C499.445 1009.69 599.978 999.784 691.341 961.94C782.704 924.096 860.794 860.01 915.734 777.785Z" fill="black"/>
<path d="M440 440.566C440 477.233 413.133 506.733 380 506.733C346.867 506.733 320 477.1 320 440.566C320 404.033 346.867 374.4 380 374.4C413.133 374.4 440 404.033 440 440.566Z" fill="black"/>
<path d="M680 440.566C680 477.233 653.133 506.733 620 506.733C586.867 506.733 560 477.1 560 440.566C560 404.033 586.867 374.4 620 374.4C653.133 374.4 680 404.033 680 440.566Z" fill="black"/>
<path d="M616.667 564.933C629.534 572.299 634.134 588.799 624.567 600.099C604.175 624.008 576.985 641.139 546.617 649.214C516.248 657.288 484.14 655.923 454.567 645.3C440.634 640.266 436.234 623.7 443.7 610.933C451.1 598.233 467.5 594.266 481.867 597.966C498.585 602.28 516.133 602.214 532.818 597.777C549.504 593.34 564.766 584.681 577.134 572.633C587.667 562.333 603.8 557.599 616.7 564.933H616.667Z" fill="black"/>
</g>
<defs>
<clipPath id="clip0_135_431">
<rect width="1000" height="1000" fill="white"/>
</clipPath>
</defs>
</svg>
