<svg width="1000" height="1000" viewBox="0 0 1000 1000" fill="none" xmlns="http://www.w3.org/2000/svg">
<path d="M854.167 458.333H791.667V291.667C791.667 245.833 754.167 208.333 708.333 208.333H541.667V145.833C541.667 88.3334 495 41.6667 437.5 41.6667C380 41.6667 333.333 88.3334 333.333 145.833V208.333H166.667C120.833 208.333 83.75 245.833 83.75 291.667V450H145.833C207.917 450 258.333 500.417 258.333 562.5C258.333 624.583 207.917 675 145.833 675H83.3334V833.333C83.3334 879.167 120.833 916.667 166.667 916.667H325V854.167C325 792.083 375.417 741.667 437.5 741.667C499.583 741.667 550 792.083 550 854.167V916.667H708.333C754.167 916.667 791.667 879.167 791.667 833.333V666.667H854.167C911.667 666.667 958.333 620 958.333 562.5C958.333 505 911.667 458.333 854.167 458.333Z" fill="black"/>
</svg>
