<svg width="1000" height="1000" viewBox="0 0 1000 1000" fill="none" xmlns="http://www.w3.org/2000/svg">
<path d="M491.052 262.814L415.621 187.383L571.838 31.1662C581.87 21.2177 595.426 15.6356 609.554 15.6356C623.682 15.6356 637.238 21.2177 647.269 31.1662V31.1662C657.218 41.1976 662.8 54.7535 662.8 68.8815C662.8 83.0096 657.218 96.5654 647.269 106.597L491.052 262.814Z" fill="black"/>
<path d="M480.562 273.081L405.132 197.65C403.754 196.296 402.66 194.681 401.913 192.899C401.166 191.117 400.781 189.205 400.781 187.273C400.781 185.341 401.166 183.428 401.913 181.646C402.66 179.865 403.754 178.25 405.132 176.895L561.349 20.6781C567.628 14.2 575.134 9.03587 583.428 5.48621C591.722 1.93656 600.639 0.0723287 609.661 0.00206324C618.683 -0.0682022 627.628 1.6569 635.977 5.07693C644.325 8.49697 651.91 13.5436 658.289 19.923C664.669 26.3024 669.715 33.8872 673.135 42.2357C676.555 50.5842 678.28 59.5296 678.21 68.5512C678.14 77.5728 676.276 86.4903 672.726 94.7845C669.176 103.079 664.012 110.584 657.534 116.863L501.317 273.081C499.963 274.458 498.348 275.553 496.566 276.3C494.784 277.047 492.872 277.432 490.94 277.432C489.008 277.432 487.095 277.047 485.313 276.3C483.532 275.553 481.917 274.458 480.562 273.081V273.081ZM436.375 187.384L491.051 242.06L636.78 96.3318C644.03 89.0813 648.103 79.2476 648.103 68.9938C648.103 58.7401 644.03 48.9063 636.78 41.6558C629.529 34.4053 619.695 30.332 609.442 30.332C599.188 30.332 589.354 34.4053 582.104 41.6558L436.375 187.384Z" fill="black"/>
<path d="M695.697 467.459L620.266 392.029L776.484 235.811C786.515 225.863 800.071 220.281 814.199 220.281C828.327 220.281 841.883 225.863 851.914 235.811V235.811C861.863 245.843 867.445 259.399 867.445 273.527C867.445 287.655 861.863 301.211 851.914 311.242L695.697 467.459Z" fill="black"/>
<path d="M685.208 477.726L609.777 402.295C608.399 400.941 607.305 399.326 606.558 397.544C605.811 395.762 605.426 393.85 605.426 391.918C605.426 389.986 605.811 388.073 606.558 386.292C607.305 384.51 608.399 382.895 609.777 381.54L765.994 225.323C772.273 218.845 779.779 213.681 788.073 210.131C796.367 206.582 805.285 204.717 814.306 204.647C823.328 204.577 832.273 206.302 840.622 209.722C848.97 213.142 856.555 218.189 862.934 224.568C869.314 230.948 874.36 238.532 877.78 246.881C881.201 255.229 882.926 264.175 882.855 273.196C882.785 282.218 880.921 291.135 877.371 299.43C873.822 307.724 868.657 315.229 862.179 321.508L705.962 477.726C704.608 479.104 702.993 480.198 701.211 480.945C699.429 481.692 697.517 482.077 695.585 482.077C693.653 482.077 691.74 481.692 689.959 480.945C688.177 480.198 686.562 479.104 685.208 477.726V477.726ZM641.02 392.029L695.696 446.705L841.425 300.977C845.015 297.387 847.863 293.125 849.806 288.434C851.749 283.744 852.749 278.716 852.749 273.639C852.749 268.562 851.749 263.534 849.806 258.844C847.863 254.153 845.015 249.891 841.425 246.301C837.835 242.711 833.573 239.863 828.882 237.92C824.191 235.977 819.164 234.977 814.087 234.977C809.01 234.977 803.982 235.977 799.292 237.92C794.601 239.863 790.339 242.711 786.749 246.301L641.02 392.029Z" fill="black"/>
<path d="M372.393 144.191L318.582 198.002L684.843 564.263L738.654 510.452L372.393 144.191Z" fill="black"/>
<path d="M674.05 575.028L307.832 208.81C306.4 207.394 305.263 205.708 304.488 203.851C303.712 201.993 303.312 199.999 303.312 197.986C303.312 195.973 303.712 193.979 304.488 192.121C305.263 190.263 306.4 188.578 307.832 187.162L361.615 133.379C363.031 131.947 364.716 130.81 366.574 130.035C368.432 129.259 370.426 128.859 372.439 128.859C374.452 128.859 376.446 129.259 378.304 130.035C380.162 130.81 381.847 131.947 383.263 133.379L749.481 499.597C750.912 501.012 752.049 502.698 752.825 504.556C753.601 506.414 754 508.407 754 510.421C754 512.434 753.601 514.427 752.825 516.285C752.049 518.143 750.912 519.829 749.481 521.244L695.697 575.028C694.282 576.459 692.596 577.596 690.738 578.372C688.88 579.148 686.887 579.547 684.874 579.547C682.86 579.547 680.867 579.148 679.009 578.372C677.151 577.596 675.466 576.459 674.05 575.028V575.028ZM340.191 198.097L684.985 542.891L717.344 510.532L372.551 165.738L340.191 198.097Z" fill="black"/>
<path d="M357.597 732.584L150.274 525.261C134.948 509.884 126.342 489.06 126.342 467.349C126.342 445.639 134.948 424.814 150.274 409.437L340.189 219.522L663.336 542.668L473.421 732.584C465.833 740.221 456.81 746.282 446.871 750.417C436.932 754.553 426.274 756.682 415.509 756.682C404.743 756.682 394.085 754.553 384.146 750.417C374.207 746.282 365.184 740.221 357.597 732.584Z" fill="black"/>
<path d="M346.884 743.296L139.562 535.973C121.344 517.737 111.111 493.014 111.111 467.238C111.111 441.461 121.344 416.738 139.562 398.502L329.477 208.587C330.893 207.155 332.578 206.018 334.436 205.242C336.294 204.466 338.288 204.067 340.301 204.067C342.314 204.067 344.308 204.466 346.166 205.242C348.024 206.018 349.709 207.155 351.125 208.587L674.048 531.956C675.48 533.372 676.617 535.057 677.392 536.915C678.168 538.773 678.568 540.766 678.568 542.78C678.568 544.793 678.168 546.787 677.392 548.645C676.617 550.502 675.48 552.188 674.048 553.603L484.356 743.296C466.119 761.514 441.397 771.747 415.62 771.747C389.843 771.747 365.121 761.514 346.884 743.296ZM340.189 241.169L161.209 420.149C155.002 426.343 150.078 433.7 146.719 441.799C143.359 449.899 141.63 458.581 141.63 467.349C141.63 476.118 143.359 484.8 146.719 492.899C150.078 500.998 155.002 508.355 161.209 514.549L368.532 721.872C374.726 728.078 382.083 733.002 390.182 736.362C398.281 739.722 406.963 741.451 415.732 741.451C424.5 741.451 433.182 739.722 441.281 736.362C449.381 733.002 456.738 728.078 462.932 721.872L641.912 542.891L340.189 241.169Z" fill="black"/>
<path d="M221.728 596.61L157.029 661.31L221.728 726.009L286.427 661.31L221.728 596.61Z" fill="black"/>
<path d="M210.753 736.823L146.035 672.104C144.603 670.689 143.466 669.003 142.69 667.145C141.914 665.287 141.515 663.294 141.515 661.281C141.515 659.267 141.914 657.274 142.69 655.416C143.466 653.558 144.603 651.872 146.035 650.457L210.753 585.738C212.169 584.307 213.854 583.17 215.712 582.394C217.57 581.618 219.563 581.219 221.577 581.219C223.59 581.219 225.584 581.618 227.441 582.394C229.299 583.17 230.985 584.307 232.4 585.738L297.119 650.457C298.551 651.872 299.688 653.558 300.463 655.416C301.239 657.274 301.639 659.267 301.639 661.281C301.639 663.294 301.239 665.287 300.463 667.145C299.688 669.003 298.551 670.689 297.119 672.104L232.4 736.823C229.491 739.619 225.612 741.18 221.577 741.18C217.542 741.18 213.663 739.619 210.753 736.823V736.823ZM178.617 661.392L221.688 704.463L264.76 661.392L221.688 618.321L178.617 661.392Z" fill="black"/>
<path d="M318.544 995.252L178.618 855.326C155.788 832.471 142.965 801.488 142.965 769.183C142.965 736.879 155.788 705.896 178.618 683.041C181.505 680.253 185.372 678.711 189.385 678.746C193.399 678.782 197.238 680.392 200.076 683.23C202.914 686.068 204.524 689.907 204.559 693.92C204.595 697.934 203.052 701.8 200.265 704.688C191.775 713.169 185.04 723.24 180.444 734.326C175.849 745.412 173.484 757.295 173.484 769.295C173.484 781.295 175.849 793.178 180.444 804.264C185.04 815.35 191.775 825.421 200.265 833.902L340.414 974.051C341.846 975.467 342.982 977.152 343.758 979.01C344.534 980.868 344.934 982.862 344.934 984.875C344.934 986.888 344.534 988.882 343.758 990.74C342.982 992.598 341.846 994.283 340.414 995.699C337.452 998.535 333.486 1000.08 329.386 999.997C325.287 999.913 321.387 998.207 318.544 995.252V995.252Z" fill="black"/>
</svg>
