<svg width="1000" height="1000" viewBox="0 0 1000 1000" fill="none" xmlns="http://www.w3.org/2000/svg">
<g clip-path="url(#clip0_135_440)">
<path d="M500.448 1.64941C224.313 1.64941 0.451172 225.511 0.451172 501.652C0.451172 777.806 224.313 1001.65 500.448 1001.65C776.613 1001.65 1000.45 777.806 1000.45 501.652C1000.45 225.529 776.613 1.6733 500.442 1.6733L500.448 1.64941ZM729.744 722.797C720.788 737.485 701.562 742.142 686.875 733.127C569.481 661.418 421.696 645.177 247.653 684.943C230.881 688.764 214.163 678.255 210.342 661.478C206.503 644.7 216.97 627.982 233.783 624.16C424.245 580.645 587.619 599.382 719.415 679.927C734.102 688.943 738.759 708.109 729.744 722.797ZM790.942 586.652C779.658 604.994 755.656 610.786 737.326 599.501C602.928 516.89 398.058 492.965 239.091 541.221C218.474 547.448 196.699 535.829 190.442 515.248C184.233 494.631 195.857 472.897 216.438 466.628C398.022 411.53 623.765 438.219 778.106 533.064C796.435 544.349 802.227 568.346 790.942 586.652ZM796.197 444.882C635.05 349.165 369.178 340.364 215.322 387.062C190.615 394.555 164.488 380.607 157.001 355.9C149.514 331.181 163.449 305.071 188.173 297.56C364.79 243.943 658.395 254.302 843.926 364.444C866.196 377.634 873.48 406.335 860.285 428.529C847.15 450.752 818.371 458.078 796.221 444.882H796.197Z" fill="black"/>
</g>
<defs>
<clipPath id="clip0_135_440">
<rect width="1000" height="1000" fill="white"/>
</clipPath>
</defs>
</svg>
