<svg width="1000" height="1000" viewBox="0 0 1000 1000" fill="none" xmlns="http://www.w3.org/2000/svg">
<path d="M875 421.667H592.5L706.667 304.167C592.917 191.667 408.75 187.5 295 300C181.25 412.917 181.25 595 295 707.917C408.75 820.833 592.917 820.833 706.667 707.917C763.333 652.083 791.667 586.667 791.667 504.167H875C875 586.667 838.333 693.75 765 766.25C618.75 911.25 381.25 911.25 235 766.25C89.1668 621.667 87.9168 386.667 234.167 242.083C380.417 97.5 615 97.5 761.25 242.083L875 125V421.667ZM520.833 333.333V510.417L666.667 597.083L636.667 647.5L458.333 541.667V333.333H520.833Z" fill="black"/>
</svg>
