<svg width="1535" height="567" viewBox="0 0 1535 567" fill="none" xmlns="http://www.w3.org/2000/svg">
<rect x="384" y="91" width="1009" height="243" fill="#212121"/>
<path d="M610.359 166.629H632.166V235.486C632.166 242.719 634.744 248.878 639.9 253.963C644.985 259.119 651.144 261.697 658.377 261.697C665.61 261.697 671.769 259.119 676.854 253.963C682.01 248.878 684.588 242.719 684.588 235.486V166.629H706.395V282H684.588V275.877C677.212 280.818 668.475 283.361 658.377 283.504C645.2 283.504 633.885 278.813 624.432 269.432C615.05 259.979 610.359 248.663 610.359 235.486V166.629ZM776.756 283.504C767.16 283.432 758.458 281.141 750.652 276.629C741.199 271.043 734.682 262.127 731.102 249.881L752.049 243.865C754.054 250.669 757.456 255.431 762.254 258.152C766.479 260.444 771.349 261.626 776.863 261.697C777.508 261.697 778.224 261.661 779.012 261.59C779.871 261.518 780.766 261.411 781.697 261.268C783.917 260.91 785.923 260.301 787.713 259.441C792.439 257.221 795.053 253.39 795.555 247.947C795.698 245.512 794.946 243.328 793.299 241.395C790.219 237.742 784.92 235.701 777.4 235.271C760.285 234.126 747.931 229.757 740.34 222.166C737.26 219.087 735.04 215.542 733.68 211.531C732.677 208.452 732.176 205.193 732.176 201.756C732.176 190.441 736.616 181.31 745.496 174.363C753.302 168.276 762.791 165.232 773.963 165.232C787.14 165.232 798.133 169.923 806.941 179.305C811.167 183.602 814.783 189.402 817.791 196.707L797.488 204.334L794.91 199.393C793.836 197.531 792.583 195.812 791.15 194.236C786.424 189.438 780.623 187.039 773.748 187.039C772.387 187.111 771.242 187.218 770.311 187.361C767.947 187.648 765.691 188.221 763.543 189.08C757.169 191.587 753.982 195.812 753.982 201.756C753.982 205.265 756.453 208.058 761.395 210.135C765.691 211.854 771.528 212.964 778.904 213.465C786.424 213.966 793.012 215.685 798.67 218.621C803.11 220.841 806.834 223.706 809.842 227.215C815.499 233.732 817.97 241.215 817.254 249.666C816.395 260.623 811.74 269.181 803.289 275.34C795.913 280.783 787.104 283.504 776.863 283.504H776.756ZM837.664 146.863H859.471V166.414H878.807V188.221H859.471V243.436C859.471 248.09 861.082 252.029 864.305 255.252C867.527 258.546 872.361 260.193 878.807 260.193V282C866.417 282 856.427 278.24 848.836 270.721C841.388 263.13 837.664 254.035 837.664 243.436V146.863ZM951.854 187.039C941.541 187.039 932.768 190.691 925.535 197.996C918.159 205.229 914.471 214.002 914.471 224.314C914.471 234.627 918.159 243.436 925.535 250.74C932.768 258.045 941.541 261.697 951.854 261.697C962.166 261.697 970.939 258.045 978.172 250.74C985.477 243.436 989.129 234.627 989.129 224.314C989.129 214.002 985.477 205.229 978.172 197.996C970.939 190.691 962.166 187.039 951.854 187.039ZM951.854 283.504C935.525 283.504 921.561 277.739 909.959 266.209C898.429 254.607 892.664 240.643 892.664 224.314C892.664 208.058 898.429 194.129 909.959 182.527C921.561 170.997 935.525 165.232 951.854 165.232C968.11 165.232 982.039 170.997 993.641 182.527C1005.17 194.129 1010.94 208.058 1010.94 224.314C1010.94 240.643 1005.17 254.607 993.641 266.209C982.039 277.739 968.11 283.504 951.854 283.504ZM1203.97 282H1182.17V213.25C1182.17 206.017 1179.59 199.858 1174.43 194.773C1169.42 189.617 1163.3 187.039 1156.06 187.039C1148.83 187.039 1142.67 189.617 1137.59 194.773C1132.5 199.786 1129.92 205.91 1129.85 213.143V282H1108.04V213.25C1108.04 206.017 1105.5 199.858 1100.42 194.773C1095.33 189.617 1089.17 187.039 1081.94 187.039C1074.71 187.039 1068.55 189.617 1063.46 194.773C1058.38 199.858 1055.84 206.017 1055.84 213.25V282H1034.03V166.629H1055.84V172.859C1063.21 167.846 1071.92 165.304 1081.94 165.232C1089.89 165.232 1097.37 167.094 1104.39 170.818C1109.69 173.54 1114.56 177.479 1119 182.635C1124.8 176.548 1129.64 172.609 1133.5 170.818C1140.59 167.094 1148.11 165.232 1156.06 165.232C1169.24 165.232 1180.55 169.923 1190.01 179.305C1199.32 188.686 1203.97 200.001 1203.97 213.25V282ZM1286.04 187.039C1275.73 187.039 1266.96 190.727 1259.72 198.104C1252.42 205.337 1248.77 214.109 1248.77 224.422C1248.77 234.734 1252.42 243.507 1259.72 250.74C1266.96 258.045 1275.73 261.697 1286.04 261.697C1296.36 261.697 1305.16 258.045 1312.47 250.74C1319.77 243.507 1323.43 234.734 1323.43 224.422C1323.43 214.109 1319.77 205.337 1312.47 198.104C1305.16 190.727 1296.36 187.039 1286.04 187.039ZM1286.04 283.504C1269.79 283.504 1255.86 277.739 1244.26 266.209C1232.73 254.607 1226.96 240.678 1226.96 224.422C1226.96 208.094 1232.73 194.129 1244.26 182.527C1255.86 170.997 1269.79 165.232 1286.04 165.232C1302.44 165.232 1314.9 169.493 1323.43 178.016V166.629H1345.23V282H1323.43V270.721C1314.9 279.243 1302.44 283.504 1286.04 283.504Z" fill="white"/>
<path d="M589 198.5C589 215.015 584.103 231.159 574.928 244.89C565.753 258.622 552.712 269.324 537.454 275.644C522.196 281.964 505.407 283.617 489.21 280.396C473.013 277.174 458.134 269.221 446.457 257.543C434.779 245.866 426.826 230.987 423.604 214.79C420.383 198.593 422.036 181.804 428.356 166.546C434.676 151.288 445.378 138.247 459.11 129.072C472.841 119.897 488.985 115 505.5 115L505.5 138.38C493.609 138.38 481.986 141.906 472.099 148.512C462.212 155.118 454.507 164.508 449.956 175.493C445.406 186.479 444.215 198.567 446.535 210.229C448.855 221.891 454.581 232.603 462.989 241.011C471.397 249.419 482.109 255.145 493.771 257.465C505.433 259.785 517.521 258.594 528.507 254.044C539.492 249.493 548.882 241.788 555.488 231.901C562.094 222.014 565.62 210.391 565.62 198.5H589Z" fill="white"/>
<rect x="141" y="91" width="243" height="243" fill="#D81B60"/>
<path d="M347 212C347 228.811 342.015 245.245 332.675 259.223C323.335 273.202 310.06 284.096 294.528 290.53C278.996 296.963 261.906 298.646 245.417 295.367C228.929 292.087 213.783 283.992 201.896 272.104C190.008 260.217 181.913 245.071 178.633 228.583C175.354 212.094 177.037 195.004 183.47 179.472C189.904 163.94 200.798 150.665 214.777 141.325C228.755 131.985 245.189 127 262 127L262 156.75C251.073 156.75 240.391 159.99 231.305 166.061C222.219 172.132 215.137 180.761 210.956 190.857C206.774 200.952 205.68 212.061 207.812 222.779C209.943 233.496 215.206 243.341 222.932 251.068C230.659 258.794 240.504 264.057 251.221 266.188C261.939 268.32 273.048 267.226 283.143 263.044C293.239 258.863 301.868 251.781 307.939 242.695C314.01 233.609 317.25 222.927 317.25 212H347Z" fill="#161616"/>
<path d="M262 267.25C292.514 267.25 317.25 242.514 317.25 212C317.25 181.486 292.514 156.75 262 156.75C231.486 156.75 206.75 181.486 206.75 212C206.75 242.514 231.486 267.25 262 267.25Z" fill="#D81B60"/>
<path d="M251.8 199.63C251.8 205.863 247.233 210.878 241.6 210.878C235.967 210.878 231.4 205.84 231.4 199.63C231.4 193.419 235.967 188.381 241.6 188.381C247.233 188.381 251.8 193.419 251.8 199.63Z" fill="#161616"/>
<path d="M292.6 199.63C292.6 205.863 288.032 210.878 282.4 210.878C276.767 210.878 272.2 205.84 272.2 199.63C272.2 193.419 276.767 188.381 282.4 188.381C288.032 188.381 292.6 193.419 292.6 199.63Z" fill="#161616"/>
<path d="M281.833 220.772C284.021 222.024 284.803 224.829 283.176 226.75C279.709 230.815 275.087 233.727 269.925 235.1C264.762 236.473 259.304 236.24 254.276 234.434C251.908 233.579 251.16 230.762 252.429 228.592C253.687 226.433 256.475 225.759 258.917 226.388C261.759 227.121 264.742 227.11 267.579 226.356C270.416 225.601 273.01 224.129 275.113 222.081C276.903 220.33 279.646 219.525 281.839 220.772H281.833Z" fill="#161616"/>
<rect x="384" y="334" width="387" height="147" fill="#161616"/>
<path d="M453.838 440.318C447.848 440.318 442.412 438.902 437.529 436.07C431.605 432.62 427.568 427.249 425.42 419.957L435.088 417.125C436.488 421.943 439.059 425.41 442.803 427.525C446.025 429.348 449.72 430.26 453.887 430.26C454.538 430.26 455.091 430.243 455.547 430.211C456.003 430.178 456.556 430.097 457.207 429.967C459.03 429.706 460.674 429.234 462.139 428.551C466.24 426.663 468.47 423.44 468.828 418.883C468.991 416.572 468.307 414.521 466.777 412.73C464.271 409.801 460.153 408.157 454.424 407.799C444.007 407.083 436.406 404.609 431.621 400.377C427.91 397.024 426.055 392.743 426.055 387.535C426.055 380.602 428.805 375.035 434.307 370.836C439.157 367.092 445.049 365.221 451.982 365.221C460.186 365.221 467.038 368.134 472.539 373.961C474.264 375.816 475.778 377.867 477.08 380.113C477.699 381.318 478.382 382.734 479.131 384.361L469.707 387.926C468.991 386.331 468.356 385.061 467.803 384.117C467.249 383.141 466.387 382.066 465.215 380.895C461.634 377.151 457.223 375.279 451.982 375.279C450.387 375.279 448.76 375.475 447.1 375.865C445.114 376.321 443.372 376.988 441.875 377.867C438.034 380.048 436.113 383.271 436.113 387.535C436.113 393.525 442.461 396.926 455.156 397.74C463.62 398.326 470.033 401.142 474.395 406.188C477.78 410.094 479.277 414.586 478.887 419.664C478.333 426.402 475.452 431.643 470.244 435.387C465.687 438.674 460.251 440.318 453.936 440.318H453.838ZM491.094 377.574H501.006V386.461H509.795V396.373H501.006V421.471C501.006 423.587 501.738 425.377 503.203 426.842C504.668 428.339 506.865 429.088 509.795 429.088V439C504.163 439 499.622 437.291 496.172 433.873C492.786 430.423 491.094 426.288 491.094 421.471V377.574ZM542.949 395.836C538.262 395.836 534.274 397.512 530.986 400.865C527.666 404.153 526.006 408.141 526.006 412.828C526.006 417.516 527.666 421.503 530.986 424.791C534.274 428.111 538.262 429.771 542.949 429.771C547.637 429.771 551.641 428.111 554.961 424.791C558.281 421.503 559.941 417.516 559.941 412.828C559.941 408.141 558.281 404.153 554.961 400.865C551.641 397.512 547.637 395.836 542.949 395.836ZM542.949 439.684C535.56 439.684 529.229 437.063 523.955 431.822C518.714 426.549 516.094 420.217 516.094 412.828C516.094 405.406 518.714 399.059 523.955 393.785C529.229 388.544 535.56 385.924 542.949 385.924C550.404 385.924 556.068 387.861 559.941 391.734V386.559H569.854V439H559.941V433.873C556.068 437.747 550.404 439.684 542.949 439.684ZM627.812 412.877C627.812 408.157 626.136 404.153 622.783 400.865C619.495 397.512 615.492 395.836 610.771 395.836C606.084 395.836 602.08 397.512 598.76 400.865C595.439 404.153 593.779 408.157 593.779 412.877C593.779 417.564 595.439 421.568 598.76 424.889C602.08 428.209 606.084 429.869 610.771 429.869C615.492 429.869 619.495 428.209 622.783 424.889C626.136 421.568 627.812 417.564 627.812 412.877ZM637.725 412.779C637.725 420.169 635.104 426.5 629.863 431.773C624.59 437.047 618.258 439.684 610.869 439.684C603.415 439.684 597.751 437.73 593.877 433.824V439H583.965V363.902H593.877V391.686C597.751 387.812 603.415 385.875 610.869 385.875C618.258 385.875 624.59 388.495 629.863 393.736C635.104 399.01 637.725 405.357 637.725 412.779ZM648.223 363.902H658.184V439H648.223V363.902ZM710.479 405.65C709.307 403.176 707.467 400.979 704.961 399.059C701.999 396.91 698.695 395.836 695.049 395.836C691.37 395.836 688.066 396.91 685.137 399.059C682.956 400.523 681.1 402.721 679.57 405.65H710.479ZM695.049 385.924C702.438 385.924 708.77 388.544 714.043 393.785C719.284 399.059 721.904 405.39 721.904 412.779L721.807 415.562H678.252C678.903 419.404 680.677 422.643 683.574 425.279C686.797 428.274 690.622 429.771 695.049 429.771C698.239 429.771 701.201 428.925 703.936 427.232C706.572 425.605 708.786 423.082 710.576 419.664L719.658 423.619C717.021 428.86 713.587 432.831 709.355 435.533C704.993 438.3 700.225 439.684 695.049 439.684C687.66 439.684 681.328 437.063 676.055 431.822C670.781 426.549 668.145 420.201 668.145 412.779C668.145 405.39 670.781 399.059 676.055 393.785C681.328 388.544 687.66 385.924 695.049 385.924Z" fill="white"/>
</svg>
