<svg width="1535" height="567" viewBox="0 0 1535 567" fill="none" xmlns="http://www.w3.org/2000/svg">
<rect x="384" y="91" width="1009" height="243" fill="#212121"/>
<path d="M610.359 166.629H632.166V235.486C632.166 242.719 634.744 248.878 639.9 253.963C644.985 259.119 651.144 261.697 658.377 261.697C665.61 261.697 671.769 259.119 676.854 253.963C682.01 248.878 684.588 242.719 684.588 235.486V166.629H706.395V282H684.588V275.877C677.212 280.818 668.475 283.361 658.377 283.504C645.2 283.504 633.885 278.813 624.432 269.432C615.05 259.979 610.359 248.663 610.359 235.486V166.629ZM776.756 283.504C767.16 283.432 758.458 281.141 750.652 276.629C741.199 271.043 734.682 262.127 731.102 249.881L752.049 243.865C754.054 250.669 757.456 255.431 762.254 258.152C766.479 260.444 771.349 261.626 776.863 261.697C777.508 261.697 778.224 261.661 779.012 261.59C779.871 261.518 780.766 261.411 781.697 261.268C783.917 260.91 785.923 260.301 787.713 259.441C792.439 257.221 795.053 253.39 795.555 247.947C795.698 245.512 794.946 243.328 793.299 241.395C790.219 237.742 784.92 235.701 777.4 235.271C760.285 234.126 747.931 229.757 740.34 222.166C737.26 219.087 735.04 215.542 733.68 211.531C732.677 208.452 732.176 205.193 732.176 201.756C732.176 190.441 736.616 181.31 745.496 174.363C753.302 168.276 762.791 165.232 773.963 165.232C787.14 165.232 798.133 169.923 806.941 179.305C811.167 183.602 814.783 189.402 817.791 196.707L797.488 204.334L794.91 199.393C793.836 197.531 792.583 195.812 791.15 194.236C786.424 189.438 780.623 187.039 773.748 187.039C772.387 187.111 771.242 187.218 770.311 187.361C767.947 187.648 765.691 188.221 763.543 189.08C757.169 191.587 753.982 195.812 753.982 201.756C753.982 205.265 756.453 208.058 761.395 210.135C765.691 211.854 771.528 212.964 778.904 213.465C786.424 213.966 793.012 215.685 798.67 218.621C803.11 220.841 806.834 223.706 809.842 227.215C815.499 233.732 817.97 241.215 817.254 249.666C816.395 260.623 811.74 269.181 803.289 275.34C795.913 280.783 787.104 283.504 776.863 283.504H776.756ZM837.664 146.863H859.471V166.414H878.807V188.221H859.471V243.436C859.471 248.09 861.082 252.029 864.305 255.252C867.527 258.546 872.361 260.193 878.807 260.193V282C866.417 282 856.427 278.24 848.836 270.721C841.388 263.13 837.664 254.035 837.664 243.436V146.863ZM951.854 187.039C941.541 187.039 932.768 190.691 925.535 197.996C918.159 205.229 914.471 214.002 914.471 224.314C914.471 234.627 918.159 243.436 925.535 250.74C932.768 258.045 941.541 261.697 951.854 261.697C962.166 261.697 970.939 258.045 978.172 250.74C985.477 243.436 989.129 234.627 989.129 224.314C989.129 214.002 985.477 205.229 978.172 197.996C970.939 190.691 962.166 187.039 951.854 187.039ZM951.854 283.504C935.525 283.504 921.561 277.739 909.959 266.209C898.429 254.607 892.664 240.643 892.664 224.314C892.664 208.058 898.429 194.129 909.959 182.527C921.561 170.997 935.525 165.232 951.854 165.232C968.11 165.232 982.039 170.997 993.641 182.527C1005.17 194.129 1010.94 208.058 1010.94 224.314C1010.94 240.643 1005.17 254.607 993.641 266.209C982.039 277.739 968.11 283.504 951.854 283.504ZM1203.97 282H1182.17V213.25C1182.17 206.017 1179.59 199.858 1174.43 194.773C1169.42 189.617 1163.3 187.039 1156.06 187.039C1148.83 187.039 1142.67 189.617 1137.59 194.773C1132.5 199.786 1129.92 205.91 1129.85 213.143V282H1108.04V213.25C1108.04 206.017 1105.5 199.858 1100.42 194.773C1095.33 189.617 1089.17 187.039 1081.94 187.039C1074.71 187.039 1068.55 189.617 1063.46 194.773C1058.38 199.858 1055.84 206.017 1055.84 213.25V282H1034.03V166.629H1055.84V172.859C1063.21 167.846 1071.92 165.304 1081.94 165.232C1089.89 165.232 1097.37 167.094 1104.39 170.818C1109.69 173.54 1114.56 177.479 1119 182.635C1124.8 176.548 1129.64 172.609 1133.5 170.818C1140.59 167.094 1148.11 165.232 1156.06 165.232C1169.24 165.232 1180.55 169.923 1190.01 179.305C1199.32 188.686 1203.97 200.001 1203.97 213.25V282ZM1286.04 187.039C1275.73 187.039 1266.96 190.727 1259.72 198.104C1252.42 205.337 1248.77 214.109 1248.77 224.422C1248.77 234.734 1252.42 243.507 1259.72 250.74C1266.96 258.045 1275.73 261.697 1286.04 261.697C1296.36 261.697 1305.16 258.045 1312.47 250.74C1319.77 243.507 1323.43 234.734 1323.43 224.422C1323.43 214.109 1319.77 205.337 1312.47 198.104C1305.16 190.727 1296.36 187.039 1286.04 187.039ZM1286.04 283.504C1269.79 283.504 1255.86 277.739 1244.26 266.209C1232.73 254.607 1226.96 240.678 1226.96 224.422C1226.96 208.094 1232.73 194.129 1244.26 182.527C1255.86 170.997 1269.79 165.232 1286.04 165.232C1302.44 165.232 1314.9 169.493 1323.43 178.016V166.629H1345.23V282H1323.43V270.721C1314.9 279.243 1302.44 283.504 1286.04 283.504Z" fill="white"/>
<path d="M589 198.5C589 215.015 584.103 231.159 574.928 244.89C565.753 258.622 552.712 269.324 537.454 275.644C522.196 281.964 505.407 283.617 489.21 280.396C473.013 277.174 458.134 269.221 446.457 257.543C434.779 245.866 426.826 230.987 423.604 214.79C420.383 198.593 422.036 181.804 428.356 166.546C434.676 151.288 445.378 138.247 459.11 129.072C472.841 119.897 488.985 115 505.5 115L505.5 138.38C493.609 138.38 481.986 141.906 472.099 148.512C462.212 155.118 454.507 164.508 449.956 175.493C445.406 186.479 444.215 198.567 446.535 210.229C448.855 221.891 454.581 232.603 462.989 241.011C471.397 249.419 482.109 255.145 493.771 257.465C505.433 259.785 517.521 258.594 528.507 254.044C539.492 249.493 548.882 241.788 555.488 231.901C562.094 222.014 565.62 210.391 565.62 198.5H589Z" fill="white"/>
<rect x="141" y="91" width="243" height="243" fill="#D81B60"/>
<path d="M338.794 248.126L297.897 289.104L209.045 200.079L249.943 159.101L338.794 248.126Z" fill="#D81B60" stroke="#161616" stroke-width="10"/>
<path d="M347.958 249.945L300.837 202.696C300.837 202.696 290.639 224.697 276.856 226.728C263.072 228.759 252.883 250.794 252.883 250.794L299.995 298H347.958V249.945Z" fill="#161616"/>
<path d="M195.744 158.269L207.734 146.262L231.715 170.285L219.725 182.293L195.744 158.269Z" fill="#161616"/>
<path d="M178 176.055L225.962 128L237.953 140.016L189.991 188.063L178 176.055Z" fill="#161616"/>
<rect x="384" y="334" width="420" height="147" fill="#161616"/>
<path d="M426.031 439V366.539H436.188V439H426.031ZM493.805 439H483.893V407.701C483.893 404.413 482.737 401.63 480.426 399.352C478.115 397.008 475.315 395.836 472.027 395.836C468.74 395.836 465.94 397.008 463.629 399.352C461.318 401.63 460.162 404.413 460.162 407.701V439H450.25V386.559H460.162V389.391C463.678 387.047 467.633 385.891 472.027 385.924C478.017 385.924 483.16 388.04 487.457 392.271C491.689 396.568 493.805 401.712 493.805 407.701V439ZM512.896 380.846C511.204 380.846 509.739 380.243 508.502 379.039C507.298 377.802 506.695 376.337 506.695 374.645C506.695 372.919 507.298 371.438 508.502 370.201C509.739 368.997 511.204 368.395 512.896 368.395C514.622 368.395 516.103 368.997 517.34 370.201C518.544 371.438 519.146 372.919 519.146 374.645C519.146 376.337 518.544 377.802 517.34 379.039C516.103 380.243 514.622 380.846 512.896 380.846ZM507.965 386.559H517.877V443.053C517.844 447.252 516.347 450.849 513.385 453.844C510.357 456.806 506.337 458.287 501.324 458.287V448.326C503.635 448.326 505.312 447.805 506.354 446.764C507.428 445.722 507.965 444.452 507.965 442.955V386.559ZM570.611 405.65C569.439 403.176 567.6 400.979 565.094 399.059C562.132 396.91 558.827 395.836 555.182 395.836C551.503 395.836 548.199 396.91 545.27 399.059C543.089 400.523 541.233 402.721 539.703 405.65H570.611ZM555.182 385.924C562.571 385.924 568.902 388.544 574.176 393.785C579.417 399.059 582.037 405.39 582.037 412.779L581.939 415.562H538.385C539.036 419.404 540.81 422.643 543.707 425.279C546.93 428.274 550.755 429.771 555.182 429.771C558.372 429.771 561.334 428.925 564.068 427.232C566.705 425.605 568.919 423.082 570.709 419.664L579.791 423.619C577.154 428.86 573.72 432.831 569.488 435.533C565.126 438.3 560.357 439.684 555.182 439.684C547.792 439.684 541.461 437.063 536.188 431.822C530.914 426.549 528.277 420.201 528.277 412.779C528.277 405.39 530.914 399.059 536.188 393.785C541.461 388.544 547.792 385.924 555.182 385.924ZM641.705 423.619C639.068 428.86 635.634 432.831 631.402 435.533C627.04 438.3 622.271 439.684 617.096 439.684C609.706 439.684 603.359 437.063 598.053 431.822C592.812 426.549 590.191 420.201 590.191 412.779C590.191 405.39 592.812 399.059 598.053 393.785C603.359 388.544 609.706 385.924 617.096 385.924C622.271 385.924 627.04 387.307 631.402 390.074C635.634 392.776 639.068 396.731 641.705 401.939L632.623 405.895C630.833 402.509 628.619 399.986 625.982 398.326C623.248 396.666 620.286 395.836 617.096 395.836C612.408 395.836 608.421 397.496 605.133 400.816C601.78 404.104 600.104 408.092 600.104 412.779C600.104 417.467 601.78 421.471 605.133 424.791C608.421 428.111 612.408 429.771 617.096 429.771C620.286 429.771 623.248 428.925 625.982 427.232C628.619 425.605 630.833 423.082 632.623 419.664L641.705 423.619ZM652.691 377.574H662.604V386.461H671.393V396.373H662.604V421.471C662.604 423.587 663.336 425.377 664.801 426.842C666.266 428.339 668.463 429.088 671.393 429.088V439C665.761 439 661.22 437.291 657.77 433.873C654.384 430.422 652.691 426.288 652.691 421.471V377.574ZM704.596 395.836C699.908 395.836 695.921 397.496 692.633 400.816C689.28 404.104 687.604 408.092 687.604 412.779C687.604 417.467 689.28 421.471 692.633 424.791C695.921 428.111 699.908 429.771 704.596 429.771C709.283 429.771 713.271 428.111 716.559 424.791C719.879 421.471 721.539 417.467 721.539 412.779C721.539 408.092 719.879 404.104 716.559 400.816C713.271 397.496 709.283 395.836 704.596 395.836ZM704.596 439.684C697.174 439.684 690.826 437.063 685.553 431.822C680.312 426.549 677.691 420.201 677.691 412.779C677.691 405.39 680.312 399.059 685.553 393.785C690.826 388.544 697.174 385.924 704.596 385.924C711.985 385.924 718.316 388.544 723.59 393.785C728.831 399.059 731.451 405.39 731.451 412.779C731.451 420.201 728.831 426.549 723.59 431.822C718.316 437.063 711.985 439.684 704.596 439.684ZM765.875 385.924V395.836H763.727C760.439 395.836 757.656 397.008 755.377 399.352C753.033 401.663 751.861 404.462 751.861 407.75V439H741.949V386.559H751.861V389.293C754.563 387.047 758.518 385.924 763.727 385.924H765.875Z" fill="white"/>
<rect x="237" y="334" width="147" height="147" fill="#5865F2"/>
<path d="M325.686 393.636C325.307 379.854 314.524 374.292 300.624 374.292H273.668V402.142L290.906 417.664V388.137H300.929C311.634 388.137 311.634 401.588 300.929 401.588H294.306V414.439H300.929C311.634 414.439 311.634 427.886 300.929 427.886H273.668V441.727H300.624C314.52 441.727 325.304 436.166 325.686 422.383C325.686 416.042 323.95 411.303 320.893 408.008C323.95 404.716 325.686 399.978 325.686 393.636Z" fill="white"/>
<path d="M320.237 374.273H317.242C318.28 374.791 319.259 375.369 320.167 376C322.925 377.915 325.085 380.349 326.587 383.227C328.143 386.215 328.985 389.686 329.094 393.547V393.593V393.64C329.094 399.143 329.094 416.888 329.094 422.387V422.434V422.481C328.989 426.342 328.147 429.813 326.587 432.8C325.085 435.678 322.928 438.112 320.167 440.027C319.286 440.639 318.338 441.201 317.336 441.708H320.163C333.665 441.782 346.332 435.031 346.332 419.56V396.951C346.406 381.176 333.739 374.273 320.237 374.273Z" fill="white"/>
</svg>
