<svg width="1535" height="567" viewBox="0 0 1535 567" fill="none" xmlns="http://www.w3.org/2000/svg">
<rect x="384" y="334" width="303" height="147" fill="#161616"/>
<path d="M462.938 428.795C465.835 428.795 468.292 427.753 470.311 425.67C472.361 423.619 473.37 421.145 473.338 418.248C473.338 415.351 472.296 412.893 470.213 410.875C468.195 408.824 465.737 407.799 462.84 407.799H444.188V428.795H462.938ZM444.188 376.695V397.643H461.229C464.093 397.61 466.535 396.568 468.553 394.518C470.604 392.499 471.629 390.042 471.629 387.145C471.596 384.247 470.555 381.79 468.504 379.771C466.486 377.721 464.028 376.695 461.131 376.695H444.188ZM477.391 403.6C481.46 407.636 483.494 412.503 483.494 418.199C483.527 423.896 481.541 428.779 477.537 432.848C473.501 436.884 469.057 438.919 464.207 438.951V439H434.031V366.539H460.008C466.453 366.572 471.694 368.59 475.73 372.594C479.734 376.598 481.753 381.432 481.785 387.096C481.818 392.76 479.832 397.626 475.828 401.695C475.372 402.118 475.291 402.216 475.584 401.988C475.812 402.118 476.414 402.656 477.391 403.6ZM536.131 405.65C534.959 403.176 533.12 400.979 530.613 399.059C527.651 396.91 524.347 395.836 520.701 395.836C517.023 395.836 513.719 396.91 510.789 399.059C508.608 400.523 506.753 402.721 505.223 405.65H536.131ZM520.701 385.924C528.09 385.924 534.422 388.544 539.695 393.785C544.936 399.059 547.557 405.39 547.557 412.779L547.459 415.562H503.904C504.555 419.404 506.329 422.643 509.227 425.279C512.449 428.274 516.274 429.771 520.701 429.771C523.891 429.771 526.854 428.925 529.588 427.232C532.225 425.605 534.438 423.082 536.229 419.664L545.311 423.619C542.674 428.86 539.24 432.831 535.008 435.533C530.646 438.3 525.877 439.684 520.701 439.684C513.312 439.684 506.98 437.063 501.707 431.822C496.434 426.549 493.797 420.201 493.797 412.779C493.797 405.39 496.434 399.059 501.707 393.785C506.98 388.544 513.312 385.924 520.701 385.924ZM558.055 377.574H567.967V386.461H576.756V396.373H567.967V421.471C567.967 423.587 568.699 425.377 570.164 426.842C571.629 428.339 573.826 429.088 576.756 429.088V439C571.124 439 566.583 437.291 563.133 433.873C559.747 430.423 558.055 426.288 558.055 421.471V377.574ZM609.91 395.836C605.223 395.836 601.235 397.512 597.947 400.865C594.627 404.153 592.967 408.141 592.967 412.828C592.967 417.516 594.627 421.503 597.947 424.791C601.235 428.111 605.223 429.771 609.91 429.771C614.598 429.771 618.602 428.111 621.922 424.791C625.242 421.503 626.902 417.516 626.902 412.828C626.902 408.141 625.242 404.153 621.922 400.865C618.602 397.512 614.598 395.836 609.91 395.836ZM609.91 439.684C602.521 439.684 596.189 437.063 590.916 431.822C585.675 426.549 583.055 420.217 583.055 412.828C583.055 405.406 585.675 399.059 590.916 393.785C596.189 388.544 602.521 385.924 609.91 385.924C617.365 385.924 623.029 387.861 626.902 391.734V386.559H636.814V439H626.902V433.873C623.029 437.747 617.365 439.684 609.91 439.684Z" fill="white"/>
<rect x="384" y="91" width="1009" height="243" fill="#212121"/>
<path d="M610.359 166.629H632.166V235.486C632.166 242.719 634.744 248.878 639.9 253.963C644.985 259.119 651.144 261.697 658.377 261.697C665.61 261.697 671.769 259.119 676.854 253.963C682.01 248.878 684.588 242.719 684.588 235.486V166.629H706.395V282H684.588V275.877C677.212 280.818 668.475 283.361 658.377 283.504C645.2 283.504 633.885 278.813 624.432 269.432C615.05 259.979 610.359 248.663 610.359 235.486V166.629ZM776.756 283.504C767.16 283.432 758.458 281.141 750.652 276.629C741.199 271.043 734.682 262.127 731.102 249.881L752.049 243.865C754.054 250.669 757.456 255.431 762.254 258.152C766.479 260.444 771.349 261.626 776.863 261.697C777.508 261.697 778.224 261.661 779.012 261.59C779.871 261.518 780.766 261.411 781.697 261.268C783.917 260.91 785.923 260.301 787.713 259.441C792.439 257.221 795.053 253.39 795.555 247.947C795.698 245.512 794.946 243.328 793.299 241.395C790.219 237.742 784.92 235.701 777.4 235.271C760.285 234.126 747.931 229.757 740.34 222.166C737.26 219.087 735.04 215.542 733.68 211.531C732.677 208.452 732.176 205.193 732.176 201.756C732.176 190.441 736.616 181.31 745.496 174.363C753.302 168.276 762.791 165.232 773.963 165.232C787.14 165.232 798.133 169.923 806.941 179.305C811.167 183.602 814.783 189.402 817.791 196.707L797.488 204.334L794.91 199.393C793.836 197.531 792.583 195.812 791.15 194.236C786.424 189.438 780.623 187.039 773.748 187.039C772.387 187.111 771.242 187.218 770.311 187.361C767.947 187.648 765.691 188.221 763.543 189.08C757.169 191.587 753.982 195.812 753.982 201.756C753.982 205.265 756.453 208.058 761.395 210.135C765.691 211.854 771.528 212.964 778.904 213.465C786.424 213.966 793.012 215.685 798.67 218.621C803.11 220.841 806.834 223.706 809.842 227.215C815.499 233.732 817.97 241.215 817.254 249.666C816.395 260.623 811.74 269.181 803.289 275.34C795.913 280.783 787.104 283.504 776.863 283.504H776.756ZM837.664 146.863H859.471V166.414H878.807V188.221H859.471V243.436C859.471 248.09 861.082 252.029 864.305 255.252C867.527 258.546 872.361 260.193 878.807 260.193V282C866.417 282 856.427 278.24 848.836 270.721C841.388 263.13 837.664 254.035 837.664 243.436V146.863ZM951.854 187.039C941.541 187.039 932.768 190.691 925.535 197.996C918.159 205.229 914.471 214.002 914.471 224.314C914.471 234.627 918.159 243.436 925.535 250.74C932.768 258.045 941.541 261.697 951.854 261.697C962.166 261.697 970.939 258.045 978.172 250.74C985.477 243.436 989.129 234.627 989.129 224.314C989.129 214.002 985.477 205.229 978.172 197.996C970.939 190.691 962.166 187.039 951.854 187.039ZM951.854 283.504C935.525 283.504 921.561 277.739 909.959 266.209C898.429 254.607 892.664 240.643 892.664 224.314C892.664 208.058 898.429 194.129 909.959 182.527C921.561 170.997 935.525 165.232 951.854 165.232C968.11 165.232 982.039 170.997 993.641 182.527C1005.17 194.129 1010.94 208.058 1010.94 224.314C1010.94 240.643 1005.17 254.607 993.641 266.209C982.039 277.739 968.11 283.504 951.854 283.504ZM1203.97 282H1182.17V213.25C1182.17 206.017 1179.59 199.858 1174.43 194.773C1169.42 189.617 1163.3 187.039 1156.06 187.039C1148.83 187.039 1142.67 189.617 1137.59 194.773C1132.5 199.786 1129.92 205.91 1129.85 213.143V282H1108.04V213.25C1108.04 206.017 1105.5 199.858 1100.42 194.773C1095.33 189.617 1089.17 187.039 1081.94 187.039C1074.71 187.039 1068.55 189.617 1063.46 194.773C1058.38 199.858 1055.84 206.017 1055.84 213.25V282H1034.03V166.629H1055.84V172.859C1063.21 167.846 1071.92 165.304 1081.94 165.232C1089.89 165.232 1097.37 167.094 1104.39 170.818C1109.69 173.54 1114.56 177.479 1119 182.635C1124.8 176.548 1129.64 172.609 1133.5 170.818C1140.59 167.094 1148.11 165.232 1156.06 165.232C1169.24 165.232 1180.55 169.923 1190.01 179.305C1199.32 188.686 1203.97 200.001 1203.97 213.25V282ZM1286.04 187.039C1275.73 187.039 1266.96 190.727 1259.72 198.104C1252.42 205.337 1248.77 214.109 1248.77 224.422C1248.77 234.734 1252.42 243.507 1259.72 250.74C1266.96 258.045 1275.73 261.697 1286.04 261.697C1296.36 261.697 1305.16 258.045 1312.47 250.74C1319.77 243.507 1323.43 234.734 1323.43 224.422C1323.43 214.109 1319.77 205.337 1312.47 198.104C1305.16 190.727 1296.36 187.039 1286.04 187.039ZM1286.04 283.504C1269.79 283.504 1255.86 277.739 1244.26 266.209C1232.73 254.607 1226.96 240.678 1226.96 224.422C1226.96 208.094 1232.73 194.129 1244.26 182.527C1255.86 170.997 1269.79 165.232 1286.04 165.232C1302.44 165.232 1314.9 169.493 1323.43 178.016V166.629H1345.23V282H1323.43V270.721C1314.9 279.243 1302.44 283.504 1286.04 283.504Z" fill="white"/>
<path d="M589 199.5C589 216.015 584.103 232.159 574.928 245.89C565.753 259.622 552.712 270.324 537.454 276.644C522.196 282.964 505.407 284.617 489.21 281.396C473.013 278.174 458.134 270.221 446.457 258.543C434.779 246.866 426.826 231.987 423.604 215.79C420.383 199.593 422.036 182.804 428.356 167.546C434.676 152.288 445.378 139.247 459.11 130.072C472.841 120.897 488.985 116 505.5 116L505.5 139.38C493.609 139.38 481.986 142.906 472.099 149.512C462.212 156.118 454.507 165.508 449.956 176.493C445.406 187.479 444.215 199.567 446.535 211.229C448.855 222.891 454.581 233.603 462.989 242.011C471.397 250.419 482.109 256.145 493.771 258.465C505.433 260.785 517.521 259.594 528.507 255.044C539.492 250.493 548.882 242.788 555.488 232.901C562.094 223.014 565.62 211.391 565.62 199.5H589Z" fill="white"/>
<rect x="141" y="91" width="243" height="243" fill="#D81B60"/>
<path d="M347 212C347 228.811 342.015 245.245 332.675 259.223C323.335 273.202 310.06 284.096 294.528 290.53C278.996 296.963 261.906 298.646 245.417 295.367C228.929 292.087 213.783 283.992 201.896 272.104C190.008 260.217 181.913 245.071 178.633 228.583C175.354 212.094 177.037 195.004 183.47 179.472C189.904 163.94 200.798 150.665 214.777 141.325C228.755 131.985 245.189 127 262 127L262 156.75C251.073 156.75 240.391 159.99 231.305 166.061C222.219 172.132 215.137 180.761 210.956 190.857C206.774 200.952 205.68 212.061 207.812 222.779C209.943 233.496 215.206 243.341 222.932 251.068C230.659 258.794 240.504 264.057 251.221 266.188C261.939 268.32 273.048 267.226 283.143 263.044C293.239 258.863 301.868 251.781 307.939 242.695C314.01 233.609 317.25 222.927 317.25 212H347Z" fill="white"/>
<path d="M262 267.25C292.514 267.25 317.25 242.514 317.25 212C317.25 181.486 292.514 156.75 262 156.75C231.486 156.75 206.75 181.486 206.75 212C206.75 242.514 231.486 267.25 262 267.25Z" fill="#D81B60"/>
<path d="M251.8 199.63C251.8 205.863 247.233 210.878 241.6 210.878C235.967 210.878 231.4 205.84 231.4 199.63C231.4 193.419 235.967 188.381 241.6 188.381C247.233 188.381 251.8 193.419 251.8 199.63Z" fill="white"/>
<path d="M292.6 199.629C292.6 205.863 288.032 210.878 282.4 210.878C276.767 210.878 272.2 205.84 272.2 199.629C272.2 193.419 276.767 188.381 282.4 188.381C288.032 188.381 292.6 193.419 292.6 199.629Z" fill="white"/>
<path d="M281.833 220.772C284.021 222.024 284.803 224.829 283.176 226.75C279.71 230.815 275.087 233.727 269.925 235.1C264.762 236.472 259.304 236.24 254.276 234.434C251.908 233.579 251.16 230.762 252.429 228.592C253.687 226.433 256.475 225.759 258.917 226.388C261.759 227.121 264.742 227.11 267.579 226.356C270.416 225.601 273.01 224.129 275.113 222.081C276.903 220.33 279.646 219.525 281.839 220.772H281.833Z" fill="white"/>
</svg>
