<svg width="1535" height="567" viewBox="0 0 1535 567" fill="none" xmlns="http://www.w3.org/2000/svg">
<rect x="384" y="91" width="1009" height="243" fill="#212121"/>
<path d="M610.359 166.629H632.166V235.486C632.166 242.719 634.744 248.878 639.9 253.963C644.985 259.119 651.144 261.697 658.377 261.697C665.61 261.697 671.769 259.119 676.854 253.963C682.01 248.878 684.588 242.719 684.588 235.486V166.629H706.395V282H684.588V275.877C677.212 280.818 668.475 283.361 658.377 283.504C645.2 283.504 633.885 278.813 624.432 269.432C615.05 259.979 610.359 248.663 610.359 235.486V166.629ZM776.756 283.504C767.16 283.432 758.458 281.141 750.652 276.629C741.199 271.043 734.682 262.127 731.102 249.881L752.049 243.865C754.054 250.669 757.456 255.431 762.254 258.152C766.479 260.444 771.349 261.626 776.863 261.697C777.508 261.697 778.224 261.661 779.012 261.59C779.871 261.518 780.766 261.411 781.697 261.268C783.917 260.91 785.923 260.301 787.713 259.441C792.439 257.221 795.053 253.39 795.555 247.947C795.698 245.512 794.946 243.328 793.299 241.395C790.219 237.742 784.92 235.701 777.4 235.271C760.285 234.126 747.931 229.757 740.34 222.166C737.26 219.087 735.04 215.542 733.68 211.531C732.677 208.452 732.176 205.193 732.176 201.756C732.176 190.441 736.616 181.31 745.496 174.363C753.302 168.276 762.791 165.232 773.963 165.232C787.14 165.232 798.133 169.923 806.941 179.305C811.167 183.602 814.783 189.402 817.791 196.707L797.488 204.334L794.91 199.393C793.836 197.531 792.583 195.812 791.15 194.236C786.424 189.438 780.623 187.039 773.748 187.039C772.387 187.111 771.242 187.218 770.311 187.361C767.947 187.648 765.691 188.221 763.543 189.08C757.169 191.587 753.982 195.812 753.982 201.756C753.982 205.265 756.453 208.058 761.395 210.135C765.691 211.854 771.528 212.964 778.904 213.465C786.424 213.966 793.012 215.685 798.67 218.621C803.11 220.841 806.834 223.706 809.842 227.215C815.499 233.732 817.97 241.215 817.254 249.666C816.395 260.623 811.74 269.181 803.289 275.34C795.913 280.783 787.104 283.504 776.863 283.504H776.756ZM837.664 146.863H859.471V166.414H878.807V188.221H859.471V243.436C859.471 248.09 861.082 252.029 864.305 255.252C867.527 258.546 872.361 260.193 878.807 260.193V282C866.417 282 856.427 278.24 848.836 270.721C841.388 263.13 837.664 254.035 837.664 243.436V146.863ZM951.854 187.039C941.541 187.039 932.768 190.691 925.535 197.996C918.159 205.229 914.471 214.002 914.471 224.314C914.471 234.627 918.159 243.436 925.535 250.74C932.768 258.045 941.541 261.697 951.854 261.697C962.166 261.697 970.939 258.045 978.172 250.74C985.477 243.436 989.129 234.627 989.129 224.314C989.129 214.002 985.477 205.229 978.172 197.996C970.939 190.691 962.166 187.039 951.854 187.039ZM951.854 283.504C935.525 283.504 921.561 277.739 909.959 266.209C898.429 254.607 892.664 240.643 892.664 224.314C892.664 208.058 898.429 194.129 909.959 182.527C921.561 170.997 935.525 165.232 951.854 165.232C968.11 165.232 982.039 170.997 993.641 182.527C1005.17 194.129 1010.94 208.058 1010.94 224.314C1010.94 240.643 1005.17 254.607 993.641 266.209C982.039 277.739 968.11 283.504 951.854 283.504ZM1203.97 282H1182.17V213.25C1182.17 206.017 1179.59 199.858 1174.43 194.773C1169.42 189.617 1163.3 187.039 1156.06 187.039C1148.83 187.039 1142.67 189.617 1137.59 194.773C1132.5 199.786 1129.92 205.91 1129.85 213.143V282H1108.04V213.25C1108.04 206.017 1105.5 199.858 1100.42 194.773C1095.33 189.617 1089.17 187.039 1081.94 187.039C1074.71 187.039 1068.55 189.617 1063.46 194.773C1058.38 199.858 1055.84 206.017 1055.84 213.25V282H1034.03V166.629H1055.84V172.859C1063.21 167.846 1071.92 165.304 1081.94 165.232C1089.89 165.232 1097.37 167.094 1104.39 170.818C1109.69 173.54 1114.56 177.479 1119 182.635C1124.8 176.548 1129.64 172.609 1133.5 170.818C1140.59 167.094 1148.11 165.232 1156.06 165.232C1169.24 165.232 1180.55 169.923 1190.01 179.305C1199.32 188.686 1203.97 200.001 1203.97 213.25V282ZM1286.04 187.039C1275.73 187.039 1266.96 190.727 1259.72 198.104C1252.42 205.337 1248.77 214.109 1248.77 224.422C1248.77 234.734 1252.42 243.507 1259.72 250.74C1266.96 258.045 1275.73 261.697 1286.04 261.697C1296.36 261.697 1305.16 258.045 1312.47 250.74C1319.77 243.507 1323.43 234.734 1323.43 224.422C1323.43 214.109 1319.77 205.337 1312.47 198.104C1305.16 190.727 1296.36 187.039 1286.04 187.039ZM1286.04 283.504C1269.79 283.504 1255.86 277.739 1244.26 266.209C1232.73 254.607 1226.96 240.678 1226.96 224.422C1226.96 208.094 1232.73 194.129 1244.26 182.527C1255.86 170.997 1269.79 165.232 1286.04 165.232C1302.44 165.232 1314.9 169.493 1323.43 178.016V166.629H1345.23V282H1323.43V270.721C1314.9 279.243 1302.44 283.504 1286.04 283.504Z" fill="white"/>
<path d="M589 198.5C589 215.015 584.103 231.159 574.928 244.89C565.753 258.622 552.712 269.324 537.454 275.644C522.196 281.964 505.407 283.617 489.21 280.396C473.013 277.174 458.134 269.221 446.457 257.543C434.779 245.866 426.826 230.987 423.604 214.79C420.383 198.593 422.036 181.804 428.356 166.546C434.676 151.288 445.378 138.247 459.11 129.072C472.841 119.897 488.985 115 505.5 115L505.5 138.38C493.609 138.38 481.986 141.906 472.099 148.512C462.212 155.118 454.507 164.508 449.956 175.493C445.406 186.479 444.215 198.567 446.535 210.229C448.855 221.891 454.581 232.603 462.989 241.011C471.397 249.419 482.109 255.145 493.771 257.465C505.433 259.785 517.521 258.594 528.507 254.044C539.492 249.493 548.882 241.788 555.488 231.901C562.094 222.014 565.62 210.391 565.62 198.5H589Z" fill="white"/>
<rect x="141" y="91" width="243" height="243" fill="#D81B60"/>
<path d="M347 213C347 229.811 342.015 246.245 332.675 260.223C323.335 274.202 310.06 285.096 294.528 291.53C278.996 297.963 261.906 299.646 245.417 296.367C228.929 293.087 213.783 284.992 201.896 273.104C190.008 261.217 181.913 246.071 178.633 229.583C175.354 213.094 177.037 196.004 183.47 180.472C189.904 164.94 200.798 151.665 214.777 142.325C228.755 132.985 245.189 128 262 128L262 157.75C251.073 157.75 240.391 160.99 231.305 167.061C222.219 173.132 215.137 181.761 210.956 191.857C206.774 201.952 205.68 213.061 207.812 223.779C209.943 234.496 215.206 244.341 222.932 252.068C230.659 259.794 240.504 265.057 251.221 267.188C261.939 269.32 273.048 268.226 283.143 264.044C293.239 259.863 301.868 252.781 307.939 243.695C314.01 234.609 317.25 223.927 317.25 213H347Z" fill="#161616"/>
<path d="M262 268.25C292.514 268.25 317.25 243.514 317.25 213C317.25 182.486 292.514 157.75 262 157.75C231.486 157.75 206.75 182.486 206.75 213C206.75 243.514 231.486 268.25 262 268.25Z" fill="#5A5A5A"/>
<path d="M251.8 200.63C251.8 206.863 247.233 211.878 241.6 211.878C235.967 211.878 231.4 206.84 231.4 200.63C231.4 194.419 235.967 189.381 241.6 189.381C247.233 189.381 251.8 194.419 251.8 200.63Z" fill="#161616"/>
<path d="M292.6 200.63C292.6 206.863 288.032 211.878 282.4 211.878C276.767 211.878 272.2 206.84 272.2 200.63C272.2 194.419 276.767 189.381 282.4 189.381C288.032 189.381 292.6 194.419 292.6 200.63Z" fill="#161616"/>
<path d="M281.833 221.772C284.021 223.024 284.803 225.829 283.176 227.75C279.709 231.815 275.087 234.727 269.925 236.1C264.762 237.472 259.304 237.24 254.276 235.434C251.908 234.579 251.16 231.762 252.429 229.592C253.687 227.433 256.475 226.759 258.917 227.388C261.759 228.121 264.742 228.11 267.579 227.356C270.416 226.601 273.01 225.129 275.113 223.081C276.903 221.33 279.646 220.525 281.839 221.772H281.833Z" fill="#161616"/>
<rect x="384" y="334" width="422" height="147" fill="#161616"/>
<path d="M433.236 428.844H469.223V439H423.08V366.539H433.236V428.844ZM516.244 405.65C515.072 403.176 513.233 400.979 510.727 399.059C507.764 396.91 504.46 395.836 500.814 395.836C497.136 395.836 493.832 396.91 490.902 399.059C488.721 400.523 486.866 402.721 485.336 405.65H516.244ZM500.814 385.924C508.204 385.924 514.535 388.544 519.809 393.785C525.049 399.059 527.67 405.39 527.67 412.779L527.572 415.562H484.018C484.669 419.404 486.443 422.643 489.34 425.279C492.562 428.274 496.387 429.771 500.814 429.771C504.005 429.771 506.967 428.925 509.701 427.232C512.338 425.605 514.551 423.082 516.342 419.664L525.424 423.619C522.787 428.86 519.353 432.831 515.121 435.533C510.759 438.3 505.99 439.684 500.814 439.684C493.425 439.684 487.094 437.063 481.82 431.822C476.547 426.549 473.91 420.201 473.91 412.779C473.91 405.39 476.547 399.059 481.82 393.785C487.094 388.544 493.425 385.924 500.814 385.924ZM563.559 429.869C568.181 429.869 572.104 428.242 575.326 424.986C578.614 421.731 580.258 417.792 580.258 413.17C580.258 408.58 578.614 404.658 575.326 401.402C572.104 398.147 568.181 396.52 563.559 396.52C558.936 396.52 555.014 398.147 551.791 401.402C548.503 404.658 546.859 408.58 546.859 413.17C546.859 417.792 548.503 421.731 551.791 424.986C555.014 428.242 558.936 429.869 563.559 429.869ZM590.17 396.52H584.555C588.461 401.402 590.333 406.952 590.17 413.17C590.17 420.527 587.582 426.809 582.406 432.018C577.165 437.226 570.883 439.83 563.559 439.83C562.484 439.83 561.54 439.765 560.727 439.635L554.77 448.18H579.135V458.141H535.775L550.766 436.559C547.087 434.768 543.881 431.773 541.146 427.574C538.347 423.18 536.947 418.378 536.947 413.17C536.947 405.846 539.535 399.579 544.711 394.371C549.952 389.163 556.234 386.559 563.559 386.559H590.17V396.52ZM625.18 395.836C620.492 395.836 616.505 397.512 613.217 400.865C609.896 404.153 608.236 408.141 608.236 412.828C608.236 417.516 609.896 421.503 613.217 424.791C616.505 428.111 620.492 429.771 625.18 429.771C629.867 429.771 633.871 428.111 637.191 424.791C640.512 421.503 642.172 417.516 642.172 412.828C642.172 408.141 640.512 404.153 637.191 400.865C633.871 397.512 629.867 395.836 625.18 395.836ZM625.18 439.684C617.79 439.684 611.459 437.063 606.186 431.822C600.945 426.549 598.324 420.217 598.324 412.828C598.324 405.406 600.945 399.059 606.186 393.785C611.459 388.544 617.79 385.924 625.18 385.924C632.634 385.924 638.298 387.861 642.172 391.734V386.559H652.084V439H642.172V433.873C638.298 437.747 632.634 439.684 625.18 439.684ZM714.096 423.619C711.459 428.86 708.025 432.831 703.793 435.533C699.431 438.3 694.662 439.684 689.486 439.684C682.097 439.684 675.749 437.063 670.443 431.822C665.202 426.549 662.582 420.201 662.582 412.779C662.582 405.39 665.202 399.059 670.443 393.785C675.749 388.544 682.097 385.924 689.486 385.924C694.662 385.924 699.431 387.307 703.793 390.074C708.025 392.776 711.459 396.731 714.096 401.939L705.014 405.895C703.223 402.509 701.01 399.986 698.373 398.326C695.639 396.666 692.676 395.836 689.486 395.836C684.799 395.836 680.811 397.496 677.523 400.816C674.171 404.104 672.494 408.092 672.494 412.779C672.494 417.467 674.171 421.471 677.523 424.791C680.811 428.111 684.799 429.771 689.486 429.771C692.676 429.771 695.639 428.925 698.373 427.232C701.01 425.605 703.223 423.082 705.014 419.664L714.096 423.619ZM759.555 386.559H770.297L745.346 448.229H758.09V458.189H730.551L740.365 434.02L721.176 386.559H731.918L745.736 420.689L759.555 386.559Z" fill="white"/>
</svg>
