<svg width="1535" height="567" viewBox="0 0 1535 567" fill="none" xmlns="http://www.w3.org/2000/svg">
<rect x="384" y="91" width="1009" height="243" fill="#212121"/>
<path d="M610.359 166.629H632.166V235.486C632.166 242.719 634.744 248.878 639.9 253.963C644.985 259.119 651.144 261.697 658.377 261.697C665.61 261.697 671.769 259.119 676.854 253.963C682.01 248.878 684.588 242.719 684.588 235.486V166.629H706.395V282H684.588V275.877C677.212 280.818 668.475 283.361 658.377 283.504C645.2 283.504 633.885 278.813 624.432 269.432C615.05 259.979 610.359 248.663 610.359 235.486V166.629ZM776.756 283.504C767.16 283.432 758.458 281.141 750.652 276.629C741.199 271.043 734.682 262.127 731.102 249.881L752.049 243.865C754.054 250.669 757.456 255.431 762.254 258.152C766.479 260.444 771.349 261.626 776.863 261.697C777.508 261.697 778.224 261.661 779.012 261.59C779.871 261.518 780.766 261.411 781.697 261.268C783.917 260.91 785.923 260.301 787.713 259.441C792.439 257.221 795.053 253.39 795.555 247.947C795.698 245.512 794.946 243.328 793.299 241.395C790.219 237.742 784.92 235.701 777.4 235.271C760.285 234.126 747.931 229.757 740.34 222.166C737.26 219.087 735.04 215.542 733.68 211.531C732.677 208.452 732.176 205.193 732.176 201.756C732.176 190.441 736.616 181.31 745.496 174.363C753.302 168.276 762.791 165.232 773.963 165.232C787.14 165.232 798.133 169.923 806.941 179.305C811.167 183.602 814.783 189.402 817.791 196.707L797.488 204.334L794.91 199.393C793.836 197.531 792.583 195.812 791.15 194.236C786.424 189.438 780.623 187.039 773.748 187.039C772.387 187.111 771.242 187.218 770.311 187.361C767.947 187.648 765.691 188.221 763.543 189.08C757.169 191.587 753.982 195.812 753.982 201.756C753.982 205.265 756.453 208.058 761.395 210.135C765.691 211.854 771.528 212.964 778.904 213.465C786.424 213.966 793.012 215.685 798.67 218.621C803.11 220.841 806.834 223.706 809.842 227.215C815.499 233.732 817.97 241.215 817.254 249.666C816.395 260.623 811.74 269.181 803.289 275.34C795.913 280.783 787.104 283.504 776.863 283.504H776.756ZM837.664 146.863H859.471V166.414H878.807V188.221H859.471V243.436C859.471 248.09 861.082 252.029 864.305 255.252C867.527 258.546 872.361 260.193 878.807 260.193V282C866.417 282 856.427 278.24 848.836 270.721C841.388 263.13 837.664 254.035 837.664 243.436V146.863ZM951.854 187.039C941.541 187.039 932.768 190.691 925.535 197.996C918.159 205.229 914.471 214.002 914.471 224.314C914.471 234.627 918.159 243.436 925.535 250.74C932.768 258.045 941.541 261.697 951.854 261.697C962.166 261.697 970.939 258.045 978.172 250.74C985.477 243.436 989.129 234.627 989.129 224.314C989.129 214.002 985.477 205.229 978.172 197.996C970.939 190.691 962.166 187.039 951.854 187.039ZM951.854 283.504C935.525 283.504 921.561 277.739 909.959 266.209C898.429 254.607 892.664 240.643 892.664 224.314C892.664 208.058 898.429 194.129 909.959 182.527C921.561 170.997 935.525 165.232 951.854 165.232C968.11 165.232 982.039 170.997 993.641 182.527C1005.17 194.129 1010.94 208.058 1010.94 224.314C1010.94 240.643 1005.17 254.607 993.641 266.209C982.039 277.739 968.11 283.504 951.854 283.504ZM1203.97 282H1182.17V213.25C1182.17 206.017 1179.59 199.858 1174.43 194.773C1169.42 189.617 1163.3 187.039 1156.06 187.039C1148.83 187.039 1142.67 189.617 1137.59 194.773C1132.5 199.786 1129.92 205.91 1129.85 213.143V282H1108.04V213.25C1108.04 206.017 1105.5 199.858 1100.42 194.773C1095.33 189.617 1089.17 187.039 1081.94 187.039C1074.71 187.039 1068.55 189.617 1063.46 194.773C1058.38 199.858 1055.84 206.017 1055.84 213.25V282H1034.03V166.629H1055.84V172.859C1063.21 167.846 1071.92 165.304 1081.94 165.232C1089.89 165.232 1097.37 167.094 1104.39 170.818C1109.69 173.54 1114.56 177.479 1119 182.635C1124.8 176.548 1129.64 172.609 1133.5 170.818C1140.59 167.094 1148.11 165.232 1156.06 165.232C1169.24 165.232 1180.55 169.923 1190.01 179.305C1199.32 188.686 1203.97 200.001 1203.97 213.25V282ZM1286.04 187.039C1275.73 187.039 1266.96 190.727 1259.72 198.104C1252.42 205.337 1248.77 214.109 1248.77 224.422C1248.77 234.734 1252.42 243.507 1259.72 250.74C1266.96 258.045 1275.73 261.697 1286.04 261.697C1296.36 261.697 1305.16 258.045 1312.47 250.74C1319.77 243.507 1323.43 234.734 1323.43 224.422C1323.43 214.109 1319.77 205.337 1312.47 198.104C1305.16 190.727 1296.36 187.039 1286.04 187.039ZM1286.04 283.504C1269.79 283.504 1255.86 277.739 1244.26 266.209C1232.73 254.607 1226.96 240.678 1226.96 224.422C1226.96 208.094 1232.73 194.129 1244.26 182.527C1255.86 170.997 1269.79 165.232 1286.04 165.232C1302.44 165.232 1314.9 169.493 1323.43 178.016V166.629H1345.23V282H1323.43V270.721C1314.9 279.243 1302.44 283.504 1286.04 283.504Z" fill="white"/>
<path d="M589 198.5C589 215.015 584.103 231.159 574.928 244.89C565.753 258.622 552.712 269.324 537.454 275.644C522.196 281.964 505.407 283.617 489.21 280.396C473.013 277.174 458.134 269.221 446.457 257.543C434.779 245.866 426.826 230.987 423.604 214.79C420.383 198.593 422.036 181.804 428.356 166.546C434.676 151.288 445.378 138.247 459.11 129.072C472.841 119.897 488.985 115 505.5 115L505.5 138.38C493.609 138.38 481.986 141.906 472.099 148.512C462.212 155.118 454.507 164.508 449.956 175.493C445.406 186.479 444.215 198.567 446.535 210.229C448.855 221.891 454.581 232.603 462.989 241.011C471.397 249.419 482.109 255.145 493.771 257.465C505.433 259.785 517.521 258.594 528.507 254.044C539.492 249.493 548.882 241.788 555.488 231.901C562.094 222.014 565.62 210.391 565.62 198.5H589Z" fill="white"/>
<rect x="141" y="91" width="243" height="243" fill="#D81B60"/>
<rect x="384" y="334" width="303" height="147" fill="#161616"/>
<path d="M509.084 439H498.586L488.137 395.543L468.605 443.639L449.367 395.689L438.967 439H428.469L446.975 362.242L468.654 416.393L490.627 362.389L509.084 439ZM521.34 386.559H531.252V439H521.34V386.559ZM526.271 380.797C524.579 380.797 523.114 380.195 521.877 378.99C520.673 377.753 520.07 376.288 520.07 374.596C520.07 372.87 520.673 371.389 521.877 370.152C523.114 368.948 524.579 368.346 526.271 368.346C527.997 368.346 529.478 368.948 530.715 370.152C531.919 371.389 532.521 372.87 532.521 374.596C532.521 376.288 531.919 377.753 530.715 378.99C529.478 380.195 527.997 380.797 526.271 380.797ZM563.186 439.684C558.824 439.651 554.868 438.609 551.32 436.559C547.023 434.02 544.061 429.967 542.434 424.4L551.955 421.666C552.867 424.758 554.413 426.923 556.594 428.16C558.514 429.202 560.728 429.739 563.234 429.771C563.527 429.771 563.853 429.755 564.211 429.723C564.602 429.69 565.008 429.641 565.432 429.576C566.441 429.413 567.352 429.137 568.166 428.746C570.314 427.737 571.503 425.995 571.73 423.521C571.796 422.415 571.454 421.422 570.705 420.543C569.305 418.883 566.896 417.955 563.479 417.76C555.699 417.239 550.083 415.253 546.633 411.803C545.233 410.403 544.224 408.792 543.605 406.969C543.15 405.569 542.922 404.088 542.922 402.525C542.922 397.382 544.94 393.232 548.977 390.074C552.525 387.307 556.838 385.924 561.916 385.924C567.906 385.924 572.902 388.056 576.906 392.32C578.827 394.273 580.471 396.91 581.838 400.23L572.609 403.697L571.438 401.451C570.949 400.605 570.38 399.824 569.729 399.107C567.58 396.926 564.943 395.836 561.818 395.836C561.2 395.868 560.679 395.917 560.256 395.982C559.182 396.113 558.156 396.373 557.18 396.764C554.283 397.903 552.834 399.824 552.834 402.525C552.834 404.12 553.957 405.39 556.203 406.334C558.156 407.115 560.809 407.62 564.162 407.848C567.58 408.076 570.575 408.857 573.146 410.191C575.165 411.201 576.857 412.503 578.225 414.098C580.796 417.06 581.919 420.462 581.594 424.303C581.203 429.283 579.087 433.173 575.246 435.973C571.893 438.447 567.889 439.684 563.234 439.684H563.186ZM641.311 423.619C638.674 428.86 635.24 432.831 631.008 435.533C626.646 438.3 621.877 439.684 616.701 439.684C609.312 439.684 602.964 437.063 597.658 431.822C592.417 426.549 589.797 420.201 589.797 412.779C589.797 405.39 592.417 399.059 597.658 393.785C602.964 388.544 609.312 385.924 616.701 385.924C621.877 385.924 626.646 387.307 631.008 390.074C635.24 392.776 638.674 396.731 641.311 401.939L632.229 405.895C630.438 402.509 628.225 399.986 625.588 398.326C622.854 396.666 619.891 395.836 616.701 395.836C612.014 395.836 608.026 397.496 604.738 400.816C601.385 404.104 599.709 408.092 599.709 412.779C599.709 417.467 601.385 421.471 604.738 424.791C608.026 428.111 612.014 429.771 616.701 429.771C619.891 429.771 622.854 428.925 625.588 427.232C628.225 425.605 630.438 423.082 632.229 419.664L641.311 423.619Z" fill="white"/>
<path d="M165.239 220.135L187.613 223.477C188.153 223.558 188.703 223.521 189.227 223.371C189.751 223.22 190.237 222.958 190.651 222.602C191.064 222.247 191.397 221.807 191.626 221.312C191.854 220.817 191.974 220.278 191.976 219.733V199.68C191.974 199.135 191.854 198.596 191.626 198.101C191.397 197.606 191.064 197.166 190.651 196.811C190.237 196.455 189.751 196.193 189.227 196.042C188.703 195.891 188.153 195.855 187.613 195.936L165.239 199.259C164.342 199.395 163.522 199.847 162.928 200.533C162.335 201.22 162.005 202.096 162 203.004V216.353C161.996 217.267 162.322 218.152 162.916 218.847C163.511 219.541 164.335 219.998 165.239 220.135V220.135Z" fill="#171717"/>
<path d="M273.468 308.48L277.1 284.215C277.188 283.628 277.148 283.029 276.983 282.459C276.818 281.889 276.532 281.361 276.144 280.912C275.757 280.462 275.277 280.101 274.738 279.854C274.198 279.607 273.612 279.478 273.019 279.478H251.272C250.679 279.478 250.092 279.606 249.553 279.854C249.014 280.101 248.535 280.462 248.148 280.912C247.762 281.362 247.477 281.89 247.313 282.46C247.149 283.03 247.11 283.629 247.199 284.215L250.822 308.48C250.966 309.459 251.458 310.354 252.208 311C252.957 311.647 253.914 312.002 254.904 312H269.386C270.376 312.002 271.333 311.647 272.083 311C272.832 310.354 273.324 309.459 273.468 308.48V308.48Z" fill="#171717"/>
<path d="M185.741 151.365L200.345 171.099C200.698 171.576 201.149 171.97 201.668 172.256C202.187 172.542 202.761 172.713 203.352 172.756C203.943 172.8 204.537 172.715 205.092 172.508C205.647 172.302 206.152 171.978 206.57 171.558L221.942 156.187C222.361 155.767 222.684 155.263 222.89 154.707C223.096 154.151 223.18 153.557 223.135 152.966C223.091 152.376 222.92 151.801 222.633 151.282C222.346 150.764 221.951 150.313 221.474 149.961L201.758 135.357C200.964 134.772 199.986 134.491 199.002 134.565C198.018 134.639 197.093 135.063 196.394 135.76L186.153 146.001C185.453 146.697 185.026 147.622 184.95 148.607C184.874 149.591 185.155 150.57 185.741 151.365Z" fill="#171717"/>
<path d="M199.203 285.872L217.392 272.41C217.833 272.085 218.198 271.669 218.463 271.19C218.728 270.711 218.886 270.181 218.927 269.635C218.968 269.089 218.89 268.541 218.7 268.028C218.509 267.515 218.21 267.049 217.823 266.662L203.649 252.489C203.264 252.102 202.798 251.803 202.286 251.612C201.774 251.422 201.226 251.344 200.681 251.385C200.136 251.426 199.606 251.584 199.128 251.849C198.65 252.114 198.235 252.479 197.911 252.919L184.449 271.109C183.906 271.841 183.644 272.744 183.711 273.653C183.778 274.562 184.169 275.417 184.814 276.061L194.26 285.498C194.902 286.143 195.754 286.536 196.662 286.604C197.569 286.673 198.471 286.413 199.203 285.872V285.872Z" fill="#171717"/>
<path d="M338.212 271.811L323.608 252.086C323.256 251.609 322.806 251.214 322.287 250.927C321.768 250.64 321.194 250.469 320.603 250.425C320.012 250.38 319.418 250.464 318.863 250.67C318.307 250.876 317.802 251.199 317.383 251.618L302.011 266.99C301.592 267.408 301.268 267.912 301.061 268.468C300.854 269.023 300.77 269.617 300.813 270.208C300.857 270.799 301.027 271.373 301.313 271.892C301.599 272.411 301.994 272.862 302.47 273.215L322.204 287.828C322.998 288.415 323.976 288.698 324.961 288.624C325.946 288.55 326.871 288.125 327.568 287.426L337.81 277.184C338.509 276.485 338.935 275.559 339.009 274.572C339.083 273.586 338.8 272.606 338.212 271.811V271.811Z" fill="#171717"/>
<path d="M339.57 211.682C339.57 226.987 335.032 241.948 326.529 254.673C318.026 267.399 305.94 277.317 291.8 283.174C277.661 289.031 262.102 290.563 247.091 287.577C232.08 284.592 218.292 277.222 207.47 266.399C196.648 255.577 189.278 241.789 186.292 226.778C183.306 211.768 184.838 196.209 190.695 182.069C196.552 167.929 206.47 155.843 219.196 147.341C231.921 138.838 246.883 134.299 262.187 134.299L262.187 165.252C253.005 165.252 244.028 167.975 236.393 173.077C228.757 178.179 222.806 185.43 219.292 193.914C215.778 202.398 214.859 211.733 216.65 220.74C218.442 229.746 222.863 238.019 229.357 244.512C235.85 251.006 244.123 255.428 253.129 257.219C262.136 259.011 271.471 258.091 279.955 254.577C288.439 251.063 295.69 245.112 300.792 237.477C305.894 229.841 308.617 220.865 308.617 211.682H339.57Z" fill="#171717"/>
<path d="M261.569 262.168C289.277 262.168 311.738 239.707 311.738 212C311.738 184.293 289.277 161.831 261.569 161.831C233.862 161.831 211.401 184.293 211.401 212C211.401 239.707 233.862 262.168 261.569 262.168Z" fill="#D81A62"/>
<path d="M252.301 202.835C252.301 208.452 248.135 213.03 243.043 213.03C237.95 213.03 233.784 208.452 233.784 202.835C233.784 197.218 237.95 192.65 243.043 192.65C248.135 192.65 252.301 197.181 252.301 202.835Z" fill="#181818"/>
<path d="M289.373 202.835C289.373 208.452 285.207 213.03 280.115 213.03C275.022 213.03 270.856 208.452 270.856 202.835C270.856 197.218 275.022 192.65 280.115 192.65C285.207 192.65 289.373 197.181 289.373 202.835Z" fill="#181818"/>
<path d="M279.6 222.045C280.074 222.282 280.49 222.62 280.817 223.037C281.145 223.453 281.376 223.937 281.494 224.454C281.612 224.97 281.615 225.507 281.501 226.024C281.387 226.542 281.16 227.027 280.836 227.447C277.699 231.149 273.494 233.791 268.797 235.011C264.11 236.256 259.156 236.04 254.595 234.393C254.101 234.196 253.657 233.892 253.295 233.503C252.932 233.114 252.66 232.65 252.498 232.143C252.336 231.637 252.288 231.101 252.358 230.574C252.427 230.047 252.613 229.541 252.901 229.094V229.094C254.033 227.138 256.552 226.52 258.77 227.091C261.351 227.765 264.064 227.746 266.634 227.035C269.21 226.355 271.569 225.027 273.487 223.178C275.134 221.633 277.596 220.912 279.609 222.045H279.6Z" fill="#181818"/>
</svg>
