<svg width="108" height="108" viewBox="0 0 108 108" fill="none" xmlns="http://www.w3.org/2000/svg">
<path d="M75.7168 34.1107C75.1948 15.0307 60.2638 7.32666 41.0173 7.32666H3.69434V45.8917L27.5623 67.3837V26.4967H41.4403C56.2633 26.4967 56.2633 45.1222 41.4403 45.1222H32.2693V62.9152H41.4403C56.2633 62.9152 56.2633 81.5362 41.4403 81.5362H3.69434V100.702H41.0173C60.2593 100.702 75.1903 92.9977 75.7168 73.9177C75.7168 65.1337 73.3138 58.5727 69.0838 54.0097C73.3138 49.4557 75.7168 42.8947 75.7168 34.1107Z" fill="black"/>
<path d="M68.1749 7.29932H64.0259C65.4659 8.01932 66.8204 8.82032 68.0759 9.69332C71.8964 12.3438 74.8889 15.7143 76.9679 19.7013C79.1189 23.8368 80.2889 28.6428 80.4374 33.9888V34.0518V34.1193C80.4374 41.7378 80.4374 66.3078 80.4374 73.9218V73.9848V74.0523C80.2934 79.3983 79.1279 84.2043 76.9679 88.3398C74.8889 92.3223 71.9009 95.6928 68.0759 98.3433C66.8564 99.1938 65.5469 99.9723 64.1564 100.674H68.0714C86.7689 100.773 104.305 91.4268 104.305 70.0068V38.7003C104.409 16.8573 86.8679 7.29932 68.1749 7.29932Z" fill="black"/>
</svg>
