<svg width="108" height="108" viewBox="0 0 108 108" fill="none" xmlns="http://www.w3.org/2000/svg">
<path d="M53.955 9C29.115 9 9 29.16 9 54C9 78.84 29.115 99 53.955 99C78.84 99 99 78.84 99 54C99 29.16 78.84 9 53.955 9ZM54 90C34.11 90 18 73.89 18 54C18 34.11 34.11 18 54 18C73.89 18 90 34.11 90 54C90 73.89 73.89 90 54 90ZM69.75 49.5C73.485 49.5 76.5 46.485 76.5 42.75C76.5 39.015 73.485 36 69.75 36C66.015 36 63 39.015 63 42.75C63 46.485 66.015 49.5 69.75 49.5ZM38.25 49.5C41.985 49.5 45 46.485 45 42.75C45 39.015 41.985 36 38.25 36C34.515 36 31.5 39.015 31.5 42.75C31.5 46.485 34.515 49.5 38.25 49.5ZM54 78.75C64.485 78.75 73.395 72.18 76.995 63H31.005C34.605 72.18 43.515 78.75 54 78.75Z" fill="black"/>
</svg>
