<svg width="108" height="108" viewBox="0 0 108 108" fill="none" xmlns="http://www.w3.org/2000/svg">
<path fill-rule="evenodd" clip-rule="evenodd" d="M54 0C24.165 0 0 24.165 0 54C0 77.895 15.4575 98.0775 36.9225 105.232C39.6225 105.705 40.635 104.085 40.635 102.667C40.635 101.385 40.5675 97.1325 40.5675 92.61C27 95.1075 23.49 89.3025 22.41 86.265C21.8025 84.7125 19.17 79.92 16.875 78.6375C14.985 77.625 12.285 75.1275 16.8075 75.06C21.06 74.9925 24.0975 78.975 25.11 80.595C29.97 88.7625 37.7325 86.4675 40.8375 85.05C41.31 81.54 42.7275 79.1775 44.28 77.8275C32.265 76.4775 19.71 71.82 19.71 51.165C19.71 45.2925 21.8025 40.4325 25.245 36.6525C24.705 35.3025 22.815 29.7675 25.785 22.3425C25.785 22.3425 30.3075 20.925 40.635 27.8775C44.955 26.6625 49.545 26.055 54.135 26.055C58.725 26.055 63.315 26.6625 67.635 27.8775C77.9625 20.8575 82.485 22.3425 82.485 22.3425C85.455 29.7675 83.565 35.3025 83.025 36.6525C86.4675 40.4325 88.56 45.225 88.56 51.165C88.56 71.8875 75.9375 76.4775 63.9225 77.8275C65.88 79.515 67.5675 82.755 67.5675 87.8175C67.5675 95.04 67.5 100.845 67.5 102.667C67.5 104.085 68.5125 105.772 71.2125 105.232C93.195 97.812 107.995 77.202 108 54C108 24.165 83.835 0 54 0Z" fill="black"/>
</svg>
