<svg width="1000" height="1000" viewBox="0 0 1000 1000" fill="none" xmlns="http://www.w3.org/2000/svg">
<path d="M105.417 818.75L161.25 842.083V465.833L60.0002 710C42.9169 752.5 63.3336 801.25 105.417 818.75V818.75ZM917.917 664.583L711.25 165.833C698.334 134.583 667.917 115.417 635.834 114.583C625 114.583 613.75 116.25 602.917 120.833L295.834 247.917C264.584 260.833 245.417 290.833 244.584 322.917C244.167 334.167 246.25 345.417 250.834 356.25L457.5 855C470.417 886.667 501.25 905.833 533.75 906.25C544.584 906.25 555.417 904.167 565.834 900L872.5 772.917C915 755.417 935.417 706.667 917.917 664.583V664.583ZM328.334 364.583C305.417 364.583 286.667 345.833 286.667 322.917C286.667 300 305.417 281.25 328.334 281.25C351.25 281.25 370 300 370 322.917C370 345.833 351.25 364.583 328.334 364.583V364.583ZM245 822.917C245 868.75 282.5 906.25 328.334 906.25H388.75L245 558.75V822.917Z" fill="black"/>
</svg>
