<svg width="1000" height="1000" viewBox="0 0 1000 1000" fill="none" xmlns="http://www.w3.org/2000/svg">
<path d="M208.333 83.3332C208.333 60.4165 189.583 41.6665 166.667 41.6665C143.75 41.6665 125 60.4165 125 83.3332V250H41.6667V500H291.667V250H208.333V83.3332ZM375 666.666C375 720.833 410 766.666 458.333 784.166V958.333H541.667V784.166C590 767.083 625 721.25 625 666.666V583.333H375V666.666ZM41.6667 666.666C41.6667 720.833 76.6667 766.666 125 784.166V958.333H208.333V784.166C256.667 766.666 291.667 720.833 291.667 666.666V583.333H41.6667V666.666ZM875 250V83.3332C875 60.4165 856.25 41.6665 833.333 41.6665C810.417 41.6665 791.667 60.4165 791.667 83.3332V250H708.333V500H958.333V250H875ZM541.667 83.3332C541.667 60.4165 522.917 41.6665 500 41.6665C477.083 41.6665 458.333 60.4165 458.333 83.3332V250H375V500H625V250H541.667V83.3332ZM708.333 666.666C708.333 720.833 743.333 766.666 791.667 784.166V958.333H875V784.166C923.333 767.083 958.333 721.25 958.333 666.666V583.333H708.333V666.666Z" fill="black"/>
</svg>
