<svg width="1000" height="1000" viewBox="0 0 1000 1000" fill="none" xmlns="http://www.w3.org/2000/svg">
<path d="M241.667 208.333H758.334C825 208.333 879.167 258.333 883.334 325L912.5 708.333C916.667 750 883.334 787.5 841.667 791.667H837.5C787.5 791.667 745.834 758.333 733.334 712.5L708.334 625H291.667L270.834 712.5C258.334 758.333 216.667 791.667 166.667 791.667C125 791.667 87.5002 758.333 87.5002 712.5V708.333L116.667 325C120.834 258.333 175 208.333 241.667 208.333ZM604.167 416.667C637.5 416.667 666.667 387.5 666.667 354.167C666.667 320.833 637.5 291.667 604.167 291.667C570.834 291.667 541.667 320.833 541.667 354.167C541.667 387.5 570.834 416.667 604.167 416.667ZM770.834 541.667C804.167 541.667 833.334 512.5 833.334 479.167C833.334 445.833 804.167 416.667 770.834 416.667C737.5 416.667 708.334 445.833 708.334 479.167C708.334 512.5 737.5 541.667 770.834 541.667ZM250 375H166.667V458.333H250V541.667H333.334V458.333H416.667V375H333.334V291.667H250V375Z" fill="black"/>
</svg>
