<svg width="1000" height="1000" viewBox="0 0 1000 1000" fill="none" xmlns="http://www.w3.org/2000/svg">
<path d="M822.222 416.667H916.667V583.334H822.222C811.111 622.222 794.444 655.556 772.222 688.889L833.333 750L750 833.334L688.889 772.222C655.556 794.445 622.222 811.111 583.333 822.222V916.667H416.667V822.222C377.778 811.111 344.444 794.445 311.111 772.222L250 833.334L166.667 750L227.778 688.889C205.556 655.556 188.889 622.222 177.778 583.334H83.3333V416.667H177.778C188.889 377.778 205.556 344.445 227.778 311.111L166.667 250L250 166.667L311.111 227.778C344.444 205.556 377.778 188.889 416.667 177.778V83.3335H583.333V177.778C622.222 188.889 655.556 205.556 688.889 227.778L750 166.667L833.333 250L772.222 311.111C794.444 344.445 811.111 377.778 822.222 416.667ZM500 666.667C594.444 666.667 666.667 594.445 666.667 500C666.667 405.556 594.444 333.334 500 333.334C405.556 333.334 333.333 405.556 333.333 500C333.333 594.445 405.556 666.667 500 666.667Z" fill="black"/>
</svg>
