<svg width="1000" height="1000" viewBox="0 0 1000 1000" fill="none" xmlns="http://www.w3.org/2000/svg">
<g clip-path="url(#clip0_135_350)">
<path d="M975.917 283.755L582.458 542.047C575.667 546.422 570.208 552.547 566.583 559.755L506.625 680.047C504.833 684.089 500.792 686.755 496.333 686.755C491.917 686.755 487.875 684.089 486.083 680.047L426.125 559.755C422.5 552.547 417 546.422 410.25 542.047L16.7918 283.755C12.6668 278.88 5.37512 278.255 0.458451 282.38C-4.41655 286.464 -5.04155 293.797 -0.916549 298.672L163.5 618.505C165.125 621.88 165 625.839 163.25 629.172C161.458 632.464 158.208 634.755 154.458 635.255H55.6251C50.6251 635.214 46.1668 638.422 44.6251 643.172C43.0418 647.964 44.7501 653.172 48.7918 656.089L489.5 971.881C493.625 974.672 499.083 974.672 503.208 971.881L943.917 656.089C947.958 653.172 949.667 647.964 948.083 643.172C946.542 638.422 942.083 635.214 937.042 635.255H838.208C834.292 635.13 830.667 633.005 828.583 629.63C826.542 626.255 826.292 622.089 827.958 618.505L993.625 298.672C997.75 293.797 997.125 286.464 992.208 282.38C987.333 278.255 980.042 278.88 975.917 283.755Z" fill="black"/>
<path d="M505.042 46.9202L545.458 129.295C546.917 132.045 549.542 134.004 552.625 134.587L643.667 147.629C647.292 148.17 650.333 150.712 651.458 154.212C652.583 157.712 651.583 161.545 648.958 164.087L583.083 228.129C580.917 230.379 579.875 233.462 580.25 236.504L595.792 326.962C596.5 330.504 595.083 334.17 592.125 336.295C589.208 338.42 585.292 338.67 582.125 336.92L500.708 294.337C498 292.754 494.708 292.754 492 294.337L410.583 336.92C407.417 338.67 403.5 338.42 400.542 336.295C397.625 334.17 396.208 330.504 396.875 326.962L412.417 236.504C412.833 233.462 411.792 230.379 409.625 228.129L343.75 164.087C341.083 161.545 340.125 157.712 341.25 154.212C342.375 150.712 345.375 148.17 349.042 147.629L440.083 134.879C443.167 134.295 445.792 132.379 447.25 129.587L487.667 47.2535C489.167 43.8369 492.542 41.6702 496.25 41.5869C499.958 41.5035 503.417 43.5869 505.042 46.9202Z" fill="black"/>
</g>
<defs>
<clipPath id="clip0_135_350">
<rect width="1000" height="1000" fill="white"/>
</clipPath>
</defs>
</svg>
