<svg width="1000" height="1000" viewBox="0 0 1000 1000" fill="none" xmlns="http://www.w3.org/2000/svg">
<path d="M833.333 208.333H166.667C120.833 208.333 83.75 245.833 83.75 291.667L83.3334 708.333C83.3334 754.167 120.833 791.667 166.667 791.667H833.333C879.167 791.667 916.667 754.167 916.667 708.333V291.667C916.667 245.833 879.167 208.333 833.333 208.333ZM458.333 333.333H541.667V416.667H458.333V333.333ZM458.333 458.333H541.667V541.667H458.333V458.333ZM333.333 333.333H416.667V416.667H333.333V333.333ZM333.333 458.333H416.667V541.667H333.333V458.333ZM291.667 541.667H208.333V458.333H291.667V541.667ZM291.667 416.667H208.333V333.333H291.667V416.667ZM666.667 708.333H333.333V625H666.667V708.333ZM666.667 541.667H583.333V458.333H666.667V541.667ZM666.667 416.667H583.333V333.333H666.667V416.667ZM791.667 541.667H708.333V458.333H791.667V541.667ZM791.667 416.667H708.333V333.333H791.667V416.667Z" fill="black"/>
</svg>
