<svg width="1000" height="1000" viewBox="0 0 1000 1000" fill="none" xmlns="http://www.w3.org/2000/svg">
<path d="M499.583 83.3333C269.583 83.3333 83.3333 270 83.3333 500C83.3333 730 269.583 916.667 499.583 916.667C730 916.667 916.667 730 916.667 500C916.667 270 730 83.3333 499.583 83.3333ZM788.333 333.333H665.417C652.083 281.25 632.917 231.25 607.917 185C684.583 211.25 748.333 264.583 788.333 333.333ZM500 168.333C534.583 218.333 561.667 273.75 579.583 333.333H420.417C438.333 273.75 465.417 218.333 500 168.333ZM177.5 583.333C170.833 556.667 166.667 528.75 166.667 500C166.667 471.25 170.833 443.333 177.5 416.667H318.333C315 444.167 312.5 471.667 312.5 500C312.5 528.333 315 555.833 318.333 583.333H177.5ZM211.667 666.667H334.583C347.917 718.75 367.083 768.75 392.083 815C315.417 788.75 251.667 735.833 211.667 666.667V666.667ZM334.583 333.333H211.667C251.667 264.167 315.417 211.25 392.083 185C367.083 231.25 347.917 281.25 334.583 333.333V333.333ZM500 831.667C465.417 781.667 438.333 726.25 420.417 666.667H579.583C561.667 726.25 534.583 781.667 500 831.667ZM597.5 583.333H402.5C398.75 555.833 395.833 528.333 395.833 500C395.833 471.667 398.75 443.75 402.5 416.667H597.5C601.25 443.75 604.167 471.667 604.167 500C604.167 528.333 601.25 555.833 597.5 583.333ZM607.917 815C632.917 768.75 652.083 718.75 665.417 666.667H788.333C748.333 735.417 684.583 788.75 607.917 815V815ZM681.667 583.333C685 555.833 687.5 528.333 687.5 500C687.5 471.667 685 444.167 681.667 416.667H822.5C829.167 443.333 833.333 471.25 833.333 500C833.333 528.75 829.167 556.667 822.5 583.333H681.667Z" fill="black"/>
</svg>
