<svg width="1000" height="1000" viewBox="0 0 1000 1000" fill="none" xmlns="http://www.w3.org/2000/svg">
<path fill-rule="evenodd" clip-rule="evenodd" d="M105.227 370.044C105.227 351.836 89.7269 336.669 71.1852 336.669H52.6019C34.0186 336.669 18.5186 351.836 18.5186 370.044C18.5186 388.252 34.0186 403.461 52.6019 403.461H71.1852C89.7269 403.461 105.227 388.252 105.227 370.044Z" fill="black"/>
<path fill-rule="evenodd" clip-rule="evenodd" d="M709.103 391.297L771.019 494.506C774.144 500.589 774.144 503.631 771.019 509.714L709.103 612.922C705.978 618.964 699.811 618.964 696.686 618.964H575.936C569.728 618.964 566.644 615.964 563.561 612.922L501.603 509.714C498.519 503.631 498.519 500.589 501.603 494.506L563.561 391.297C566.644 385.256 572.853 385.256 575.936 385.256H696.686C702.894 382.214 705.978 385.256 709.103 391.297Z" fill="black"/>
<path fill-rule="evenodd" clip-rule="evenodd" d="M944.435 360.958C888.727 242.583 771.018 172.75 647.185 166.667H297.227C266.268 166.667 244.602 190.958 244.602 218.292C244.602 248.625 269.352 269.875 297.227 269.875H387.018C405.602 269.875 421.102 285.083 421.102 303.291C421.102 321.5 405.602 336.666 387.018 336.666H167.185C148.602 336.666 133.102 351.833 133.102 370.083C133.102 388.291 148.602 403.458 167.185 403.458H325.102C343.685 403.458 359.185 418.625 359.185 436.833C359.185 455.083 343.685 470.25 325.102 470.25H226.018C207.435 470.25 191.935 485.416 191.935 503.625C191.935 521.833 207.435 537.041 226.018 537.041H294.143C297.227 573.458 306.518 609.875 322.018 643.25C399.435 810.208 603.81 883.083 774.143 807.208C950.643 728.25 1024.98 527.916 944.435 360.958ZM553.143 327.5C651.06 283.458 766.893 325.542 811.852 421.5C856.81 517.5 813.893 631.041 715.977 675.125C618.06 719.208 502.227 677.125 457.227 581.125C412.268 485.125 455.227 371.583 553.143 327.5Z" fill="black"/>
</svg>
