<svg width="1000" height="1000" viewBox="0 0 1000 1000" fill="none" xmlns="http://www.w3.org/2000/svg">
<path fill-rule="evenodd" clip-rule="evenodd" d="M165.357 893.518H101.852V882.374C141.544 805.989 193.345 737.178 233.367 689.581C280.673 622.351 294.611 568.146 299.473 499.371C300.117 484.046 298.782 463.76 297.249 440.443L297.249 440.44V440.436V440.434V440.432V440.432C289.372 320.672 276.239 120.991 498.741 103.081C509.256 102.238 519.349 101.835 529.021 101.852C757.445 102.172 754.198 333.321 752.259 471.391C752.179 477.111 752.101 482.671 752.042 488.049C751.093 574.897 798.16 634.238 847.203 696.07L850.131 699.762C863.684 715.778 878.507 734.033 893.518 754.167V893.518H860.26C837.486 837.787 800.584 790.637 771.052 764.5C764.188 764.219 764.855 770.222 778.67 783.634C797.353 800.821 828.129 842.307 845.649 893.518H772.448C762.333 870.617 752.673 852.02 745.687 839.069C711.789 776.07 659.058 646.963 636.379 557.58C623.18 576.398 599.992 592.547 570.801 601.674L570.791 601.675L570.772 601.677C570.764 601.68 570.756 601.684 570.748 601.692C561.697 604.636 552.324 610.608 541.806 617.309C536.27 620.837 530.415 624.567 524.124 628.163C507.343 637.765 487.191 646.191 461.352 646.191C459.053 646.191 456.701 646.12 454.296 645.98C429.229 644.523 412.641 635.307 399.353 624.635C394.586 620.802 390.209 616.83 385.925 612.942L385.919 612.938C378.296 606.02 370.964 599.367 362.245 594.232H362.241L362.233 594.231L362.229 594.231L362.222 594.226L362.21 594.214C357.558 591.564 347.113 584.507 344.059 582.295C339.161 674.684 287.114 786.624 249.267 868.021L249.263 868.029L249.184 868.197L249.166 868.236C245.072 877.043 241.144 885.492 237.461 893.518H176.46C182.892 877.15 189.779 863.008 195.521 852.129C223.466 800.241 227.819 785.987 221.044 790.972C204.972 817.184 183.092 853.315 165.357 893.518ZM626.742 453.767C633.465 438.372 636.52 423.294 636.379 405.582C636.256 405.126 636.256 404.74 636.258 404.283C635.923 387.028 632.623 372.476 625.777 357.591C618.79 342.319 610.119 331.401 598.095 322.659C586.246 314.075 574.713 310.108 561.232 310.108H560.583C546.805 310.249 535.165 314.374 523.317 323.361C511.487 332.366 503.079 343.425 496.286 358.819C489.492 374.196 486.596 389.345 486.789 407.004V408.356C486.895 413.341 487.246 418.098 487.86 422.715C498.533 425.26 513.983 429.65 526.06 435.671C525.235 430.896 524.884 425.981 525.007 420.61C525.007 420.224 525.007 419.89 525.058 419.504C525.393 409.744 527.078 401.529 530.501 393.244C533.94 384.959 538.065 379.008 543.63 374.356C548.933 369.933 554.058 367.897 559.956 367.879C560.255 367.879 560.535 367.879 560.834 367.897C567.118 368.107 572.349 370.424 577.598 375.532C582.827 380.64 586.445 386.784 589.288 395.333C592.009 403.478 593.238 411.429 593.045 420.733C593.045 420.97 593.011 421.175 592.98 421.37L592.979 421.371C592.95 421.551 592.922 421.724 592.922 421.909C592.606 431.616 590.921 439.761 587.48 448.099C585.934 451.871 582.608 455.121 579.669 457.993L579.669 457.993C578.3 459.33 577.016 460.585 576.034 461.773L577.109 462.143L578.726 462.698C582.096 463.852 585.555 465.037 589.741 466.616C595.04 468.617 600.956 470.969 607.644 473.831C609.577 474.62 611.435 475.445 613.228 476.306C618.511 469.916 622.915 462.544 626.742 453.767ZM432.618 423.223C430.845 423.732 429.124 424.276 427.422 424.856C417.767 428.191 410.102 431.872 402.694 436.769C403.414 431.643 403.519 426.448 402.958 420.637C402.905 420.321 402.905 420.058 402.905 419.742C402.133 412.036 400.5 405.576 397.779 399.046C394.883 392.253 391.635 387.461 387.37 383.775C383.508 380.44 379.857 378.895 375.82 378.93C375.416 378.93 374.995 378.948 374.573 378.983C370.045 379.369 366.288 381.581 362.725 385.916C359.179 390.235 356.844 395.606 355.159 402.733C353.474 409.842 353.035 416.828 353.737 424.85C353.737 425.008 353.755 425.153 353.772 425.297L353.772 425.298C353.79 425.443 353.808 425.588 353.808 425.745C354.58 433.522 356.142 439.981 358.916 446.511C361.759 453.234 365.059 458.027 369.325 461.713C370.045 462.327 370.747 462.889 371.449 463.38C369.992 464.508 368.693 465.527 367.475 466.482C364.994 468.428 362.851 470.11 360.402 471.899C358.068 473.602 355.294 475.638 352.064 478.026C345.025 471.425 339.531 463.14 334.721 452.204C329.034 439.285 325.997 426.348 325.084 411.076V410.953C324.242 395.682 325.734 382.552 329.929 368.965C334.142 355.379 339.759 345.549 347.922 337.474C356.066 329.382 364.282 325.309 374.182 324.8C374.954 324.765 375.709 324.748 376.464 324.748C385.434 324.765 393.438 327.749 401.723 334.367C410.711 341.546 417.504 350.727 423.191 363.664C428.896 376.601 431.933 389.538 432.776 404.81V404.932C433.179 411.34 433.127 417.378 432.618 423.223ZM633.325 508.552C628.708 499.512 619.282 490.91 603.238 484.328L603.203 484.31L603.15 484.293C589.421 478.414 578.889 474.782 569.95 471.699C557.163 467.288 547.636 464.003 536.675 456.874C506.359 437.39 481.311 430.561 460.492 430.649C449.591 430.684 439.849 432.615 431.125 435.634C408.478 443.423 392.632 458.768 381.988 469.077L381.987 469.077C380.71 470.314 379.507 471.479 378.376 472.549L378.359 472.567C378.359 472.576 378.354 472.58 378.35 472.585C378.346 472.589 378.341 472.593 378.341 472.602C376.772 474.091 374.86 475.48 371.217 478.126L371.217 478.127L371.213 478.13C370.048 478.976 368.706 479.951 367.142 481.098C360.63 485.855 350.87 493.017 336.827 503.549C324.346 512.905 320.292 525.087 324.61 539.358C328.91 553.629 342.672 570.095 367.844 584.331L367.879 584.366L367.932 584.383C378.247 590.445 386.404 597.899 394.283 605.099L394.284 605.1C398.338 608.804 402.317 612.441 406.48 615.787C412.606 620.702 419.048 625.09 426.807 628.408C434.565 631.725 443.623 633.972 454.963 634.639C481.574 636.184 501.164 628.197 518.454 618.297C524.139 615.054 529.539 611.573 534.823 608.166C545.642 601.191 555.977 594.528 567.288 590.861L567.323 590.843L567.36 590.825C601.869 580.048 626.48 558.334 634.185 537.708C638.046 527.387 637.924 517.592 633.325 508.552ZM545.767 559.491L543.003 560.933C516.169 574.941 485.104 591.158 452.119 591.158C418.012 591.158 391.067 575.394 371.688 560.035C363.344 553.429 356.354 546.85 350.784 541.607L350.784 541.607L350.781 541.604L350.777 541.6L350.735 541.561C349.855 540.733 349.01 539.938 348.201 539.181C337.907 531.056 339.141 519.659 343.37 519.995C347.846 520.554 349.923 524.482 351.97 528.352C353.165 530.611 354.35 532.851 355.995 534.389C356.775 535.119 357.58 535.876 358.41 536.658C364.014 541.931 370.782 548.3 378.762 554.629C397.088 569.145 421.523 583.276 452.119 583.276C482.662 583.276 518.316 565.345 540.08 553.137C549.69 547.746 561.341 539.025 572.076 530.99L572.077 530.989C575.115 528.715 578.079 526.496 580.903 524.423C585.057 521.374 587.385 518.061 589.306 515.328C591.915 511.616 593.772 508.974 598.431 509.517C606.519 510.459 600.536 519.101 589.208 528.986C577.881 538.872 560.161 551.988 545.767 559.491ZM483.841 463.276C481.098 462.688 478.387 462.107 477.653 459.752C477.283 458.563 478.471 457.144 479.559 456.539C484.309 453.897 490.797 454.899 495.861 456.873C499.796 458.407 505.911 461.069 505.362 465.256C504.946 468.426 499.973 469.625 496.777 469.533C494.644 469.471 492.898 468.084 491.141 466.689L491.141 466.689C490.14 465.894 489.137 465.097 488.056 464.54C486.855 463.922 485.343 463.598 483.841 463.276ZM442.96 459.752C442.227 462.107 439.515 462.688 436.772 463.276C435.27 463.598 433.758 463.922 432.557 464.54C431.477 465.097 430.473 465.894 429.472 466.689C427.716 468.084 425.969 469.471 423.836 469.533C420.641 469.625 415.667 468.426 415.252 465.256C414.703 461.069 420.818 458.407 424.753 456.873C429.816 454.899 436.304 453.897 441.054 456.539C442.143 457.144 443.331 458.563 442.96 459.752Z" fill="black"/>
</svg>
