<svg width="1000" height="1000" viewBox="0 0 1000 1000" fill="none" xmlns="http://www.w3.org/2000/svg">
<path d="M500 583.334C569.167 583.334 624.583 527.5 624.583 458.334L625 208.333C625 139.167 569.167 83.3335 500 83.3335C430.833 83.3335 375 139.167 375 208.333V458.334C375 527.5 430.833 583.334 500 583.334ZM720.833 458.334C720.833 583.334 615 670.834 500 670.834C385 670.834 279.167 583.334 279.167 458.334H208.333C208.333 600.417 321.667 717.917 458.333 738.333V875H541.667V738.333C678.333 718.333 791.667 600.834 791.667 458.334H720.833Z" fill="black"/>
</svg>
