<svg width="108" height="108" viewBox="0 0 108 108" fill="none" xmlns="http://www.w3.org/2000/svg">
<path d="M88.8 45H99V63H88.8C87.6 67.2 85.8 70.8 83.4 74.4L90 81L81 90L74.4 83.4C70.8 85.8 67.2 87.6 63 88.8V99H45V88.8C40.8 87.6 37.2 85.8 33.6 83.4L27 90L18 81L24.6 74.4C22.2 70.8 20.4 67.2 19.2 63H9V45H19.2C20.4 40.8 22.2 37.2 24.6 33.6L18 27L27 18L33.6 24.6C37.2 22.2 40.8 20.4 45 19.2V9H63V19.2C67.2 20.4 70.8 22.2 74.4 24.6L81 18L90 27L83.4 33.6C85.8 37.2 87.6 40.8 88.8 45ZM54 72C64.2 72 72 64.2 72 54C72 43.8 64.2 36 54 36C43.8 36 36 43.8 36 54C36 64.2 43.8 72 54 72Z" fill="black"/>
</svg>
