<svg width="108" height="108" viewBox="0 0 108 108" fill="none" xmlns="http://www.w3.org/2000/svg">
<path d="M90 22.5H18C13.05 22.5 9.045 26.55 9.045 31.5L9 76.5C9 81.45 13.05 85.5 18 85.5H90C94.95 85.5 99 81.45 99 76.5V31.5C99 26.55 94.95 22.5 90 22.5ZM49.5 36H58.5V45H49.5V36ZM49.5 49.5H58.5V58.5H49.5V49.5ZM36 36H45V45H36V36ZM36 49.5H45V58.5H36V49.5ZM31.5 58.5H22.5V49.5H31.5V58.5ZM31.5 45H22.5V36H31.5V45ZM72 76.5H36V67.5H72V76.5ZM72 58.5H63V49.5H72V58.5ZM72 45H63V36H72V45ZM85.5 58.5H76.5V49.5H85.5V58.5ZM85.5 45H76.5V36H85.5V45Z" fill="black"/>
</svg>
