<svg width="108" height="108" viewBox="0 0 108 108" fill="none" xmlns="http://www.w3.org/2000/svg">
<path d="M26.1 22.5H81.9C89.1 22.5 94.95 27.9 95.4 35.1L98.5499 76.5C98.9999 81 95.4 85.05 90.9 85.5H90.45C85.05 85.5 80.55 81.9 79.2 76.95L76.4999 67.5H31.5L29.25 76.95C27.9 81.9 23.4 85.5 18 85.5C13.5 85.5 9.44995 81.9 9.44995 76.95V76.5L12.6 35.1C13.05 27.9 18.9 22.5 26.1 22.5ZM65.2499 45C68.8499 45 71.9999 41.85 71.9999 38.25C71.9999 34.65 68.8499 31.5 65.2499 31.5C61.6499 31.5 58.4999 34.65 58.4999 38.25C58.4999 41.85 61.6499 45 65.2499 45ZM83.2499 58.5C86.8499 58.5 89.9999 55.35 89.9999 51.75C89.9999 48.15 86.8499 45 83.2499 45C79.6499 45 76.4999 48.15 76.4999 51.75C76.4999 55.35 79.6499 58.5 83.2499 58.5ZM27 40.5H18V49.5H27V58.5H36V49.5H45V40.5H36V31.5H27V40.5Z" fill="black"/>
</svg>
