<svg width="108" height="108" viewBox="0 0 108 108" fill="none" xmlns="http://www.w3.org/2000/svg">
<path d="M11.3851 88.425L17.4151 90.945V50.31L6.48008 76.68C4.63508 81.27 6.84008 86.535 11.3851 88.425V88.425ZM99.1351 71.775L76.8151 17.91C75.4201 14.535 72.1351 12.465 68.6701 12.375C67.5001 12.375 66.2851 12.555 65.1151 13.05L31.9501 26.775C28.5751 28.17 26.5051 31.41 26.4151 34.875C26.3701 36.09 26.5951 37.305 27.0901 38.475L49.4101 92.34C50.8051 95.76 54.1351 97.83 57.6451 97.875C58.8151 97.875 59.9851 97.65 61.1101 97.2L94.2301 83.475C98.8201 81.585 101.025 76.32 99.1351 71.775V71.775ZM35.4601 39.375C32.9851 39.375 30.9601 37.35 30.9601 34.875C30.9601 32.4 32.9851 30.375 35.4601 30.375C37.9351 30.375 39.9601 32.4 39.9601 34.875C39.9601 37.35 37.9351 39.375 35.4601 39.375V39.375ZM26.4601 88.875C26.4601 93.825 30.5101 97.875 35.4601 97.875H41.9851L26.4601 60.345V88.875Z" fill="black"/>
</svg>
