<svg width="108" height="108" viewBox="0 0 108 108" fill="none" xmlns="http://www.w3.org/2000/svg">
<path d="M53.955 9C29.115 9 9 29.16 9 54C9 78.84 29.115 99 53.955 99C78.84 99 99 78.84 99 54C99 29.16 78.84 9 53.955 9ZM85.14 36H71.865C70.425 30.375 68.355 24.975 65.655 19.98C73.935 22.815 80.82 28.575 85.14 36ZM54 18.18C57.735 23.58 60.66 29.565 62.595 36H45.405C47.34 29.565 50.265 23.58 54 18.18ZM19.17 63C18.45 60.12 18 57.105 18 54C18 50.895 18.45 47.88 19.17 45H34.38C34.02 47.97 33.75 50.94 33.75 54C33.75 57.06 34.02 60.03 34.38 63H19.17ZM22.86 72H36.135C37.575 77.625 39.645 83.025 42.345 88.02C34.065 85.185 27.18 79.47 22.86 72V72ZM36.135 36H22.86C27.18 28.53 34.065 22.815 42.345 19.98C39.645 24.975 37.575 30.375 36.135 36V36ZM54 89.82C50.265 84.42 47.34 78.435 45.405 72H62.595C60.66 78.435 57.735 84.42 54 89.82ZM64.53 63H43.47C43.065 60.03 42.75 57.06 42.75 54C42.75 50.94 43.065 47.925 43.47 45H64.53C64.935 47.925 65.25 50.94 65.25 54C65.25 57.06 64.935 60.03 64.53 63ZM65.655 88.02C68.355 83.025 70.425 77.625 71.865 72H85.14C80.82 79.425 73.935 85.185 65.655 88.02V88.02ZM73.62 63C73.98 60.03 74.25 57.06 74.25 54C74.25 50.94 73.98 47.97 73.62 45H88.83C89.55 47.88 90 50.895 90 54C90 57.105 89.55 60.12 88.83 63H73.62Z" fill="black"/>
</svg>
