<svg width="108" height="108" viewBox="0 0 108 108" fill="none" xmlns="http://www.w3.org/2000/svg">
<path fill-rule="evenodd" clip-rule="evenodd" d="M17.8586 96.5H11V95.2964C15.2868 87.0468 20.8812 79.6152 25.2036 74.4748C30.3127 67.2139 31.818 61.3597 32.3431 53.932C32.4126 52.277 32.2685 50.086 32.1029 47.5678L32.1028 47.5675V47.5671V47.5669V47.5666V47.5666C31.2522 34.6326 29.8339 13.067 53.8641 11.1328C54.9997 11.0418 56.0897 10.9982 57.1343 11.0001C81.804 11.0346 81.4534 35.9986 81.244 50.9103C81.2353 51.528 81.2269 52.1285 81.2205 52.7092C81.1181 62.0889 86.2013 68.4977 91.498 75.1756L91.8141 75.5743C93.2779 77.304 94.8787 79.2756 96.5 81.4501V96.5H92.9081C90.4485 90.481 86.4631 85.3888 83.2736 82.566C82.5324 82.5357 82.6044 83.184 84.0964 84.6324C86.1141 86.4886 89.438 90.9692 91.3301 96.5H83.4243C82.332 94.0266 81.2887 92.0182 80.5342 90.6195C76.8732 83.8155 71.1783 69.872 68.7289 60.2187C67.3035 62.2509 64.7992 63.9951 61.6465 64.9809L61.6454 64.9809L61.6434 64.9811C61.6425 64.9814 61.6416 64.9819 61.6408 64.9827C60.6633 65.3007 59.651 65.9457 58.5151 66.6694C57.9171 67.0504 57.2848 67.4532 56.6054 67.8416C54.793 68.8786 52.6166 69.7886 49.826 69.7886C49.5777 69.7886 49.3237 69.781 49.0639 69.7658C46.3568 69.6085 44.5652 68.6132 43.1301 67.4606C42.6153 67.0466 42.1426 66.6177 41.6799 66.1978L41.6793 66.1973C40.856 65.4502 40.0641 64.7317 39.1224 64.177H39.1221L39.1211 64.177L39.1207 64.1769L39.12 64.1764L39.1186 64.1751C38.6163 63.8889 37.4883 63.1268 37.1584 62.8879C36.6294 72.8659 31.0083 84.9553 26.9208 93.7462L26.9204 93.7471L26.9119 93.7653L26.91 93.7695C26.4677 94.7207 26.0435 95.6331 25.6458 96.5H19.0577C19.7524 94.7323 20.4962 93.2049 21.1163 92.03C24.1343 86.426 24.6045 84.8866 23.8727 85.425C22.137 88.2559 19.7739 92.158 17.8586 96.5ZM67.6882 49.0068C68.4142 47.3442 68.7441 45.7157 68.729 43.8029C68.7157 43.7536 68.7157 43.7119 68.7159 43.6626C68.6797 41.799 68.3232 40.2274 67.5839 38.6198C66.8294 36.9705 65.8929 35.7913 64.5942 34.8472C63.3146 33.9201 62.069 33.4917 60.6131 33.4917H60.5429C59.0549 33.5069 57.7978 33.9524 56.5182 34.923C55.2406 35.8956 54.3325 37.0899 53.5989 38.7525C52.8652 40.4132 52.5524 42.0493 52.5732 43.9564V44.1024C52.5846 44.6408 52.6225 45.1546 52.6889 45.6532C53.8415 45.9281 55.5102 46.4022 56.8145 47.0525C56.7254 46.5368 56.6875 46.006 56.7008 45.4259C56.7008 45.3842 56.7008 45.3481 56.7063 45.3064C56.7425 44.2524 56.9245 43.3652 57.2941 42.4703C57.6655 41.5755 58.111 40.9329 58.712 40.4305C59.2847 39.9527 59.8383 39.7328 60.4753 39.7309C60.5075 39.7309 60.5378 39.7309 60.5701 39.7328C61.2488 39.7556 61.8137 40.0058 62.3805 40.5575C62.9453 41.1092 63.336 41.7727 63.6431 42.6959C63.937 43.5756 64.0697 44.4344 64.0488 45.4391C64.0488 45.4648 64.0452 45.4869 64.0418 45.508L64.0418 45.508C64.0386 45.5275 64.0356 45.5462 64.0356 45.5662C64.0014 46.6145 63.8194 47.4942 63.4479 48.3947C63.2809 48.8021 62.9217 49.1531 62.6043 49.4632L62.6042 49.4633C62.4564 49.6077 62.3177 49.7432 62.2116 49.8715L62.3278 49.9115L62.5024 49.9714C62.8664 50.096 63.24 50.2239 63.692 50.3945C64.2644 50.6107 64.9033 50.8647 65.6255 51.1737C65.8343 51.259 66.035 51.3481 66.2286 51.441C66.7992 50.7509 67.2749 49.9547 67.6882 49.0068ZM46.7227 45.7081C46.5312 45.7631 46.3454 45.8219 46.1616 45.8844C45.1189 46.2446 44.291 46.6421 43.491 47.1711C43.5687 46.6175 43.5801 46.0563 43.5194 45.4288C43.5137 45.3947 43.5137 45.3663 43.5137 45.3322C43.4303 44.4999 43.254 43.8023 42.9602 43.097C42.6474 42.3634 42.2966 41.8458 41.836 41.4477C41.4189 41.0875 41.0246 40.9207 40.5885 40.9245C40.5449 40.9245 40.4994 40.9263 40.4539 40.9301C39.9648 40.9718 39.5591 41.2107 39.1743 41.679C38.7913 42.1453 38.5392 42.7254 38.3572 43.4951C38.1752 44.2629 38.1278 45.0175 38.2036 45.8838C38.2036 45.9009 38.2055 45.9165 38.2074 45.9321L38.2074 45.9322C38.2093 45.9478 38.2112 45.9635 38.2112 45.9805C38.2946 46.8204 38.4634 47.518 38.7629 48.2232C39.07 48.9493 39.4264 49.4669 39.8871 49.865C39.9648 49.9313 40.0407 49.992 40.1165 50.0451C39.9592 50.1668 39.8188 50.2769 39.6873 50.3801C39.4194 50.5903 39.1879 50.7719 38.9234 50.9651C38.6713 51.149 38.3718 51.3689 38.0229 51.6268C37.2627 50.9139 36.6693 50.0191 36.1499 48.8381C35.5357 47.4428 35.2077 46.0456 35.1091 44.3962V44.383C35.0181 42.7336 35.1793 41.3156 35.6324 39.8482C36.0873 38.3809 36.694 37.3193 37.5755 36.4472C38.4552 35.5732 39.3424 35.1334 40.4116 35.0784C40.495 35.0746 40.5766 35.0728 40.6581 35.0728C41.6268 35.0746 42.4913 35.3969 43.3861 36.1116C44.3568 36.887 45.0904 37.8785 45.7047 39.2757C46.3208 40.6729 46.6488 42.0701 46.7398 43.7194V43.7327C46.7834 44.4247 46.7777 45.0768 46.7227 45.7081ZM68.3991 54.9236C67.9005 53.9473 66.8824 53.0183 65.1497 52.3074L65.1459 52.3055L65.1402 52.3036C63.6574 51.6687 62.52 51.2764 61.5546 50.9435C60.1736 50.4672 59.1447 50.1123 57.9609 49.3424C54.6868 47.2381 51.9815 46.5006 49.7331 46.5101C48.5559 46.5139 47.5037 46.7224 46.5615 47.0485C44.1157 47.8897 42.4043 49.547 41.2547 50.6603L41.2546 50.6603C41.1167 50.7939 40.9868 50.9197 40.8646 51.0353L40.8628 51.0372C40.8628 51.0382 40.8623 51.0387 40.8618 51.0391C40.8613 51.0396 40.8609 51.0401 40.8609 51.041C40.6914 51.2019 40.4849 51.3519 40.0915 51.6377L40.0914 51.6377L40.091 51.638C39.9652 51.7294 39.8203 51.8347 39.6513 51.9586C38.948 52.4724 37.8939 53.2458 36.3773 54.3833C35.0294 55.3938 34.5915 56.7094 35.0579 58.2507C35.5223 59.792 37.0086 61.5702 39.7272 63.1077L39.731 63.1115L39.7367 63.1134C40.8507 63.7681 41.7317 64.5731 42.5826 65.3507L42.5827 65.3508C43.0205 65.7509 43.4503 66.1437 43.8998 66.505C44.5614 67.0358 45.2572 67.5097 46.0951 67.868C46.9331 68.2263 47.9113 68.469 49.136 68.541C52.01 68.7079 54.1257 67.8453 55.993 66.7761C56.607 66.4258 57.1902 66.0499 57.7609 65.6819C58.9293 64.9286 60.0455 64.2091 61.2671 63.8129L61.2709 63.8111L61.2749 63.8092C65.0018 62.6451 67.6599 60.3001 68.492 58.0725C68.909 56.9578 68.8958 55.8999 68.3991 54.9236ZM58.9428 60.425L58.6443 60.5808C55.7463 62.0936 52.3912 63.845 48.8288 63.845C45.1453 63.845 42.2353 62.1426 40.1423 60.4838C39.2412 59.7704 38.4862 59.0598 37.8847 58.4936L37.8847 58.4936L37.8843 58.4932L37.8839 58.4928L37.8794 58.4886C37.7844 58.3991 37.6931 58.3133 37.6058 58.2316C36.494 57.354 36.6272 56.1232 37.084 56.1595C37.5674 56.2199 37.7917 56.644 38.0128 57.062C38.1419 57.306 38.2698 57.5479 38.4475 57.7141C38.5317 57.7929 38.6186 57.8746 38.7083 57.959C39.3135 58.5285 40.0445 59.2164 40.9063 59.8999C42.8855 61.4677 45.5245 62.9938 48.8288 62.9938C52.1275 62.9938 55.9782 61.0572 58.3286 59.7388C59.3665 59.1565 60.6249 58.2147 61.7843 57.3469L61.7844 57.3468C62.1124 57.1012 62.4326 56.8616 62.7376 56.6377C63.1862 56.3084 63.4376 55.9506 63.6451 55.6555C63.9268 55.2545 64.1274 54.9692 64.6305 55.0278C65.5041 55.1296 64.8579 56.0629 63.6345 57.1305C62.4112 58.1982 60.4973 59.6148 58.9428 60.425ZM52.2548 50.0338C51.9586 49.9703 51.6658 49.9075 51.5866 49.6532C51.5466 49.5248 51.6749 49.3715 51.7924 49.3062C52.3054 49.0209 53.0061 49.1291 53.553 49.3423C53.9779 49.508 54.6384 49.7954 54.5791 50.2477C54.5342 50.59 53.9971 50.7195 53.652 50.7095C53.4216 50.7029 53.233 50.5531 53.0432 50.4024L53.0432 50.4024C52.9352 50.3166 52.8268 50.2305 52.7101 50.1704C52.5804 50.1036 52.4171 50.0686 52.2548 50.0338ZM47.8397 49.6532C47.7605 49.9075 47.4676 49.9703 47.1714 50.0338C47.0092 50.0686 46.8459 50.1036 46.7162 50.1704C46.5995 50.2305 46.4911 50.3166 46.383 50.4024C46.1933 50.5531 46.0047 50.7029 45.7743 50.7095C45.4292 50.7195 44.8921 50.59 44.8472 50.2477C44.7879 49.7954 45.4483 49.508 45.8733 49.3423C46.4202 49.1291 47.1208 49.0209 47.6338 49.3062C47.7514 49.3715 47.8797 49.5248 47.8397 49.6532Z" fill="black"/>
</svg>
