<svg width="108" height="108" viewBox="0 0 108 108" fill="none" xmlns="http://www.w3.org/2000/svg">
<path d="M22.5 9C22.5 6.525 20.475 4.5 18 4.5C15.525 4.5 13.5 6.525 13.5 9V27H4.5V54H31.5V27H22.5V9ZM40.5 72C40.5 77.85 44.28 82.8 49.5 84.69V103.5H58.5V84.69C63.72 82.845 67.5 77.895 67.5 72V63H40.5V72ZM4.5 72C4.5 77.85 8.28 82.8 13.5 84.69V103.5H22.5V84.69C27.72 82.8 31.5 77.85 31.5 72V63H4.5V72ZM94.5 27V9C94.5 6.525 92.475 4.5 90 4.5C87.525 4.5 85.5 6.525 85.5 9V27H76.5V54H103.5V27H94.5ZM58.5 9C58.5 6.525 56.475 4.5 54 4.5C51.525 4.5 49.5 6.525 49.5 9V27H40.5V54H67.5V27H58.5V9ZM76.5 72C76.5 77.85 80.28 82.8 85.5 84.69V103.5H94.5V84.69C99.72 82.845 103.5 77.895 103.5 72V63H76.5V72Z" fill="black"/>
</svg>
