<svg width="108" height="84" viewBox="0 0 108 84" fill="none" xmlns="http://www.w3.org/2000/svg">
<path fill-rule="evenodd" clip-rule="evenodd" d="M9.3645 27.9006C9.3645 25.9341 7.6905 24.2961 5.688 24.2961H3.681C1.674 24.2961 0 25.9341 0 27.9006C0 29.8671 1.674 31.5096 3.681 31.5096H5.688C7.6905 31.5096 9.3645 29.8671 9.3645 27.9006Z" fill="black"/>
<path fill-rule="evenodd" clip-rule="evenodd" d="M74.5831 30.196L81.2701 41.3425C81.6076 41.9995 81.6076 42.328 81.2701 42.985L74.5831 54.1315C74.2456 54.784 73.5796 54.784 73.2421 54.784H60.2011C59.5306 54.784 59.1976 54.46 58.8646 54.1315L52.1731 42.985C51.8401 42.328 51.8401 41.9995 52.1731 41.3425L58.8646 30.196C59.1976 29.5435 59.8681 29.5435 60.2011 29.5435H73.2421C73.9126 29.215 74.2456 29.5435 74.5831 30.196Z" fill="black"/>
<path fill-rule="evenodd" clip-rule="evenodd" d="M99.999 26.9193C93.9825 14.1348 81.27 6.59279 67.896 5.93579H30.1005C26.757 5.93579 24.417 8.55929 24.417 11.5113C24.417 14.7873 27.09 17.0823 30.1005 17.0823H39.798C41.805 17.0823 43.479 18.7248 43.479 20.6913C43.479 22.6578 41.805 24.2958 39.798 24.2958H16.056C14.049 24.2958 12.375 25.9338 12.375 27.9048C12.375 29.8713 14.049 31.5093 16.056 31.5093H33.111C35.118 31.5093 36.792 33.1473 36.792 35.1138C36.792 37.0848 35.118 38.7228 33.111 38.7228H22.41C20.403 38.7228 18.729 40.3608 18.729 42.3273C18.729 44.2938 20.403 45.9363 22.41 45.9363H29.7675C30.1005 49.8693 31.104 53.8023 32.778 57.4068C41.139 75.4383 63.2115 83.3088 81.6075 75.1143C100.67 66.5868 108.698 44.9508 99.999 26.9193ZM57.7395 23.3058C68.3145 18.5493 80.8245 23.0943 85.68 33.4578C90.5355 43.8258 85.9005 56.0883 75.3255 60.8493C64.7505 65.6103 52.2405 61.0653 47.3805 50.6973C42.525 40.3293 47.1645 28.0668 57.7395 23.3058Z" fill="black"/>
</svg>
