<svg width="108" height="108" viewBox="0 0 108 108" fill="none" xmlns="http://www.w3.org/2000/svg">
<g clip-path="url(#clip0)">
<path d="M105.399 30.6456L62.9057 58.5411C62.1722 59.0136 61.5827 59.6751 61.1912 60.4536L54.7157 73.4451C54.5222 73.8816 54.0857 74.1696 53.6042 74.1696C53.1272 74.1696 52.6907 73.8816 52.4972 73.4451L46.0217 60.4536C45.6302 59.6751 45.0362 59.0136 44.3072 58.5411L1.81369 30.6456C1.36819 30.1191 0.580686 30.0516 0.0496861 30.4971C-0.476814 30.9381 -0.544314 31.7301 -0.0988139 32.2566L17.6582 66.7986C17.8337 67.1631 17.8202 67.5906 17.6312 67.9506C17.4377 68.3061 17.0867 68.5536 16.6817 68.6076H6.00769C5.46769 68.6031 4.98619 68.9496 4.81969 69.4626C4.64869 69.9801 4.83319 70.5426 5.26969 70.8576L52.8662 104.963C53.3117 105.265 53.9012 105.265 54.3467 104.963L101.943 70.8576C102.38 70.5426 102.564 69.9801 102.393 69.4626C102.227 68.9496 101.745 68.6031 101.201 68.6076H90.5267C90.1037 68.5941 89.7122 68.3646 89.4872 68.0001C89.2667 67.6356 89.2397 67.1856 89.4197 66.7986L107.312 32.2566C107.757 31.7301 107.69 30.9381 107.159 30.4971C106.632 30.0516 105.845 30.1191 105.399 30.6456Z" fill="black"/>
<path d="M54.5447 5.06747L58.9097 13.964C59.0672 14.261 59.3507 14.4725 59.6837 14.5355L69.5162 15.944C69.9077 16.0025 70.2362 16.277 70.3577 16.655C70.4792 17.033 70.3712 17.447 70.0877 17.7215L62.9732 24.638C62.7392 24.881 62.6267 25.214 62.6672 25.5425L64.3457 35.312C64.4222 35.6945 64.2692 36.0905 63.9497 36.32C63.6347 36.5495 63.2117 36.5765 62.8697 36.3875L54.0767 31.7885C53.7842 31.6175 53.4287 31.6175 53.1362 31.7885L44.3432 36.3875C44.0012 36.5765 43.5782 36.5495 43.2587 36.32C42.9437 36.0905 42.7907 35.6945 42.8627 35.312L44.5412 25.5425C44.5862 25.214 44.4737 24.881 44.2397 24.638L37.1252 17.7215C36.8372 17.447 36.7337 17.033 36.8552 16.655C36.9767 16.277 37.3007 16.0025 37.6967 15.944L47.5292 14.567C47.8622 14.504 48.1457 14.297 48.3032 13.9955L52.6682 5.10347C52.8302 4.73447 53.1947 4.50047 53.5952 4.49147C53.9957 4.48247 54.3692 4.70747 54.5447 5.06747Z" fill="black"/>
</g>
<defs>
<clipPath id="clip0">
<rect width="108" height="108" fill="white"/>
</clipPath>
</defs>
</svg>
